<?xml version="1.0" encoding="utf-8"?>
<!-- Generator: Adobe Illustrator 16.0.0, SVG Export Plug-In . SVG Version: 6.00 Build 0)  -->
<!DOCTYPE svg PUBLIC "-//W3C//DTD SVG 1.1//EN" "http://www.w3.org/Graphics/SVG/1.1/DTD/svg11.dtd">
<svg version="1.1" id="Layer_1" xmlns="http://www.w3.org/2000/svg" xmlns:xlink="http://www.w3.org/1999/xlink" x="0px" y="0px"
	 width="487px" height="338px" viewBox="0 0 487 338" enable-background="new 0 0 487 338"
	 xml:space="preserve">
<g id="chmurki_na_bialym">
</g>
<g id="sky">
	<rect fill="#A8DCE3" width="487" height="338"/>
	<g>
		<circle fill="#FFFFFF" cx="55.611" cy="290.283" r="7.2"/>
		<circle fill="#FFFFFF" cx="87.554" cy="288.974" r="8.51"/>
		<circle fill="#FFFFFF" cx="80.877" cy="285.837" r="8.509"/>
		<circle fill="#FFFFFF" cx="71.844" cy="277.328" r="8.509"/>
		<circle fill="#FFFFFF" cx="63.71" cy="281.893" r="9.409"/>
		<polygon fill="#FFFFFF" points="55.611,297.483 87.554,297.483 87.554,288.974 72.695,274.115 56.462,290.349 		"/>
	</g>
	<g>
		<circle fill="#FFFFFF" cx="301.809" cy="65.167" r="7.883"/>
		<circle fill="#FFFFFF" cx="336.78" cy="63.734" r="9.316"/>
		<circle fill="#FFFFFF" cx="329.471" cy="60.3" r="9.316"/>
		<circle fill="#FFFFFF" cx="319.581" cy="50.983" r="9.316"/>
		<circle fill="#FFFFFF" cx="310.676" cy="55.981" r="10.3"/>
		<polygon fill="#FFFFFF" points="301.809,73.05 336.78,73.05 336.78,63.734 320.513,47.466 302.74,65.238 		"/>
	</g>
	<g>
		<circle fill="#FFFFFF" cx="101.223" cy="96.25" r="10.233"/>
		<circle fill="#FFFFFF" cx="146.622" cy="94.39" r="12.094"/>
		<circle fill="#FFFFFF" cx="137.132" cy="89.932" r="12.094"/>
		<circle fill="#FFFFFF" cx="124.294" cy="77.838" r="12.094"/>
		<circle fill="#FFFFFF" cx="112.734" cy="84.325" r="13.372"/>
		<polygon fill="#FFFFFF" points="101.223,106.482 146.622,106.482 146.622,94.39 125.504,73.271 102.433,96.343 		"/>
	</g>
	<g>
		<circle fill="#FFFFFF" cx="369.668" cy="289.832" r="5.708"/>
		<circle fill="#FFFFFF" cx="394.994" cy="288.794" r="6.747"/>
		<circle fill="#FFFFFF" cx="389.701" cy="286.308" r="6.747"/>
		<circle fill="#FFFFFF" cx="382.539" cy="279.561" r="6.747"/>
		<circle fill="#FFFFFF" cx="376.09" cy="283.181" r="7.459"/>
		<polygon fill="#FFFFFF" points="369.668,295.541 394.994,295.541 394.994,288.794 383.214,277.014 370.343,289.884 		"/>
	</g>
	<g>
		<circle fill="#FFFFFF" cx="235.97" cy="205.42" r="14.6"/>
		<circle fill="#FFFFFF" cx="300.742" cy="202.766" r="17.254"/>
		<circle fill="#FFFFFF" cx="287.204" cy="196.405" r="17.254"/>
		<circle fill="#FFFFFF" cx="268.887" cy="179.15" r="17.254"/>
		<circle fill="#FFFFFF" cx="252.395" cy="188.407" r="19.078"/>
		<polygon fill="#FFFFFF" points="235.971,220.02 300.742,220.02 300.742,202.766 270.613,172.635 237.696,205.553 		"/>
	</g>
	<path fill="#FFFFFF" d="M480.064,134.717c-3.254,0-6.124,1.645-7.826,4.146c-0.398-0.047-0.803-0.072-1.214-0.072
		c-5.775,0-10.457,4.682-10.457,10.457c0,0.488,0.036,0.968,0.101,1.438c-3.773,0.644-6.647,3.928-6.647,7.886
		c0,4.42,3.583,8.002,8.002,8.002h25.332v-28.425C485.62,136.053,482.998,134.717,480.064,134.717z"/>
	<path fill="#FFFFFF" d="M19.627,157.117c0-5.223-4.234-9.457-9.458-9.457c-0.028,0-0.057,0.002-0.086,0.002
		c-1.733-2.128-4.375-3.488-7.334-3.488c-0.196,0-0.39,0.008-0.582,0.02c0-0.006,0-0.013,0-0.02c0-2.289-0.813-4.388-2.167-6.024
		v28.425h10.169C15.393,166.574,19.627,162.34,19.627,157.117z"/>
</g>
</svg>
