<?xml version="1.0" encoding="utf-8"?>
<!-- Generator: Adobe Illustrator 16.0.0, SVG Export Plug-In . SVG Version: 6.00 Build 0)  -->
<!DOCTYPE svg PUBLIC "-//W3C//DTD SVG 1.1//EN" "http://www.w3.org/Graphics/SVG/1.1/DTD/svg11.dtd">
<svg version="1.1" id="Layer_1" xmlns="http://www.w3.org/2000/svg" xmlns:xlink="http://www.w3.org/1999/xlink" x="0px" y="0px"
	 width="487.355px" height="338.826px" viewBox="0 0 487.355 338.826" enable-background="new 0 0 487.355 338.826"
	 xml:space="preserve">
<g id="chmurki_na_bialym">
	<rect x="0.645" y="0.826" fill="#F4F4F4" width="487.355" height="338.826"/>
	<g>
		<circle fill="#80BACD" cx="45.62" cy="259.272" r="5.794"/>
		<circle fill="#80BACD" cx="71.327" cy="258.22" r="6.848"/>
		<circle fill="#80BACD" cx="65.954" cy="255.695" r="6.848"/>
		<circle fill="#80BACD" cx="58.684" cy="248.848" r="6.848"/>
		<circle fill="#80BACD" cx="52.138" cy="252.521" r="7.572"/>
		<polygon fill="#80BACD" points="45.62,265.067 71.327,265.067 71.327,258.22 59.369,246.262 46.305,259.325 		"/>
	</g>
	<g>
		<circle fill="#80BACD" cx="347.959" cy="63.858" r="8.261"/>
		<circle fill="#80BACD" cx="384.613" cy="62.355" r="9.764"/>
		<circle fill="#80BACD" cx="376.951" cy="58.757" r="9.765"/>
		<circle fill="#80BACD" cx="366.586" cy="48.993" r="9.763"/>
		<circle fill="#80BACD" cx="357.254" cy="54.231" r="10.796"/>
		<polygon fill="#80BACD" points="347.959,72.12 384.612,72.12 384.612,62.355 367.563,45.306 348.937,63.933 		"/>
	</g>
	<g>
		<circle fill="#80BACD" cx="216.44" cy="312.961" r="4.663"/>
		<circle fill="#80BACD" cx="237.126" cy="312.113" r="5.511"/>
		<circle fill="#80BACD" cx="232.802" cy="310.082" r="5.511"/>
		<circle fill="#80BACD" cx="226.952" cy="304.571" r="5.511"/>
		<circle fill="#80BACD" cx="221.685" cy="307.527" r="6.093"/>
		<polygon fill="#80BACD" points="216.439,317.624 237.126,317.624 237.126,312.113 227.504,302.491 216.991,313.004 		"/>
	</g>
	<g>
		<g>
			<circle fill="#296D80" cx="80.64" cy="83.486" r="6.792"/>
			<circle fill="#296D80" cx="110.77" cy="82.251" r="8.026"/>
			<circle fill="#296D80" cx="104.472" cy="79.292" r="8.027"/>
			<circle fill="#296D80" cx="95.952" cy="71.267" r="8.027"/>
			<circle fill="#296D80" cx="88.28" cy="75.572" r="8.875"/>
			<polygon fill="#296D80" points="80.64,90.276 110.771,90.276 110.771,82.251 96.754,68.235 81.442,83.548 			"/>
		</g>
	</g>
	<g>
		<g>
			<circle fill="#296D80" cx="377.135" cy="291.301" r="10.098"/>
			<circle fill="#296D80" cx="421.932" cy="289.465" r="11.934"/>
			<circle fill="#296D80" cx="412.568" cy="285.066" r="11.934"/>
			<circle fill="#296D80" cx="399.9" cy="273.133" r="11.934"/>
			<circle fill="#296D80" cx="388.494" cy="279.535" r="13.195"/>
			<polygon fill="#296D80" points="377.135,301.398 421.932,301.398 421.932,289.465 401.094,268.627 378.328,291.393 			"/>
		</g>
	</g>
	<g>
		<circle fill="#A8DCE3" cx="221.176" cy="179.56" r="13.048"/>
		<circle fill="#A8DCE3" cx="279.063" cy="177.188" r="15.421"/>
		<circle fill="#A8DCE3" cx="266.963" cy="171.504" r="15.42"/>
		<circle fill="#A8DCE3" cx="250.594" cy="156.082" r="15.421"/>
		<circle fill="#A8DCE3" cx="235.854" cy="164.355" r="17.05"/>
		<polygon fill="#A8DCE3" points="221.176,192.607 279.063,192.607 279.063,177.188 252.136,150.259 222.718,179.678 		"/>
	</g>
	<path fill="#A8DCE3" d="M480.71,135.543c-3.254,0-6.124,1.644-7.825,4.146c-0.399-0.047-0.804-0.072-1.215-0.072
		c-5.774,0-10.457,4.682-10.457,10.457c0,0.488,0.036,0.968,0.102,1.438c-3.774,0.644-6.648,3.928-6.648,7.886
		c0,4.42,3.583,8.002,8.002,8.002H488v-28.425C486.266,136.879,483.645,135.543,480.71,135.543z"/>
	<path fill="#A8DCE3" d="M20.271,157.943c0-5.223-4.234-9.457-9.458-9.457c-0.028,0-0.057,0.001-0.086,0.002
		C8.993,146.36,6.353,145,3.394,145c-0.196,0-0.39,0.008-0.583,0.02c0-0.006,0.001-0.013,0.001-0.02
		c0-2.289-0.813-4.388-2.167-6.024V167.4h10.169C16.037,167.4,20.271,163.166,20.271,157.943z"/>
</g>
<g id="sky">
</g>
</svg>
