<?xml version="1.0" encoding="utf-8"?>
<!-- Generator: Adobe Illustrator 16.0.0, SVG Export Plug-In . SVG Version: 6.00 Build 0)  -->
<!DOCTYPE svg PUBLIC "-//W3C//DTD SVG 1.1//EN" "http://www.w3.org/Graphics/SVG/1.1/DTD/svg11.dtd">
<svg version="1.1" id="Layer_1" xmlns="http://www.w3.org/2000/svg" xmlns:xlink="http://www.w3.org/1999/xlink" x="0px" y="0px"
	 width="250px" height="250px" viewBox="0 0 250 250" enable-background="new 0 0 250 250" xml:space="preserve">
<g>
	<ellipse opacity="0.08" cx="124.371" cy="221.292" rx="82.296" ry="17.167"/>
	<g>
		<rect x="66" y="82" fill="#B3B2B3" width="2" height="52"/>
		<path fill="#E4CC80" d="M80.826,127.275c-0.45-0.705-1.264-1.092-2.094-0.999l-7.678,0.861l-5.063-5.837
			c-0.547-0.633-1.408-0.899-2.219-0.688c-0.808,0.213-1.427,0.865-1.596,1.686l-1.554,7.566l-7.115,3.011
			c-0.771,0.326-1.29,1.062-1.339,1.897c-0.051,0.836,0.382,1.627,1.109,2.039l6.716,3.818l0.663,7.696
			c0.073,0.833,0.613,1.554,1.393,1.858c0.779,0.304,1.662,0.142,2.283-0.423l5.706-5.21l7.524,1.747
			c0.355,0.083,0.716,0.074,1.053-0.016c0.441-0.114,0.844-0.367,1.145-0.733c0.53-0.646,0.646-1.539,0.303-2.301l-3.191-7.037
			l3.988-6.617C81.291,128.879,81.28,127.98,80.826,127.275z"/>
	</g>
	<g>
		<rect x="154" y="68" fill="#B3B2B3" width="1" height="89"/>
		<path fill="#FF7E70" d="M167.074,149.268c-0.416-1.953-1.408-3.443-2.793-4.2c-1.428-0.781-2.873-1.177-4.291-1.177
			c-2.585,0-4.498,1.297-5.598,2.313c-1.101-1.017-3.013-2.313-5.598-2.313c-1.417,0-2.861,0.396-4.291,1.176
			c-1.387,0.758-2.378,2.248-2.794,4.201c-0.681,3.193,0.254,7.054,2.378,9.836c3.176,4.164,9.641,6.209,9.913,6.293
			c0.128,0.039,0.261,0.06,0.392,0.06c0.132,0,0.264-0.021,0.391-0.06c0.275-0.084,6.739-2.129,9.916-6.292
			C166.821,156.321,167.754,152.461,167.074,149.268z"/>
	</g>
	<g>
		<rect x="201" y="61" fill="#B3B2B3" width="1" height="53"/>
		<path fill="#E4CC80" d="M195.221,111.076c-0.625,0.243-1.039,0.842-1.037,1.512c0,0.67,0.416,1.27,1.043,1.506
			c1.947,0.736,3.509,2.178,4.391,4.06c1.867,3.972,0.152,8.722-3.818,10.587c-1.804,0.847-3.842,0.986-5.742,0.396
			c-0.64-0.199-1.334,0.019-1.75,0.546c-0.413,0.527-0.458,1.257-0.111,1.829c3.733,6.193,11.489,8.542,18.041,5.463
			c7.029-3.301,10.063-11.705,6.759-18.734C209.876,111.599,202.068,108.451,195.221,111.076z"/>
	</g>
	<g>
		<rect x="122" y="19" fill="#B3B2B3" width="7" height="191"/>
		<rect x="126" y="19" fill="#A3A2A3" width="3" height="191"/>
		<path fill="#80BBCE" d="M110,226.752c-11.854,0-22-9.609-22-21.422v-3.08c0-3.598,3.402-6.515,7-6.515s7,2.917,7,6.515v3.08
			c0,4.629,3.33,8.394,8,8.394s8-3.765,8-8.394v-17.412c0-3.598,3.402-6.514,7-6.514s7,2.916,7,6.514v17.412
			C132,217.143,121.853,226.752,110,226.752z"/>
		<g>
			<path fill="#A9DDE4" d="M125.001,18.508L125.001,18.508c-57.74,0-104.55,37.637-104.55,84.145c0,0,6.311-8.617,23.998-8.617
				c17.548,0,36.466,12.465,40.355,16.353L84.817,110h0.011c0,0,0.025,0.322,0.065,0.294
				C84.951,59.393,102.885,18.508,125.001,18.508z"/>
			<path fill="#80BBCE" d="M125.001,18.508c22.114,0.001,40.047,40.885,40.105,91.786c0.04,0.028,0.064-0.294,0.064-0.294h0.01
				l0.015,0.394c3.805-3.804,22.807-16.516,40.355-16.516c17.658,0,23.996,8.688,23.996,8.688
				C229.547,56.061,182.74,18.509,125.001,18.508z"/>
			<path fill="#91D0DD" d="M125.001,18.508L125.001,18.508c-22.116,0-40.05,41.225-40.107,92.127
				c1.157-0.824,18.667-12.977,40.106-12.977s38.95,12.152,40.106,12.977C165.048,59.732,147.115,18.509,125.001,18.508z"/>
		</g>
		<g>
			<path fill="#A3A2A3" d="M117.372,19.266c0,1.786,1.646,3.621,7.441,3.621c5.796,0,7.442-1.835,7.442-3.621"/>
			<ellipse fill="#B3B2B3" cx="124.814" cy="19.266" rx="7.442" ry="2.842"/>
		</g>
		<g>
			<path fill="#80BBCE" d="M131.813,189.779v2.467C131.813,191.85,131.938,190.861,131.813,189.779z"/>
		</g>
		<path fill="#91D0DD" d="M106.781,221.012c10.361,0,18.762-7.68,18.762-17.152v-22.428c-0.18-0.015-0.36-0.027-0.543-0.027
			c-3.598,0-6.813,2.916-6.813,6.514v17.412c0,4.629-3.602,8.394-8.271,8.394c-4.671,0-8.272-3.765-8.272-8.394v-3.08
			c0-3.598-3.215-6.515-6.813-6.515c-3.599,0-6.813,2.917-6.813,6.515v1.609C88.019,213.332,96.419,221.012,106.781,221.012z"/>
	</g>
</g>
</svg>
