<?xml version="1.0" encoding="utf-8"?>
<!-- Generator: Adobe Illustrator 16.0.0, SVG Export Plug-In . SVG Version: 6.00 Build 0)  -->
<!DOCTYPE svg PUBLIC "-//W3C//DTD SVG 1.1//EN" "http://www.w3.org/Graphics/SVG/1.1/DTD/svg11.dtd">
<svg version="1.1" xmlns="http://www.w3.org/2000/svg" xmlns:xlink="http://www.w3.org/1999/xlink" x="0px" y="0px" width="24px"
	 height="26px" viewBox="0 0 24 26" enable-background="new 0 0 24 26" xml:space="preserve">
<g id="wzor">
</g>
<g id="ilu">
	<g id="XMLID_1_">
		<path fill="#E5E5E5" d="M13.833,4.671c-1.093-1.893,0.207-2.753,1.869-3.713c1.663-0.959,3.058-1.656,4.151,0.237
			c1.093,1.894,0.631,4.206-1.031,5.165C17.159,7.32,14.926,6.564,13.833,4.671z"/>
		
			<ellipse transform="matrix(-0.2589 0.9659 -0.9659 -0.2589 32.3189 -17.0644)" fill="#E5E5E5" cx="22.706" cy="3.866" rx="1.069" ry="1.31"/>
		
			<ellipse transform="matrix(-0.7224 0.6915 -0.6915 -0.7224 42.4754 -2.0608)" fill="#E5E5E5" cx="21.651" cy="7.496" rx="1.215" ry="1.487"/>
		
			<ellipse transform="matrix(0.9659 0.2588 -0.2588 0.9659 2.6957 -3.5207)" fill="#E5E5E5" cx="14.719" cy="8.477" rx="1.07" ry="1.31"/>
		
			<ellipse transform="matrix(0.96 -0.2801 0.2801 0.96 -1.891 5.5258)" fill="#E5E5E5" cx="18.389" cy="9.379" rx="1.215" ry="1.489"/>
	</g>
	<g id="XMLID_2_">
		<path fill="#E5E5E5" d="M4.147,14.174c1.093-1.894,2.488-1.198,4.15-0.238c1.663,0.96,2.963,1.821,1.87,3.714
			s-3.326,2.646-4.988,1.688C3.517,18.378,3.054,16.065,4.147,14.174z"/>
		
			<ellipse transform="matrix(-0.9657 0.2597 -0.2597 -0.9657 23.8171 39.7609)" fill="#E5E5E5" cx="9.282" cy="21.454" rx="1.07" ry="1.309"/>
		
			<ellipse transform="matrix(-0.9598 -0.2808 0.2808 -0.9598 4.7199 45.3882)" fill="#E5E5E5" cx="5.612" cy="22.356" rx="1.215" ry="1.487"/>
		<path fill="#E5E5E5" d="M1.572,17.877c0.698-0.188,1.14-0.803,0.986-1.373c-0.152-0.57-0.842-0.881-1.539-0.694
			c-0.7,0.188-1.142,0.802-0.989,1.372C0.184,17.751,0.873,18.063,1.572,17.877z"/>
		
			<ellipse transform="matrix(0.7222 0.6917 -0.6917 0.7222 14.8129 4.0627)" fill="#E5E5E5" cx="2.349" cy="20.473" rx="1.216" ry="1.488"/>
	</g>
</g>
<g id="paleta">
</g>
<g id="klocki" display="none">
</g>
<g id="guides">
</g>
<g id="grid" display="none">
	<g id="_x32_4_Grid_Col" display="inline">
		<g>
			<rect x="-41.064" y="-2946.347" opacity="0.1" fill="#AD0E1A" width="60" height="4556"/>
		</g>
	</g>
</g>
</svg>
