<?xml version="1.0" encoding="utf-8"?>
<!-- Generator: Adobe Illustrator 16.0.0, SVG Export Plug-In . SVG Version: 6.00 Build 0)  -->
<!DOCTYPE svg PUBLIC "-//W3C//DTD SVG 1.1//EN" "http://www.w3.org/Graphics/SVG/1.1/DTD/svg11.dtd">
<svg version="1.1" id="Layer_1" xmlns="http://www.w3.org/2000/svg" xmlns:xlink="http://www.w3.org/1999/xlink" x="0px" y="0px"
	 width="162.305px" height="994.61px" viewBox="0 0 162.305 994.61" enable-background="new 0 0 162.305 994.61"
	 xml:space="preserve">
<g opacity="0.6">
	<g>
		<g>
			<path fill="#A3A2A3" d="M62.973,3.433c0.313-3.164,2.653-2.986,5.399-2.457c1.379,0.258,2.59,0.591,3.366,1.273
				c0.396,0.332,0.778,0.64,1.01,1.086c0.225,0.455,0.327,1.02,0.264,1.751c-0.246,2.921-2.64,5.017-5.429,4.654
				C64.792,9.374,62.669,6.606,62.973,3.433z"/>
			<path fill="#A3A2A3" d="M73.102,11.3c-0.692-0.815-0.729-1.87-0.09-2.345c0.64-0.461,1.701-0.155,2.381,0.673
				c0.678,0.827,0.728,1.843,0.101,2.31C74.867,12.396,73.793,12.115,73.102,11.3z"/>
			<path fill="#A3A2A3" d="M68.393,13.641c-0.227-1.145,0.367-2.18,1.325-2.266c0.958-0.09,1.902,0.777,2.126,1.912
				c0.228,1.145-0.346,2.139-1.3,2.236C69.598,15.629,68.621,14.788,68.393,13.641z"/>
			<path fill="#A3A2A3" d="M61.905,9.845c0.798-0.654,0.983-1.72,0.415-2.392c-0.567-0.673-1.679-0.685-2.49-0.018
				c-0.813,0.663-0.983,1.762-0.407,2.418C60.001,10.514,61.116,10.507,61.905,9.845z"/>
			<path fill="#A3A2A3" d="M66.348,13.401c0.333-1.096-0.135-2.248-1.074-2.589c-0.94-0.342-1.992,0.288-2.332,1.404
				c-0.344,1.112,0.152,2.265,1.098,2.583C64.984,15.116,66.016,14.497,66.348,13.401z"/>
		</g>
		<g>
			<path fill="#A3A2A3" d="M39.441,4.661c2.97-1.625,4.113,0.455,5.413,3.026c1.293,2.579,2.253,4.676-0.621,6.264
				c-2.869,1.592-6.329,0.948-7.712-1.604C35.135,9.799,36.453,6.286,39.441,4.661z"/>
			<path fill="#A3A2A3" d="M38.62,17.843c0.275-1.074,1.225-1.746,2.074-1.518c0.853,0.23,1.301,1.27,1.012,2.318
				c-0.276,1.056-1.189,1.732-2.045,1.518C38.806,19.946,38.337,18.911,38.62,17.843z"/>
			<path fill="#A3A2A3" d="M33.473,15.416c0.902-0.91,2.2-1.034,2.886-0.3c0.681,0.731,0.522,2.045-0.375,2.935
				c-0.896,0.891-2.193,1.038-2.891,0.319S32.567,16.323,33.473,15.416z"/>
			<path fill="#A3A2A3" d="M33.083,7.604c1.048,0.284,2.119-0.2,2.397-1.09c0.278-0.889-0.335-1.856-1.375-2.153
				c-1.04-0.298-2.119,0.199-2.404,1.101C31.415,6.364,32.035,7.32,33.083,7.604z"/>
			<path fill="#A3A2A3" d="M32.439,13.552c1.199-0.392,1.974-1.492,1.721-2.491c-0.251-0.998-1.427-1.512-2.638-1.127
				c-1.207,0.387-2.004,1.517-1.733,2.525C30.053,13.463,31.244,13.943,32.439,13.552z"/>
		</g>
	</g>
	<g>
		<g>
			<path fill="#A3A2A3" d="M44.905,32.699c-0.215-3.198,2.147-3.391,4.958-3.412c2.833-0.022,5.098,0.162,5.28,3.254
				c0.166,3.076-1.859,5.567-4.694,5.659C47.631,38.295,45.097,35.886,44.905,32.699z"/>
			<path fill="#A3A2A3" d="M56.169,38.835c-0.812-0.7-1.015-1.754-0.456-2.345c0.563-0.59,1.681-0.477,2.479,0.234
				c0.794,0.71,0.994,1.747,0.448,2.326C58.09,39.628,56.981,39.535,56.169,38.835z"/>
			<path fill="#A3A2A3" d="M51.867,41.944c-0.405-1.102,0.016-2.221,0.949-2.469c0.94-0.247,2.006,0.457,2.402,1.554
				c0.409,1.104-0.002,2.185-0.929,2.438C53.364,43.72,52.274,43.048,51.867,41.944z"/>
			<path fill="#A3A2A3" d="M44.861,39.222c0.686-0.774,0.696-1.861,0.028-2.436c-0.668-0.574-1.766-0.407-2.458,0.382
				c-0.691,0.789-0.708,1.89-0.034,2.448C43.07,40.176,44.176,39.996,44.861,39.222z"/>
			<path fill="#A3A2A3" d="M49.805,42.032c0.167-1.132-0.487-2.208-1.465-2.392c-0.979-0.185-1.918,0.606-2.095,1.756
				c-0.163,1.155,0.524,2.222,1.502,2.385C48.728,43.944,49.628,43.16,49.805,42.032z"/>
		</g>
		<g>
			<path fill="#A3A2A3" d="M21.85,37.647c2.683-2.085,4.13-0.207,5.822,2.131c1.706,2.355,2.958,4.26,0.381,6.297
				c-2.562,2.045-6.114,1.971-7.873-0.327c-0.879-1.149-1.139-2.648-0.85-4.133C19.638,40.142,20.519,38.698,21.85,37.647z"/>
			<path fill="#A3A2A3" d="M23.14,50.851c0.104-1.108,0.904-1.943,1.792-1.851c0.883,0.089,1.478,1.037,1.385,2.131
				c-0.1,1.09-0.891,1.91-1.771,1.841S23.035,51.957,23.14,50.851z"/>
			<path fill="#A3A2A3" d="M17.663,49.308c0.75-1.057,2-1.401,2.798-0.785c0.799,0.616,0.85,1.943,0.109,2.978
				c-0.741,1.034-1.999,1.401-2.806,0.806C16.958,51.712,16.915,50.362,17.663,49.308z"/>
			<path fill="#A3A2A3" d="M16.031,41.604c1.085,0.111,2.036-0.562,2.189-1.48c0.145-0.923-0.608-1.782-1.686-1.909
				c-1.074-0.125-2.086,0.534-2.219,1.481C14.184,40.646,14.954,41.496,16.031,41.604z"/>
			<path fill="#A3A2A3" d="M16.341,47.627c1.107-0.6,1.702-1.818,1.3-2.766c-0.403-0.948-1.647-1.266-2.789-0.683
				c-1.151,0.577-1.733,1.85-1.305,2.81C13.968,47.944,15.224,48.22,16.341,47.627z"/>
		</g>
	</g>
	<g>
		<g>
			<path fill="#A3A2A3" d="M31.822,64.44c-0.733-3.093,1.537-3.692,4.299-4.176c2.786-0.489,5.052-0.666,5.755,2.317
				c0.365,1.493,0.142,2.917-0.525,4.042c-0.636,1.13-1.703,1.969-3.083,2.251C35.511,69.446,32.601,67.544,31.822,64.44z"/>
			<path fill="#A3A2A3" d="M43.982,68.53c-0.929-0.545-1.323-1.536-0.853-2.196c0.46-0.663,1.569-0.737,2.481-0.176
				c0.911,0.562,1.284,1.53,0.829,2.175C46.006,68.981,44.908,69.075,43.982,68.53z"/>
			<path fill="#A3A2A3" d="M40.31,72.263c-0.608-1-0.354-2.149,0.512-2.549c0.873-0.398,2.051,0.107,2.64,1.103
				c0.595,0.997,0.345,2.101-0.49,2.507C42.12,73.725,40.925,73.264,40.31,72.263z"/>
			<path fill="#A3A2A3" d="M32.941,70.831c0.504-0.883,0.357-1.937-0.404-2.383c-0.754-0.445-1.82-0.095-2.368,0.799
				c-0.523,0.898-0.327,1.983,0.44,2.409C31.377,72.084,32.423,71.71,32.941,70.831z"/>
			<path fill="#A3A2A3" d="M38.316,72.705c-0.068-1.13-0.897-2.063-1.891-2.073c-1.006-0.014-1.758,0.928-1.708,2.079
				c0.053,1.153,0.907,2.063,1.905,2.05C37.618,74.747,38.376,73.834,38.316,72.705z"/>
		</g>
		<g>
			<path fill="#A3A2A3" d="M10.04,73.547c2.256-2.599,4.028-0.996,6.123,0.991c2.102,2.005,3.671,3.628,1.569,6.149
				c-2.129,2.519-5.639,3.175-7.804,1.253C7.778,80.028,7.73,76.141,10.04,73.547z"/>
			<path fill="#A3A2A3" d="M13.855,86.395c-0.118-1.117,0.498-2.107,1.372-2.199c0.874-0.093,1.678,0.729,1.798,1.823
				c0.121,1.095-0.49,2.064-1.367,2.179S13.973,87.511,13.855,86.395z"/>
			<path fill="#A3A2A3" d="M8.178,86.003c0.525-1.208,1.683-1.809,2.587-1.362c0.906,0.448,1.22,1.752,0.7,2.931
				c-0.52,1.179-1.68,1.809-2.59,1.39C7.965,88.543,7.653,87.21,8.178,86.003z"/>
			<path fill="#A3A2A3" d="M5.066,78.655c1.081-0.111,1.913-0.968,1.861-1.924c-0.06-0.96-0.941-1.663-2.031-1.577
				c-1.098,0.083-1.919,0.964-1.875,1.939C3.069,78.072,3.986,78.766,5.066,78.655z"/>
			<path fill="#A3A2A3" d="M6.547,84.605c0.978-0.826,1.274-2.174,0.716-3.03c-0.575-0.862-1.859-0.926-2.873-0.108
				c-1.025,0.813-1.302,2.222-0.71,3.087C4.282,85.421,5.568,85.43,6.547,84.605z"/>
		</g>
	</g>
	<g>
		<g>
			<path fill="#A3A2A3" d="M25.177,97.876c-1.367-2.842,0.719-3.912,3.315-4.945c1.295-0.521,2.499-0.94,3.543-0.885
				c1.036,0.056,1.884,0.584,2.571,1.94c0.677,1.356,0.764,2.76,0.353,3.973c-0.389,1.211-1.221,2.237-2.507,2.805
				C29.894,101.904,26.632,100.722,25.177,97.876z"/>
			<path fill="#A3A2A3" d="M37.938,99.224c-1.036-0.322-1.621-1.185-1.304-1.911c0.307-0.727,1.374-1.023,2.385-0.676
				c1.01,0.347,1.583,1.188,1.276,1.89C39.999,99.229,38.969,99.547,37.938,99.224z"/>
			<path fill="#A3A2A3" d="M35.191,103.554c-0.795-0.819-0.822-1.972-0.063-2.536c0.76-0.567,2.021-0.333,2.819,0.483
				c0.797,0.818,0.827,1.911,0.064,2.479C37.284,104.545,35.991,104.373,35.191,103.554z"/>
			<path fill="#A3A2A3" d="M27.679,103.806c0.322-0.961-0.065-1.943-0.906-2.208c-0.836-0.264-1.79,0.31-2.133,1.296
				c-0.349,0.985,0.135,1.991,0.969,2.229C26.455,105.363,27.383,104.767,27.679,103.806z"/>
			<path fill="#A3A2A3" d="M33.342,104.412c-0.331-1.063-1.303-1.774-2.291-1.566c-0.488,0.104-0.876,0.422-1.106,0.853
				c-0.21,0.43-0.259,0.973-0.098,1.519c0.324,1.095,1.368,1.771,2.334,1.533C33.146,106.512,33.667,105.475,33.342,104.412z"/>
		</g>
		<g>
			<path fill="#A3A2A3" d="M6.042,111.775c1.548-3.114,3.66-1.941,6.18-0.49c2.539,1.469,4.455,2.668,2.988,5.642
				c-1.409,2.975-4.631,4.507-7.222,3.157c-1.296-0.677-2.188-1.964-2.58-3.484C5.084,115.082,5.27,113.335,6.042,111.775z"/>
			<path fill="#A3A2A3" d="M12.865,123.456c-0.406-1.039,0.003-2.183,0.823-2.484c0.83-0.31,1.795,0.293,2.155,1.33
				c0.373,1.032,0.073,2.103-0.752,2.431C14.275,125.057,13.278,124.49,12.865,123.456z"/>
			<path fill="#A3A2A3" d="M7.277,124.486c0.166-1.253,1.204-2.181,2.17-1.956c0.963,0.224,1.602,1.394,1.425,2.634
				c-0.187,1.247-1.139,2.124-2.131,1.947C7.75,126.935,7.093,125.754,7.277,124.486z"/>
			<path fill="#A3A2A3" d="M2.438,118.05c1.019-0.379,1.584-1.431,1.346-2.364c-0.256-0.934-1.299-1.417-2.331-1.065
				c-1.03,0.353-1.665,1.429-1.396,2.387C0.355,117.968,1.422,118.429,2.438,118.05z"/>
			<path fill="#A3A2A3" d="M5.338,123.563c0.766-1.063,0.758-2.465-0.021-3.172c-0.779-0.707-2.037-0.45-2.806,0.614
				c-0.765,1.059-0.76,2.539,0.035,3.225C3.363,124.89,4.596,124.599,5.338,123.563z"/>
		</g>
	</g>
	<g>
		<g>
			<path fill="#A3A2A3" d="M26.654,131.85c-1.962-2.479-0.204-4.008,2.083-5.667c2.285-1.67,4.233-2.837,6.186-0.443
				c0.976,1.195,1.392,2.59,1.279,3.907c-0.057,0.658-0.245,1.298-0.562,1.881c-0.303,0.578-0.71,1.094-1.264,1.521
				c-1.101,0.854-2.519,1.173-3.927,0.968C29.05,133.812,27.608,133.09,26.654,131.85z"/>
			<path fill="#A3A2A3" d="M39.371,130.234c-1.062-0.093-1.82-0.829-1.693-1.636c0.126-0.807,1.092-1.364,2.158-1.256
				c1.063,0.109,1.82,0.831,1.69,1.621C41.396,129.754,40.432,130.327,39.371,130.234z"/>
			<path fill="#A3A2A3" d="M37.747,135.218c-0.982-0.644-1.3-1.785-0.704-2.523c0.596-0.738,1.881-0.795,2.864-0.153
				c0.984,0.643,1.293,1.74,0.696,2.481C40.006,135.761,38.729,135.861,37.747,135.218z"/>
			<path fill="#A3A2A3" d="M30.482,137.128c0.093-1.023-0.543-1.903-1.423-1.975c-0.879-0.072-1.666,0.703-1.755,1.745
				c-0.089,1.04,0.55,1.937,1.425,1.989C29.604,138.943,30.389,138.149,30.482,137.128z"/>
			<path fill="#A3A2A3" d="M36.135,136.49c-0.536-1.002-1.702-1.482-2.599-1.06c-0.899,0.423-1.188,1.607-0.648,2.631
				c0.541,1.024,1.7,1.481,2.595,1.036C36.377,138.652,36.671,137.491,36.135,136.49z"/>
		</g>
		<g>
			<path fill="#A3A2A3" d="M10.942,149.458c0.866-3.293,3.174-2.619,5.948-1.733c2.777,0.898,4.968,1.675,4.082,4.863
				c-0.886,3.19-3.795,5.275-6.554,4.465C11.659,156.248,10.078,152.761,10.942,149.458z"/>
			<path fill="#A3A2A3" d="M19.883,159.391c-0.592-0.955-0.467-2.108,0.282-2.563c0.749-0.455,1.833-0.058,2.418,0.876
				c0.585,0.935,0.456,2.067-0.287,2.543C21.554,160.723,20.475,160.345,19.883,159.391z"/>
			<path fill="#A3A2A3" d="M14.582,161.45c-0.05-1.309,0.735-2.34,1.747-2.323c1.013,0.017,1.863,1.056,1.906,2.337
				c0.042,1.28-0.732,2.339-1.737,2.348C15.494,163.821,14.632,162.757,14.582,161.45z"/>
			<path fill="#A3A2A3" d="M8.65,156.169c0.934-0.562,1.333-1.688,0.89-2.525c-0.444-0.839-1.566-1.089-2.505-0.547
				c-0.939,0.542-1.334,1.687-0.885,2.543C6.598,156.498,7.717,156.73,8.65,156.169z"/>
			<path fill="#A3A2A3" d="M12.502,160.888c0.528-1.158,0.197-2.492-0.652-3.028c-0.878-0.53-2.068-0.04-2.649,1.126
				c-0.592,1.167-0.218,2.548,0.688,3.073C10.81,162.581,11.976,162.043,12.502,160.888z"/>
		</g>
	</g>
	<g>
		<g>
			<path fill="#A3A2A3" d="M35.023,164.977c-2.546-1.963-1.05-3.836,0.901-5.894c1.949-2.071,3.664-3.563,5.977-1.632
				c0.577,0.482,1.026,1.038,1.343,1.636c0.33,0.592,0.58,1.203,0.667,1.836c0.188,1.259-0.162,2.561-1.084,3.619
				C40.984,166.663,37.528,166.953,35.023,164.977z"/>
			<path fill="#A3A2A3" d="M47.159,160.814c-1.064,0.136-1.977-0.396-2.033-1.177c-0.065-0.778,0.777-1.502,1.84-1.613
				c1.071-0.113,1.978,0.398,2.027,1.157C49.042,159.94,48.223,160.678,47.159,160.814z"/>
			<path fill="#A3A2A3" d="M46.48,165.942c-1.065-0.416-1.572-1.459-1.119-2.297c0.452-0.84,1.694-1.159,2.76-0.745
				c1.067,0.414,1.552,1.406,1.098,2.248C48.766,165.989,47.546,166.359,46.48,165.942z"/>
			<path fill="#A3A2A3" d="M39.758,169.333c-0.091-1.021-0.866-1.748-1.735-1.637c-0.869,0.11-1.496,1.034-1.395,2.077
				c0.05,0.521,0.271,0.968,0.586,1.269c0.334,0.293,0.766,0.436,1.2,0.368C39.304,171.266,39.833,170.361,39.758,169.333z"/>
			<path fill="#A3A2A3" d="M45.136,167.519c-0.694-0.859-1.911-1.083-2.71-0.483c-0.781,0.591-0.914,1.837-0.124,2.685
				c0.771,0.856,2.014,1.033,2.788,0.414C45.868,169.512,45.868,168.36,45.136,167.519z"/>
		</g>
		<g>
			<path fill="#A3A2A3" d="M23.415,185.598c0.197-3.484,2.572-3.298,5.428-3.016c1.435,0.143,2.703,0.302,3.617,0.821
				c0.939,0.51,1.494,1.389,1.449,3.042c-0.093,3.299-2.423,6.007-5.32,5.844c-1.45-0.084-2.772-0.883-3.732-2.099
				C23.894,188.978,23.285,187.358,23.415,185.598z"/>
			<path fill="#A3A2A3" d="M34.401,193.357c-0.831-0.775-0.884-1.985-0.265-2.597c0.632-0.621,1.753-0.467,2.496,0.334
				c0.792,0.771,0.938,1.899,0.328,2.534C36.35,194.264,35.207,194.147,34.401,193.357z"/>
			<path fill="#A3A2A3" d="M29.725,196.589c-0.378-1.253,0.186-2.466,1.165-2.676c0.957-0.195,2.059,0.603,2.401,1.842
				c0.349,1.235-0.152,2.445-1.13,2.688C31.184,198.687,30.088,197.85,29.725,196.589z"/>
			<path fill="#A3A2A3" d="M22.728,192.729c0.775-0.762,0.889-1.954,0.248-2.677s-1.802-0.72-2.588,0.021
				c-0.788,0.741-0.892,1.954-0.24,2.696C20.799,193.513,21.952,193.489,22.728,192.729z"/>
			<path fill="#A3A2A3" d="M27.561,196.521c0.26-1.264-0.29-2.54-1.284-2.858c-0.99-0.32-2.034,0.43-2.313,1.707
				c-0.268,1.269,0.287,2.61,1.329,2.896C26.316,198.563,27.325,197.769,27.561,196.521z"/>
		</g>
	</g>
	<g>
		<g>
			<path fill="#A3A2A3" d="M50.456,195.256c-2.933-1.321-1.894-3.503-0.495-5.94c1.405-2.461,2.725-4.299,5.432-2.984
				c2.632,1.34,3.866,4.173,2.551,6.686C56.646,195.514,53.352,196.597,50.456,195.256z"/>
			<path fill="#A3A2A3" d="M61.282,188.372c-1.003,0.38-2.016,0.071-2.254-0.678c-0.252-0.744,0.431-1.66,1.427-2.013
				c0.985-0.347,2.006-0.064,2.227,0.669C62.909,187.082,62.285,187.992,61.282,188.372z"/>
			<path fill="#A3A2A3" d="M61.827,193.539c-1.134-0.16-1.872-1.062-1.629-1.984c0.243-0.925,1.376-1.524,2.511-1.366
				c1.136,0.158,1.842,1.017,1.598,1.943C64.096,193.042,62.965,193.698,61.827,193.539z"/>
			<path fill="#A3A2A3" d="M56.085,198.396c-0.343-0.965-1.255-1.501-2.078-1.188c-0.819,0.31-1.213,1.355-0.873,2.348
				c0.331,0.997,1.347,1.49,2.15,1.165C56.1,200.388,56.456,199.343,56.085,198.396z"/>
			<path fill="#A3A2A3" d="M60.915,195.373c-0.931-0.65-2.129-0.606-2.778,0.169c-0.319,0.386-0.425,0.879-0.339,1.363
				c0.104,0.475,0.408,0.937,0.879,1.271c0.944,0.673,2.194,0.571,2.805-0.213C62.092,197.18,61.844,196.024,60.915,195.373z"/>
		</g>
		<g>
			<path fill="#A3A2A3" d="M43.855,217.954c-0.566-3.405,1.778-3.782,4.611-4.149c2.875-0.393,5.197-0.652,5.774,2.596
				c0.57,3.264-1.126,6.33-3.992,6.835C47.412,223.707,44.497,221.283,43.855,217.954z"/>
			<path fill="#A3A2A3" d="M56.149,222.967c-0.922-0.609-1.279-1.704-0.792-2.436c0.485-0.733,1.623-0.837,2.534-0.238
				c0.912,0.599,1.26,1.682,0.784,2.425C58.199,223.461,57.07,223.576,56.149,222.967z"/>
			<path fill="#A3A2A3" d="M52.212,227.076c-0.569-1.149-0.281-2.412,0.633-2.83c0.916-0.419,2.104,0.154,2.66,1.288
				c0.557,1.135,0.282,2.411-0.621,2.844C53.982,228.811,52.782,228.225,52.212,227.076z"/>
			<path fill="#A3A2A3" d="M44.668,224.944c0.602-0.906,0.479-2.085-0.279-2.641c-0.759-0.556-1.876-0.29-2.489,0.602
				c-0.613,0.893-0.48,2.084,0.29,2.652C42.959,226.128,44.066,225.85,44.668,224.944z"/>
			<path fill="#A3A2A3" d="M50.119,227.463c0.01-1.261-0.81-2.323-1.842-2.396c-1.017-0.1-1.889,0.871-1.903,2.14
				c-0.01,1.26,0.833,2.352,1.866,2.422S50.108,228.721,50.119,227.463z"/>
		</g>
	</g>
	<g>
		<g>
			<path fill="#A3A2A3" d="M72.232,221.77c-3.078-0.867-2.546-3.121-1.679-5.805c0.899-2.711,1.793-4.812,4.771-3.969
				c3.036,0.815,4.737,3.622,3.926,6.342C78.462,221.042,75.293,222.643,72.232,221.77z"/>
			<path fill="#A3A2A3" d="M81.686,213.104c-0.928,0.535-1.997,0.37-2.381-0.364c-0.386-0.735,0.065-1.754,1.002-2.282
				c0.936-0.526,1.997-0.369,2.373,0.357C83.057,211.541,82.614,212.568,81.686,213.104z"/>
			<path fill="#A3A2A3" d="M83.318,218.291c-1.198-0.002-2.135-0.799-2.085-1.772c0.049-0.974,1.068-1.756,2.266-1.756
				c1.198,0.001,2.121,0.785,2.071,1.76C85.52,217.496,84.516,218.292,83.318,218.291z"/>
			<path fill="#A3A2A3" d="M78.429,223.999c-0.517-0.914-1.552-1.297-2.316-0.856c-0.764,0.438-0.962,1.537-0.439,2.458
				c0.523,0.92,1.565,1.307,2.321,0.862C78.752,226.018,78.946,224.913,78.429,223.999z"/>
			<path fill="#A3A2A3" d="M82.738,220.284c-1.039-0.557-2.284-0.308-2.776,0.559c-0.494,0.867-0.041,2.031,1.005,2.595
				c1.046,0.563,2.283,0.308,2.769-0.566C84.22,221.997,83.776,220.841,82.738,220.284z"/>
		</g>
		<g>
			<path fill="#A3A2A3" d="M68.983,245.01c-0.906-3.157,1.308-3.906,4.066-4.683c2.761-0.779,5.018-1.264,5.909,1.845
				c0.889,3.116-0.61,6.296-3.357,7.096C72.855,250.069,69.9,248.192,68.983,245.01z"/>
			<path fill="#A3A2A3" d="M81.331,248.425c-0.935-0.513-1.355-1.559-0.927-2.328c0.426-0.771,1.534-0.978,2.473-0.462
				c0.938,0.516,1.346,1.554,0.918,2.323C83.366,248.727,82.262,248.936,81.331,248.425z"/>
			<path fill="#A3A2A3" d="M77.7,252.807c-0.589-1.046-0.391-2.319,0.479-2.815c0.87-0.498,2.058-0.051,2.651,0.998
				c0.595,1.052,0.375,2.307-0.491,2.808C79.475,254.297,78.293,253.855,77.7,252.807z"/>
			<path fill="#A3A2A3" d="M70.302,251.639c0.522-0.943,0.322-2.052-0.447-2.475c-0.774-0.432-1.829-0.026-2.35,0.922
				c-0.519,0.951-0.31,2.073,0.457,2.491C68.732,253.001,69.779,252.581,70.302,251.639z"/>
			<path fill="#A3A2A3" d="M75.697,253.4c-0.049-1.223-0.897-2.178-1.895-2.135c-0.999,0.043-1.77,1.068-1.721,2.291
				c0.048,1.222,0.901,2.181,1.896,2.136C74.963,255.64,75.741,254.619,75.697,253.4z"/>
		</g>
	</g>
	<g>
		<g>
			<path fill="#A3A2A3" d="M97.282,246.333c-3.149-0.82-2.713-3.087-2.019-5.861c0.697-2.772,1.391-4.996,4.561-4.204
				c3.161,0.763,5.211,3.787,4.493,6.548C103.605,245.595,100.436,247.148,97.282,246.333z"/>
			<path fill="#A3A2A3" d="M106.514,237.428c-0.936,0.542-2.064,0.356-2.523-0.416c-0.461-0.772-0.083-1.844,0.848-2.391
				c0.93-0.547,2.063-0.357,2.527,0.42S107.447,236.885,106.514,237.428z"/>
			<path fill="#A3A2A3" d="M108.51,242.876c-1.243-0.071-2.241-0.891-2.234-1.904c0.005-1.009,1.013-1.804,2.257-1.769
				c1.243,0.028,2.253,0.89,2.247,1.928C110.773,242.156,109.752,242.934,108.51,242.876z"/>
			<path fill="#A3A2A3" d="M103.643,248.614c-0.539-0.959-1.604-1.365-2.369-0.916c-0.766,0.447-0.933,1.544-0.4,2.493
				c0.535,0.944,1.589,1.355,2.356,0.924C103.997,250.685,104.186,249.566,103.643,248.614z"/>
			<path fill="#A3A2A3" d="M107.979,244.932c-1.094-0.627-2.364-0.412-2.842,0.473c-0.479,0.885,0.008,2.098,1.093,2.715
				s2.364,0.412,2.853-0.464C109.568,246.781,109.073,245.559,107.979,244.932z"/>
		</g>
		<g>
			<path fill="#A3A2A3" d="M93.627,269.312c-0.607-3.052,1.538-3.799,4.279-4.49c2.734-0.699,5.027-1.079,5.689,2.027
				c0.594,3.152-1.264,6.118-3.996,6.743C96.906,274.204,94.235,272.357,93.627,269.312z"/>
			<path fill="#A3A2A3" d="M105.262,273.139c-0.861-0.567-1.147-1.608-0.646-2.331c0.499-0.723,1.605-0.844,2.479-0.262
				c0.871,0.582,1.17,1.634,0.658,2.342C107.24,273.597,106.122,273.706,105.262,273.139z"/>
			<path fill="#A3A2A3" d="M101.184,277.097c-0.445-1.038-0.084-2.237,0.815-2.665c0.9-0.429,2.012,0.089,2.473,1.145
				c0.435,1.07,0.015,2.269-0.886,2.671C102.68,278.652,101.65,278.128,101.184,277.097z"/>
			<path fill="#A3A2A3" d="M94.275,275.657c0.607-0.884,0.515-1.946-0.188-2.369c-0.705-0.423-1.75-0.037-2.342,0.856
				c-0.592,0.895-0.512,1.947,0.182,2.359C92.628,276.914,93.666,276.542,94.275,275.657z"/>
			<path fill="#A3A2A3" d="M99.167,277.544c0.117-1.159-0.577-2.116-1.533-2.118c-0.957-0.001-1.815,0.954-1.935,2.112
				c-0.118,1.159,0.549,2.083,1.506,2.085C98.163,279.624,99.05,278.703,99.167,277.544z"/>
		</g>
	</g>
	<g>
		<g>
			<path fill="#A3A2A3" d="M121.31,273.061c-3.021-1.336-2.323-3.474-1.301-6.209c1.017-2.71,1.909-4.935,5.071-3.569
				c1.582,0.686,2.83,1.879,3.538,3.236c0.667,1.41,0.802,2.964,0.241,4.313C127.736,273.528,124.291,274.434,121.31,273.061z"/>
			<path fill="#A3A2A3" d="M131.818,265.717c-1.023,0.368-2.124-0.08-2.529-0.931c-0.394-0.866,0.104-1.897,1.119-2.293
				c1.013-0.392,2.18,0.001,2.574,0.901C133.363,264.317,132.838,265.352,131.818,265.717z"/>
			<path fill="#A3A2A3" d="M133.105,271.776c-1.262-0.316-2.15-1.39-2.004-2.429s1.274-1.651,2.54-1.337s2.187,1.438,2.036,2.478
				C135.529,271.527,134.368,272.091,133.105,271.776z"/>
			<path fill="#A3A2A3" d="M127.303,276.541c-0.401-1.047-1.41-1.664-2.242-1.365c-0.833,0.298-1.187,1.38-0.799,2.405
				c0.194,0.514,0.539,0.919,0.941,1.162c0.385,0.256,0.831,0.349,1.248,0.214C127.275,278.699,127.715,277.579,127.303,276.541z"/>
			<path fill="#A3A2A3" d="M132.266,273.733c-1.025-0.854-2.348-0.89-2.963-0.098c-0.632,0.807-0.272,2.063,0.666,2.95
				c0.955,0.871,2.264,0.964,2.91,0.188C133.521,276.003,133.26,274.615,132.266,273.733z"/>
		</g>
		<g>
			<path fill="#A3A2A3" d="M113.27,294.686c0.066-2.939,2.307-3.294,5.156-3.426c2.828-0.145,5.076,0.05,4.948,3.184
				c-0.133,3.134-2.681,5.481-5.489,5.471C115.045,299.909,113.064,297.673,113.27,294.686z"/>
			<path fill="#A3A2A3" d="M123.373,300.832c-0.654-0.755-0.633-1.82,0.041-2.393c0.673-0.573,1.753-0.416,2.42,0.367
				c0.666,0.782,0.658,1.871-0.027,2.416C125.121,301.769,124.027,301.587,123.373,300.832z"/>
			<path fill="#A3A2A3" d="M118.395,303.586c-0.119-1.081,0.563-2.13,1.531-2.321c0.97-0.192,1.873,0.573,2.01,1.687
				c0.135,1.115-0.561,2.127-1.546,2.286C119.404,305.396,118.514,304.667,118.395,303.586z"/>
			<path fill="#A3A2A3" d="M112.2,300.734c0.808-0.693,1.011-1.698,0.463-2.23c-0.55-0.532-1.631-0.37-2.426,0.349
				c-0.796,0.72-1.013,1.702-0.478,2.208S111.393,301.428,112.2,300.734z"/>
			<path fill="#A3A2A3" d="M116.369,303.531c0.438-1.055,0.093-2.136-0.842-2.333c-0.935-0.2-1.998,0.509-2.396,1.543
				c-0.448,1.058-0.103,2.061,0.792,2.279C114.818,305.238,115.923,304.59,116.369,303.531z"/>
		</g>
	</g>
	<g>
		<g>
			<path fill="#A3A2A3" d="M138.802,305.07c-2.565-2.136-1.173-4.054,0.513-6.422c1.656-2.333,3.063-4.268,5.863-2.06
				c2.637,2.291,3.372,6.216,1.574,8.478C144.956,307.337,141.356,307.214,138.802,305.07z"/>
			<path fill="#A3A2A3" d="M150.963,300.979c-1.091,0.06-2.073-0.673-2.199-1.649c-0.127-0.977,0.64-1.852,1.723-1.938
				c1.081-0.087,2.074,0.669,2.211,1.674C152.833,300.07,152.054,300.92,150.963,300.979z"/>
			<path fill="#A3A2A3" d="M150.51,307.239c-1.106-0.683-1.559-2.008-1.183-2.958c0.411-0.96,1.671-1.228,2.827-0.556
				c1.141,0.675,1.631,2.059,1.179,3.027C152.871,307.725,151.602,307.924,150.51,307.239z"/>
			<path fill="#A3A2A3" d="M143.563,310.149c-0.051-1.137-0.807-2.035-1.682-1.99c-0.875,0.044-1.546,0.99-1.504,2.101
				c0.043,1.109,0.79,1.982,1.672,1.966C142.933,312.209,143.613,311.286,143.563,310.149z"/>
			<path fill="#A3A2A3" d="M149.111,308.896c-0.701-1.14-1.936-1.567-2.761-0.979c-0.826,0.589-0.94,1.945-0.251,3.051
				c0.69,1.105,1.932,1.568,2.769,1.013C149.704,311.428,149.813,310.036,149.111,308.896z"/>
		</g>
		<g>
			<path fill="#A3A2A3" d="M124.89,323.48c1.038-2.84,3.24-2.513,5.94-1.798c2.697,0.697,4.869,1.514,3.869,4.487
				c-0.25,0.738-0.629,1.394-1.099,1.944c-0.487,0.555-1.081,1.011-1.708,1.342c-1.26,0.663-2.703,0.842-4.02,0.426
				C125.223,329.037,123.83,326.313,124.89,323.48z"/>
			<path fill="#A3A2A3" d="M132.885,332.357c-0.425-0.92-0.113-1.95,0.691-2.313s1.803,0.098,2.23,1.042
				c0.429,0.943,0.123,1.994-0.686,2.333S133.311,333.277,132.885,332.357z"/>
			<path fill="#A3A2A3" d="M127.341,333.635c0.178-1.098,1.12-1.929,2.105-1.837c0.987,0.091,1.649,1.095,1.478,2.221
				c-0.172,1.128-1.117,1.928-2.108,1.807S127.164,334.732,127.341,333.635z"/>
			<path fill="#A3A2A3" d="M122.201,329.022c0.969-0.438,1.438-1.353,1.051-2.027s-1.478-0.835-2.441-0.371
				c-0.963,0.464-1.438,1.354-1.057,2.003C120.136,329.276,121.233,329.46,122.201,329.022z"/>
			<path fill="#A3A2A3" d="M125.404,332.997c0.717-0.914,0.641-2.07-0.161-2.547c-0.804-0.478-2.032-0.096-2.752,0.817
				c-0.718,0.913-0.652,2.013,0.153,2.491C123.448,334.236,124.688,333.912,125.404,332.997z"/>
		</g>
	</g>
	<g>
		<g>
			<path fill="#A3A2A3" d="M146.617,340.596c-0.939-1.357-0.955-2.395-0.446-3.329c0.52-0.934,1.541-1.757,2.642-2.653
				c2.233-1.785,4.119-3.23,6.199-0.411c1.981,2.829,1.573,6.668-0.747,8.371C151.926,344.281,148.496,343.302,146.617,340.596z"/>
			<path fill="#A3A2A3" d="M159.416,339.766c-1.064-0.212-1.811-1.14-1.667-2.085c0.143-0.945,1.119-1.567,2.184-1.377
				c1.063,0.19,1.812,1.138,1.67,2.104C161.461,339.374,160.481,339.977,159.416,339.766z"/>
			<path fill="#A3A2A3" d="M157.447,345.524c-0.929-0.904-1.149-2.263-0.495-3.064c0.654-0.803,1.938-0.745,2.869,0.16
				s1.154,2.314,0.497,3.115C159.611,346.527,158.365,346.427,157.447,345.524z"/>
			<path fill="#A3A2A3" d="M150.01,346.622c0.217-1.093-0.364-2.132-1.227-2.303c-0.87-0.173-1.724,0.566-1.908,1.641
				c-0.182,1.073,0.265,2.091,1.136,2.282C148.866,348.435,149.763,347.715,150.01,346.622z"/>
			<path fill="#A3A2A3" d="M155.688,346.751c-0.367-1.232-1.552-1.939-2.465-1.578c-0.468,0.178-0.794,0.585-0.96,1.096
				c-0.188,0.51-0.209,1.126-0.02,1.73c0.38,1.209,1.458,1.93,2.409,1.597C155.604,349.264,156.068,347.982,155.688,346.751z"/>
		</g>
		<g>
			<path fill="#A3A2A3" d="M128.664,355.271c1.554-2.617,3.662-1.751,6.182-0.425c2.503,1.313,4.56,2.588,2.798,5.294
				c-1.718,2.707-5.079,3.605-7.517,2.211C127.658,360.948,127.197,357.89,128.664,355.271z"/>
			<path fill="#A3A2A3" d="M134.599,365.86c-0.249-0.999,0.245-1.951,1.103-2.139c0.857-0.188,1.753,0.476,2,1.494
				c0.248,1.018-0.246,1.988-1.103,2.156C135.743,367.54,134.848,366.857,134.599,365.86z"/>
			<path fill="#A3A2A3" d="M128.92,365.97c0.375-1.056,1.451-1.683,2.403-1.384c0.952,0.298,1.419,1.43,1.044,2.51
				c-0.355,1.085-1.499,1.675-2.432,1.354C129.031,368.132,128.54,367.024,128.92,365.97z"/>
			<path fill="#A3A2A3" d="M124.812,360.258c1.05-0.229,1.737-1.047,1.536-1.813c-0.188-0.765-1.252-1.181-2.282-0.928
				c-1.02,0.255-1.729,1.05-1.521,1.796C122.746,360.059,123.762,360.487,124.812,360.258z"/>
			<path fill="#A3A2A3" d="M127.133,364.928c0.871-0.761,1.008-1.927,0.307-2.573c-0.703-0.647-1.981-0.532-2.854,0.227
				c-0.872,0.761-1.006,1.877-0.303,2.526C124.986,365.755,126.262,365.688,127.133,364.928z"/>
		</g>
	</g>
	<g>
		<g>
			<path fill="#A3A2A3" d="M146.366,376.745c-1.342-3.035,0.712-4.119,3.328-5.418c2.614-1.284,4.801-2.299,6.138,0.852
				c1.336,3.163,0.276,6.87-2.334,8.065C150.887,381.446,147.708,379.783,146.366,376.745z"/>
			<path fill="#A3A2A3" d="M159.073,378.534c-1.005-0.426-1.563-1.49-1.245-2.391c0.316-0.9,1.391-1.313,2.398-0.91
				s1.564,1.488,1.244,2.409C161.151,378.565,160.078,378.958,159.073,378.534z"/>
			<path fill="#A3A2A3" d="M155.914,383.786c-0.698-1.077-0.525-2.449,0.24-3.105c0.791-0.656,2.039-0.338,2.782,0.742
				c0.71,1.078,0.562,2.507-0.272,3.158C157.826,385.232,156.597,384.862,155.914,383.786z"/>
			<path fill="#A3A2A3" d="M148.396,383.341c0.453-1.031,0.167-2.158-0.639-2.503c-0.806-0.346-1.823,0.202-2.271,1.211
				c-0.449,1.009-0.16,2.114,0.641,2.481C146.927,384.898,147.943,384.372,148.396,383.341z"/>
			<path fill="#A3A2A3" d="M153.932,384.641c-0.133-1.309-1.055-2.224-2.054-2.063c-1,0.16-1.696,1.312-1.561,2.591
				c0.138,1.278,1.053,2.222,2.049,2.09C153.361,387.128,154.065,385.947,153.932,384.641z"/>
		</g>
		<g>
			<path fill="#A3A2A3" d="M125.82,387.292c1.105-1.065,2.008-1.315,3.033-1.036c0.99,0.271,2.061,1.061,3.107,1.96
				c2.123,1.793,3.725,3.456,1.52,5.722c-2.205,2.263-5.647,2.372-7.752,0.474C123.625,392.506,123.637,389.422,125.82,387.292z"/>
			<path fill="#A3A2A3" d="M129.26,398.791c0.016-1.011,0.75-1.807,1.629-1.794c0.883,0.013,1.594,0.854,1.564,1.886
				c-0.023,1.032-0.758,1.852-1.637,1.813C129.938,400.66,129.242,399.801,129.26,398.791z"/>
			<path fill="#A3A2A3" d="M123.691,397.594c0.641-0.914,1.854-1.265,2.705-0.765c0.852,0.5,1.012,1.686,0.365,2.629
				c-0.648,0.944-1.851,1.266-2.694,0.736C123.225,399.665,123.053,398.509,123.691,397.594z"/>
			<path fill="#A3A2A3" d="M120.951,391.202c1.067,0.013,1.894-0.622,1.844-1.405c-0.051-0.783-0.962-1.398-2.035-1.389
				c-1.073,0.011-1.895,0.625-1.839,1.384C118.977,390.552,119.885,391.189,120.951,391.202z"/>
			<path fill="#A3A2A3" d="M122.221,396.198c0.523-0.261,0.895-0.66,1.07-1.09c0.159-0.435,0.096-0.907-0.18-1.297
				c-0.561-0.783-1.828-0.957-2.82-0.423c-0.96,0.544-1.426,1.551-0.896,2.327C119.912,396.487,121.174,396.72,122.221,396.198z"/>
		</g>
	</g>
	<g>
		<g>
			<path fill="#A3A2A3" d="M138.188,412.09c-0.271-1.633,0.208-2.562,1.016-3.211c0.815-0.646,2.069-0.968,3.469-1.304
				c2.796-0.664,5.129-1.169,5.784,2.257c0.163,0.858,0.173,1.718,0.054,2.532c-0.141,0.807-0.45,1.554-0.843,2.22
				c-0.795,1.328-2.005,2.294-3.435,2.569C141.377,417.702,138.709,415.338,138.188,412.09z"/>
			<path fill="#A3A2A3" d="M150.113,416.807c-0.87-0.648-1.139-1.812-0.596-2.61c0.544-0.799,1.692-0.952,2.574-0.323
				c0.878,0.626,1.14,1.81,0.589,2.631C152.131,417.325,150.982,417.455,150.113,416.807z"/>
			<path fill="#A3A2A3" d="M145.817,421.203c-0.442-1.223-0.049-2.551,0.893-3s2.076,0.152,2.521,1.377
				c0.444,1.224,0.028,2.604-0.914,3.05C147.374,423.077,146.261,422.424,145.817,421.203z"/>
			<path fill="#A3A2A3" d="M138.641,419.006c0.644-0.912,0.593-2.092-0.117-2.62c-0.71-0.529-1.803-0.227-2.438,0.664
				c-0.613,0.899-0.613,2.032,0.069,2.574C136.832,420.163,137.989,419.913,138.641,419.006z"/>
			<path fill="#A3A2A3" d="M143.73,421.582c0.135-1.322-0.573-2.44-1.571-2.516c-1.014-0.083-1.864,0.917-2.081,2.167
				c-0.187,1.264,0.468,2.39,1.472,2.499C142.552,423.842,143.534,422.873,143.73,421.582z"/>
		</g>
		<g>
			<path fill="#A3A2A3" d="M115.699,417.511c2.515-1.641,4.045,0.04,5.739,2.329c0.84,1.138,1.601,2.218,1.761,3.208
				c0.154,0.986-0.235,1.911-1.586,2.75c-2.703,1.687-6.104,1.015-7.691-1.318c-0.796-1.164-0.993-2.512-0.663-3.756
				C113.584,419.476,114.479,418.341,115.699,417.511z"/>
			<path fill="#A3A2A3" d="M116.395,429.604c0.271-0.982,1.074-1.645,1.939-1.43c0.85,0.209,1.368,1.202,1.152,2.231
				c-0.254,1.01-1.166,1.643-2.015,1.413C116.621,431.589,116.141,430.593,116.395,429.604z"/>
			<path fill="#A3A2A3" d="M111.234,427.19c0.859-0.76,2.074-0.856,2.802-0.167c0.747,0.698,0.611,1.896-0.241,2.685
				c-0.855,0.787-2.11,0.842-2.813,0.138C110.281,429.141,110.39,427.957,111.234,427.19z"/>
			<path fill="#A3A2A3" d="M110.048,420.249c1.041,0.256,2.007-0.178,2.153-0.956c0.147-0.78-0.588-1.596-1.639-1.833
				s-2.008,0.179-2.145,0.939C108.28,419.159,109.008,419.993,110.048,420.249z"/>
			<path fill="#A3A2A3" d="M110.128,425.481c1.116-0.299,1.731-1.292,1.38-2.184c-0.354-0.894-1.549-1.354-2.656-1.054
				c-1.117,0.297-1.684,1.254-1.373,2.137C107.799,425.265,108.979,425.769,110.128,425.481z"/>
		</g>
	</g>
	<g>
		<g>
			<path fill="#A3A2A3" d="M122.192,444.54c0.041-0.817,0.218-1.432,0.505-1.896c0.268-0.477,0.65-0.802,1.121-1.023
				c0.941-0.444,2.24-0.479,3.682-0.489c2.878-0.018,5.256,0.036,5.15,3.458c-0.067,3.474-2.681,6.205-5.576,6.118
				C124.178,450.627,122.032,447.805,122.192,444.54z"/>
			<path fill="#A3A2A3" d="M132.869,451.644c-0.721-0.808-0.754-1.978-0.07-2.62c0.665-0.663,1.793-0.571,2.533,0.233
				c0.743,0.808,0.792,2.017,0.09,2.663C134.729,452.577,133.589,452.45,132.869,451.644z"/>
			<path fill="#A3A2A3" d="M127.832,454.912c-0.196-1.258,0.447-2.445,1.453-2.673c1.005-0.228,1.992,0.593,2.189,1.852
				c0.199,1.26-0.468,2.479-1.474,2.705C128.996,457.022,128.031,456.17,127.832,454.912z"/>
			<path fill="#A3A2A3" d="M121.236,451.318c0.813-0.746,0.999-1.892,0.41-2.55c-0.588-0.66-1.72-0.594-2.523,0.139
				c-0.802,0.734-0.978,1.868-0.416,2.525C119.277,452.097,120.434,452.072,121.236,451.318z"/>
			<path fill="#A3A2A3" d="M125.717,454.839c0.389-1.234-0.084-2.454-1.045-2.734c-0.969-0.287-2.029,0.481-2.431,1.673
				c-0.408,1.185,0.032,2.399,0.992,2.704C124.186,456.779,125.328,456.07,125.717,454.839z"/>
		</g>
		<g>
			<path fill="#A3A2A3" d="M98.963,445.576c2.842-1.224,4.004,0.748,5.234,3.317c0.615,1.282,1.141,2.469,1.139,3.492
				c-0.02,1.014-0.562,1.867-2.041,2.486c-2.963,1.241-6.25,0.078-7.414-2.51C94.694,449.766,96.148,446.801,98.963,445.576z"/>
			<path fill="#A3A2A3" d="M97.46,457.877c0.409-0.965,1.352-1.488,2.168-1.148c0.811,0.337,1.157,1.405,0.769,2.391
				c-0.4,0.978-1.398,1.484-2.205,1.138C97.381,459.91,97.055,458.842,97.46,457.877z"/>
			<path fill="#A3A2A3" d="M92.713,454.733c0.978-0.674,2.215-0.591,2.822,0.208c0.614,0.802,0.303,2.006-0.673,2.69
				c-0.976,0.685-2.24,0.582-2.83-0.223C91.442,456.605,91.745,455.409,92.713,454.733z"/>
			<path fill="#A3A2A3" d="M92.803,447.492c0.992,0.412,2.039,0.114,2.334-0.661c0.295-0.776-0.278-1.728-1.277-2.131
				c-0.999-0.404-2.04-0.114-2.327,0.652C91.244,446.118,91.811,447.079,92.803,447.492z"/>
			<path fill="#A3A2A3" d="M91.894,452.836c1.171-0.153,1.977-1.064,1.79-2.022c-0.187-0.958-1.295-1.602-2.466-1.45
				c-1.175,0.151-1.95,1.043-1.783,1.999S90.7,452.983,91.894,452.836z"/>
		</g>
	</g>
	<g>
		<g>
			<path fill="#A3A2A3" d="M101.166,473.502c0.523-3.196,2.794-3.021,5.646-2.613c2.84,0.401,5.146,0.836,4.638,4.119
				c-0.503,3.313-3.273,5.597-6.108,5.146C102.504,479.708,100.65,476.709,101.166,473.502z"/>
			<path fill="#A3A2A3" d="M110.919,481.83c-0.63-0.876-0.553-2.013,0.173-2.54c0.721-0.542,1.82-0.28,2.457,0.6
				c0.635,0.88,0.559,2.04-0.172,2.564C112.648,482.987,111.549,482.707,110.919,481.83z"/>
			<path fill="#A3A2A3" d="M105.704,484.314c-0.085-1.236,0.657-2.304,1.662-2.392s1.894,0.838,1.979,2.073
				c0.085,1.236-0.667,2.314-1.671,2.402C106.669,486.486,105.789,485.55,105.704,484.314z"/>
			<path fill="#A3A2A3" d="M99.525,480.036c0.877-0.632,1.174-1.729,0.658-2.443c-0.514-0.717-1.64-0.786-2.514-0.157
				c-0.873,0.629-1.165,1.722-0.658,2.435C97.521,480.587,98.649,480.672,99.525,480.036z"/>
			<path fill="#A3A2A3" d="M103.628,483.982c0.491-1.143,0.139-2.383-0.782-2.773c-0.923-0.394-2.059,0.217-2.549,1.342
				c-0.49,1.122-0.144,2.355,0.775,2.755C101.989,485.701,103.138,485.124,103.628,483.982z"/>
		</g>
		<g>
			<path fill="#A3A2A3" d="M77.817,472.363c3.021-1.073,3.971,1.037,4.966,3.712c1,2.675,1.665,4.899-1.388,5.985
				c-3.051,1.087-6.316-0.21-7.298-2.892C73.107,476.492,74.807,473.43,77.817,472.363z"/>
			<path fill="#A3A2A3" d="M75.318,484.825c0.454-0.975,1.464-1.45,2.261-1.074c0.796,0.375,1.075,1.466,0.623,2.434
				c-0.453,0.971-1.465,1.457-2.262,1.081C75.143,486.892,74.864,485.799,75.318,484.825z"/>
			<path fill="#A3A2A3" d="M70.708,481.492c1.021-0.683,2.288-0.542,2.844,0.286c0.558,0.83,0.184,2.054-0.833,2.731
				c-1.018,0.677-2.293,0.552-2.849-0.28C69.313,483.397,69.688,482.171,70.708,481.492z"/>
			<path fill="#A3A2A3" d="M71.375,474.053c0.975,0.461,2.064,0.193,2.432-0.597c0.368-0.79-0.123-1.803-1.098-2.263
				c-0.976-0.46-2.063-0.192-2.431,0.596C69.91,472.578,70.4,473.592,71.375,474.053z"/>
			<path fill="#A3A2A3" d="M69.993,479.519c1.213-0.123,2.105-1.025,1.994-2.014c-0.111-0.989-1.185-1.692-2.397-1.57
				c-1.212,0.124-2.102,1.021-1.995,2.016C67.701,478.947,68.777,479.646,69.993,479.519z"/>
		</g>
	</g>
	<g>
		<g>
			<path fill="#A3A2A3" d="M78.552,500.593c0.515-3.189,2.842-2.913,5.645-2.402c2.809,0.513,5.057,1.074,4.519,4.246
				c-0.554,3.177-3.206,5.31-6.005,4.807C79.909,506.742,78.034,503.78,78.552,500.593z"/>
			<path fill="#A3A2A3" d="M88.204,509.043c-0.629-0.874-0.572-1.981,0.131-2.472c0.712-0.494,1.794-0.182,2.418,0.697
				c0.623,0.877,0.547,1.988-0.145,2.473C89.911,510.228,88.833,509.916,88.204,509.043z"/>
			<path fill="#A3A2A3" d="M83.135,511.304c-0.107-1.2,0.607-2.224,1.592-2.282c0.986-0.059,1.87,0.872,1.979,2.071
				c0.108,1.199-0.6,2.215-1.586,2.272C84.135,513.424,83.244,512.503,83.135,511.304z"/>
			<path fill="#A3A2A3" d="M76.95,507.027c0.867-0.61,1.151-1.683,0.637-2.396s-1.634-0.797-2.504-0.182
				c-0.868,0.615-1.159,1.689-0.636,2.4C74.964,507.561,76.081,507.637,76.95,507.027z"/>
			<path fill="#A3A2A3" d="M81.079,510.938c0.464-1.1,0.098-2.316-0.818-2.715c-0.916-0.399-2.044,0.174-2.506,1.279
				c-0.448,1.109-0.065,2.322,0.852,2.715C79.529,512.61,80.606,512.038,81.079,510.938z"/>
		</g>
		<g>
			<path fill="#A3A2A3" d="M55.081,499.774c3.075-1.235,4.033,0.9,5.076,3.564c1.038,2.666,1.766,4.85-1.235,6.111
				c-3.012,1.253-6.378,0.17-7.462-2.494C50.384,504.314,51.986,500.978,55.081,499.774z"/>
			<path fill="#A3A2A3" d="M52.909,512.599c0.416-1.007,1.422-1.557,2.241-1.226c0.819,0.329,1.146,1.41,0.734,2.407
				c-0.422,0.988-1.378,1.571-2.205,1.248C52.859,514.711,52.512,513.626,52.909,512.599z"/>
			<path fill="#A3A2A3" d="M48.1,509.567c0.996-0.779,2.304-0.72,2.895,0.079c0.592,0.802,0.265,2.056-0.708,2.839
				c-0.982,0.774-2.275,0.76-2.883-0.04C46.795,511.646,47.108,510.354,48.1,509.567z"/>
			<path fill="#A3A2A3" d="M48.554,501.898c1.003,0.404,2.101,0.055,2.457-0.784c0.356-0.84-0.16-1.857-1.157-2.27
				c-0.997-0.412-2.101-0.056-2.462,0.791C47.03,500.482,47.552,501.493,48.554,501.898z"/>
			<path fill="#A3A2A3" d="M47.292,507.612c1.235-0.221,2.114-1.204,1.973-2.208c-0.142-1.006-1.25-1.652-2.486-1.433
				c-1.234,0.22-2.127,1.222-1.986,2.227C44.94,507.213,46.057,507.829,47.292,507.612z"/>
		</g>
	</g>
	<g>
		<g>
			<path fill="#A3A2A3" d="M57.299,528.119c0.212-3.199,2.586-3.089,5.391-2.763c2.822,0.326,5.064,0.776,4.828,3.89
				c-0.114,1.558-0.793,2.88-1.775,3.789c-0.95,0.919-2.237,1.417-3.64,1.282C59.295,534.052,57.109,531.331,57.299,528.119z"/>
			<path fill="#A3A2A3" d="M67.675,535.666c-0.707-0.801-0.807-1.892-0.139-2.401c0.653-0.516,1.746-0.271,2.446,0.541
				c0.704,0.813,0.732,1.87,0.109,2.381C69.476,536.699,68.392,536.469,67.675,535.666z"/>
			<path fill="#A3A2A3" d="M62.992,538.222c-0.25-1.149,0.334-2.2,1.291-2.33c0.958-0.131,1.928,0.71,2.179,1.857
				c0.25,1.149-0.314,2.171-1.273,2.302C64.231,540.181,63.242,539.37,62.992,538.222z"/>
			<path fill="#A3A2A3" d="M56.401,534.599c0.791-0.676,0.953-1.751,0.368-2.407c-0.584-0.656-1.701-0.637-2.499,0.052
				c-0.797,0.689-0.967,1.775-0.375,2.418C54.486,535.306,55.611,535.274,56.401,534.599z"/>
			<path fill="#A3A2A3" d="M60.926,538.037c0.326-1.101-0.174-2.254-1.122-2.564c-0.949-0.312-1.995,0.349-2.331,1.464
				c-0.335,1.117,0.232,2.277,1.171,2.565C59.583,539.789,60.584,539.132,60.926,538.037z"/>
		</g>
		<g>
			<path fill="#A3A2A3" d="M33.812,529.992c2.952-1.697,4.136,0.354,5.491,2.889c0.676,1.269,1.264,2.425,1.321,3.462
				c0.042,1.029-0.399,1.966-1.792,2.823c-2.799,1.696-6.308,1.162-7.752-1.354C29.637,535.302,30.807,531.656,33.812,529.992z"/>
			<path fill="#A3A2A3" d="M33.311,543.249c0.272-1.073,1.195-1.786,2.055-1.583c0.86,0.202,1.339,1.23,1.075,2.287
				c-0.258,1.06-1.189,1.747-2.033,1.575C33.543,545.344,33.027,544.314,33.311,543.249z"/>
			<path fill="#A3A2A3" d="M28.075,540.995c0.907-0.937,2.208-1.106,2.912-0.395c0.709,0.717,0.545,2.017-0.329,2.946
				c-0.845,0.947-2.125,1.159-2.853,0.459C27.092,543.317,27.154,541.921,28.075,540.995z"/>
			<path fill="#A3A2A3" d="M27.511,533.143c1.054,0.248,2.103-0.285,2.348-1.198c0.252-0.909-0.357-1.842-1.417-2.118
				c-1.064-0.281-2.134,0.255-2.381,1.19C25.806,531.946,26.458,532.895,27.511,533.143z"/>
			<path fill="#A3A2A3" d="M27.007,539.166c1.206-0.433,1.948-1.572,1.673-2.569c-0.276-0.997-1.467-1.475-2.674-1.042
				c-1.206,0.433-1.969,1.611-1.693,2.607C24.591,539.158,25.803,539.598,27.007,539.166z"/>
		</g>
	</g>
	<g>
		<g>
			<path fill="#A3A2A3" d="M40.147,557.853c-0.284-3.136,2.024-3.447,4.837-3.559c2.818-0.124,5.073-0.001,5.405,3.043
				c0.345,3.039-1.68,5.491-4.397,5.737C43.224,563.299,40.517,561.024,40.147,557.853z"/>
			<path fill="#A3A2A3" d="M51.672,563.463c-0.839-0.654-1.074-1.673-0.531-2.265c0.543-0.593,1.653-0.521,2.485,0.152
				c0.831,0.672,1.074,1.674,0.539,2.248C53.63,564.173,52.512,564.117,51.672,563.463z"/>
			<path fill="#A3A2A3" d="M47.631,566.696c-0.472-1.063-0.113-2.18,0.789-2.464c0.903-0.286,2.01,0.367,2.484,1.43
				c0.475,1.063,0.134,2.132-0.771,2.419C49.229,568.366,48.104,567.76,47.631,566.696z"/>
			<path fill="#A3A2A3" d="M40.495,564.341c0.639-0.8,0.588-1.876-0.109-2.414c-0.697-0.539-1.782-0.32-2.429,0.498
				c-0.646,0.819-0.603,1.912,0.101,2.431C38.762,565.375,39.855,565.14,40.495,564.341z"/>
			<path fill="#A3A2A3" d="M45.584,566.874c0.099-1.117-0.616-2.147-1.6-2.284c-0.985-0.139-1.876,0.688-1.985,1.829
				c-0.108,1.143,0.614,2.146,1.609,2.261C44.603,568.793,45.486,567.992,45.584,566.874z"/>
		</g>
		<g>
			<path fill="#A3A2A3" d="M17.425,564.158c2.544-2.307,4.109-0.491,5.949,1.748c1.834,2.252,3.246,4.079,0.743,6.281
				c-2.424,2.23-5.892,2.47-7.863,0.273C14.225,570.253,14.892,566.481,17.425,564.158z"/>
			<path fill="#A3A2A3" d="M19.613,577.37c0.028-1.118,0.768-2.02,1.647-1.999c0.88,0.018,1.571,0.933,1.548,2.029
				c-0.023,1.098-0.756,1.979-1.642,1.98C20.282,579.383,19.584,578.488,19.613,577.37z"/>
			<path fill="#A3A2A3" d="M14.028,576.262c0.678-1.124,1.905-1.57,2.745-1.015c0.841,0.556,0.983,1.883,0.314,2.981
				c-0.669,1.098-1.902,1.57-2.75,1.04C13.489,578.739,13.352,577.385,14.028,576.262z"/>
			<path fill="#A3A2A3" d="M11.796,568.585c1.094,0.027,2.05-0.707,2.141-1.653c0.09-0.946-0.713-1.762-1.8-1.81
				c-1.088-0.049-2.051,0.705-2.147,1.67C9.892,567.759,10.703,568.556,11.796,568.585z"/>
			<path fill="#A3A2A3" d="M12.591,574.677c1.078-0.689,1.552-1.979,1.068-2.911c-0.484-0.933-1.746-1.154-2.826-0.465
				c-1.079,0.688-1.567,2.028-1.081,2.959C10.237,575.191,11.513,575.364,12.591,574.677z"/>
		</g>
	</g>
	<g>
		<g>
			<path fill="#A3A2A3" d="M29.388,590.219c-1.002-3.014,1.136-3.818,3.854-4.517c2.781-0.695,5.036-1.032,5.919,1.834
				c1.043,2.898-0.283,5.729-2.999,6.53C33.448,594.862,30.397,593.232,29.388,590.219z"/>
			<path fill="#A3A2A3" d="M41.85,593.251c-0.966-0.46-1.435-1.406-1.05-2.1c0.384-0.694,1.472-0.857,2.435-0.376
				c0.961,0.481,1.435,1.407,1.054,2.08C43.909,593.529,42.816,593.712,41.85,593.251z"/>
			<path fill="#A3A2A3" d="M38.458,597.238c-0.689-0.938-0.516-2.092,0.32-2.559c0.843-0.467,2.059-0.064,2.721,0.866
				c0.678,0.936,0.482,2.029-0.291,2.516C40.406,598.539,39.172,598.185,38.458,597.238z"/>
			<path fill="#A3A2A3" d="M31.002,596.461c0.395-0.931,0.203-1.952-0.602-2.331c-0.787-0.377-1.825,0.063-2.311,0.994
				c-0.426,0.944-0.12,2.01,0.686,2.368C29.581,597.852,30.579,597.385,31.002,596.461z"/>
			<path fill="#A3A2A3" d="M36.527,597.857c-0.194-1.127-1.084-1.976-2.078-1.899c-1.024,0.066-1.654,1.079-1.491,2.224
				c0.172,1.147,1.114,1.98,2.102,1.879C36.047,599.958,36.704,598.979,36.527,597.857z"/>
		</g>
		<g>
			<path fill="#A3A2A3" d="M8.444,601.169c2.07-2.768,3.958-1.335,6.192,0.457c1.117,0.899,2.108,1.727,2.563,2.656
				c0.495,0.936,0.488,1.973-0.455,3.316c-1.88,2.682-5.308,3.606-7.643,1.88c-1.167-0.865-1.837-2.241-1.978-3.757
				c-0.07-0.758-0.008-1.55,0.19-2.326C7.534,602.62,7.932,601.862,8.444,601.169z"/>
			<path fill="#A3A2A3" d="M13.332,613.564c-0.183-1.093,0.375-2.118,1.244-2.278c0.869-0.161,1.721,0.588,1.905,1.662
				c0.183,1.074-0.372,2.082-1.242,2.261C14.369,615.389,13.514,614.657,13.332,613.564z"/>
			<path fill="#A3A2A3" d="M7.632,613.611c0.453-1.226,1.576-1.906,2.507-1.536c0.933,0.369,1.323,1.63,0.872,2.831
				c-0.468,1.201-1.483,1.903-2.454,1.558c-0.472-0.173-0.833-0.579-1.009-1.096C7.39,614.851,7.405,614.223,7.632,613.611z"/>
			<path fill="#A3A2A3" d="M3.957,606.632c1.064-0.197,1.811-1.109,1.668-2.047c-0.143-0.938-1.117-1.563-2.18-1.385
				c-1.063,0.178-1.811,1.107-1.67,2.063C1.916,606.221,2.893,606.829,3.957,606.632z"/>
			<path fill="#A3A2A3" d="M5.918,612.364c0.93-0.885,1.151-2.229,0.499-3.033c-0.653-0.804-1.937-0.762-2.867,0.122
				s-1.155,2.274-0.501,3.077S4.989,613.246,5.918,612.364z"/>
		</g>
	</g>
	<g>
		<g>
			<path fill="#A3A2A3" d="M25.494,624.205c-1.549-2.774,0.426-3.981,2.942-5.221c2.516-1.251,4.62-2.06,6.176,0.623
				c1.556,2.673,0.772,5.77-1.75,7.091C30.341,628.015,27.042,626.977,25.494,624.205z"/>
			<path fill="#A3A2A3" d="M38.304,624.771c-1.034-0.271-1.668-1.121-1.417-1.891c0.25-0.77,1.291-1.151,2.326-0.864
				c1.033,0.288,1.668,1.122,1.418,1.874C40.38,624.643,39.338,625.041,38.304,624.771z"/>
			<path fill="#A3A2A3" d="M35.767,629.423c-0.432-0.404-0.695-0.903-0.734-1.38c-0.025-0.475,0.144-0.927,0.515-1.241
				c0.743-0.63,2.011-0.467,2.834,0.336c0.796,0.801,0.939,1.95,0.238,2.584C37.915,630.354,36.638,630.232,35.767,629.423z"/>
			<path fill="#A3A2A3" d="M28.292,630.066c0.259-0.996-0.258-1.977-1.081-2.196c-0.85-0.221-1.788,0.411-2.024,1.424
				c-0.25,1.013,0.242,2.007,1.098,2.211C27.142,631.71,28.041,631.062,28.292,630.066z"/>
			<path fill="#A3A2A3" d="M33.977,630.409c-0.374-1.088-1.452-1.764-2.404-1.498c-0.954,0.264-1.423,1.388-1.049,2.494
				c0.375,1.108,1.45,1.763,2.404,1.478C33.88,632.597,34.352,631.495,33.977,630.409z"/>
		</g>
		<g>
			<path fill="#A3A2A3" d="M6.941,638.799c1.543-3.053,3.656-2.007,6.174-0.655c1.259,0.679,2.382,1.313,2.997,2.144
				c0.657,0.831,0.826,1.854,0.133,3.341c-1.384,2.967-4.599,4.473-7.198,3.186c-1.299-0.645-2.199-1.876-2.602-3.339
				c-0.201-0.73-0.277-1.519-0.217-2.314C6.302,640.364,6.562,639.563,6.941,638.799z"/>
			<path fill="#A3A2A3" d="M13.923,650.089c-0.37-1.043,0.001-2.147,0.829-2.457c0.827-0.311,1.797,0.277,2.165,1.302
				c0.368,1.024-0.004,2.112-0.83,2.439C15.261,651.701,14.292,651.131,13.923,650.089z"/>
			<path fill="#A3A2A3" d="M8.318,651.126c0.234-1.281,1.221-2.145,2.202-1.944c0.982,0.2,1.586,1.371,1.351,2.629
				c-0.242,1.258-1.128,2.14-2.141,1.964c-0.498-0.089-0.916-0.43-1.189-0.909C8.295,652.385,8.201,651.766,8.318,651.126z"/>
			<path fill="#A3A2A3" d="M3.486,644.924c1.014-0.38,1.59-1.405,1.286-2.3s-1.372-1.336-2.387-0.974
				c-1.016,0.361-1.59,1.403-1.285,2.315C1.405,644.878,2.473,645.303,3.486,644.924z"/>
			<path fill="#A3A2A3" d="M6.414,650.201c0.762-1.029,0.747-2.388-0.036-3.062c-0.783-0.675-2.039-0.409-2.802,0.62
				c-0.762,1.029-0.742,2.431,0.041,3.104C4.401,651.537,5.652,651.229,6.414,650.201z"/>
		</g>
	</g>
	<g>
		<g>
			<path fill="#A3A2A3" d="M27.742,658.43c-2.002-2.45-0.266-3.987,1.999-5.643c2.262-1.667,4.197-2.819,6.188-0.47
				c1.991,2.34,1.746,5.496-0.509,7.241C33.197,661.292,29.724,660.883,27.742,658.43z"/>
			<path fill="#A3A2A3" d="M40.447,656.707c-1.064-0.08-1.834-0.798-1.718-1.593c0.115-0.795,1.074-1.352,2.142-1.253
				c1.067,0.099,1.834,0.799,1.715,1.574C42.467,656.212,41.51,656.786,40.447,656.707z"/>
			<path fill="#A3A2A3" d="M38.815,661.67c-0.988-0.625-1.35-1.747-0.735-2.49c0.625-0.749,1.896-0.814,2.85-0.182
				c0.997,0.622,1.326,1.701,0.742,2.44C41.086,662.176,39.811,662.294,38.815,661.67z"/>
			<path fill="#A3A2A3" d="M31.577,663.656c0.074-1.018-0.58-1.884-1.462-1.945c-0.882-0.063-1.655,0.718-1.725,1.756
				c-0.069,1.037,0.588,1.922,1.465,1.963C30.732,665.473,31.502,664.674,31.577,663.656z"/>
			<path fill="#A3A2A3" d="M37.225,662.95c-0.555-0.984-1.731-1.446-2.622-1.016c-0.893,0.43-1.159,1.609-0.6,2.618
				c0.56,1.01,1.729,1.445,2.617,0.991C37.506,665.089,37.78,663.935,37.225,662.95z"/>
		</g>
		<g>
			<path fill="#A3A2A3" d="M12.201,676.259c0.383-1.653,1.262-2.337,2.266-2.479c1.038-0.149,2.24,0.235,3.653,0.656
				c2.799,0.856,5.007,1.597,4.186,4.798c-0.821,3.204-3.69,5.341-6.468,4.574C13.06,683.048,11.404,679.579,12.201,676.259z"/>
			<path fill="#A3A2A3" d="M21.319,686.057c-0.604-0.943-0.52-2.09,0.25-2.564c0.745-0.47,1.805-0.081,2.421,0.837
				c0.603,0.922,0.494,2.055-0.241,2.542C23.015,687.357,21.928,686.999,21.319,686.057z"/>
			<path fill="#A3A2A3" d="M16.053,688.202c-0.073-1.303,0.693-2.346,1.706-2.347c1.013-0.001,1.883,1.021,1.949,2.298
				c0.065,1.276-0.692,2.344-1.697,2.37C17.006,690.55,16.126,689.503,16.053,688.202z"/>
			<path fill="#A3A2A3" d="M10.046,683.016c0.923-0.577,1.299-1.711,0.838-2.544s-1.59-1.067-2.519-0.51
				c-0.929,0.558-1.301,1.71-0.833,2.563C7.999,683.377,9.123,683.593,10.046,683.016z"/>
			<path fill="#A3A2A3" d="M13.963,687.678c0.255-0.582,0.291-1.202,0.163-1.745c-0.108-0.549-0.396-1.016-0.841-1.274
				c-0.89-0.518-2.071-0.007-2.628,1.171c-0.583,1.186-0.216,2.556,0.713,3.061S13.457,688.838,13.963,687.678z"/>
		</g>
	</g>
	<g>
		<g>
			<path fill="#A3A2A3" d="M36.547,691.414c-2.578-1.938-1.078-3.841,0.819-5.923c1.911-2.102,3.598-3.623,5.952-1.723
				c2.274,1.915,2.871,4.967,1.038,7.13C42.544,693.049,39.083,693.365,36.547,691.414z"/>
			<path fill="#A3A2A3" d="M48.63,687.101c-1.064,0.146-1.988-0.384-2.059-1.172c-0.085-0.785,0.784-1.537,1.833-1.657
				c1.038-0.116,1.974,0.389,2.033,1.16C50.501,686.201,49.694,686.953,48.63,687.101z"/>
			<path fill="#A3A2A3" d="M48.044,692.285c-1.076-0.414-1.603-1.462-1.164-2.311c0.438-0.851,1.677-1.183,2.754-0.771
				c1.078,0.412,1.584,1.414,1.145,2.267C50.34,692.32,49.121,692.699,48.044,692.285z"/>
			<path fill="#A3A2A3" d="M41.357,695.738c-0.107-1.024-0.896-1.748-1.765-1.628c-0.869,0.119-1.483,1.051-1.367,2.094
				c0.118,1.041,0.902,1.786,1.792,1.637C40.888,697.698,41.45,696.767,41.357,695.738z"/>
			<path fill="#A3A2A3" d="M46.723,693.88c-0.711-0.861-1.936-1.078-2.727-0.469c-0.784,0.605-0.863,1.839-0.104,2.711
				c0.781,0.863,2.029,1.043,2.798,0.416C47.471,695.906,47.43,694.743,46.723,693.88z"/>
		</g>
		<g>
			<path fill="#A3A2A3" d="M25.065,712.042c0.202-3.435,2.57-3.277,5.429-3.008c1.431,0.138,2.717,0.284,3.613,0.811
				c0.897,0.525,1.472,1.39,1.405,3.035c-0.12,3.277-2.492,5.923-5.384,5.753c-1.446-0.086-2.753-0.87-3.692-2.062
				c-0.467-0.596-0.851-1.288-1.096-2.052C25.117,713.742,25.016,712.902,25.065,712.042z"/>
			<path fill="#A3A2A3" d="M35.888,719.744c-0.746-0.815-0.834-1.979-0.192-2.589c0.641-0.609,1.761-0.447,2.498,0.354
				c0.72,0.811,0.859,1.923,0.231,2.543C37.804,720.669,36.655,720.546,35.888,719.744z"/>
			<path fill="#A3A2A3" d="M31.142,722.889c-0.298-1.262,0.285-2.452,1.262-2.649c0.984-0.201,1.976,0.655,2.309,1.864
				c0.315,1.221-0.22,2.402-1.201,2.628C32.532,724.957,31.467,724.127,31.142,722.889z"/>
			<path fill="#A3A2A3" d="M24.277,719.065c0.785-0.748,0.916-1.918,0.289-2.624s-1.782-0.695-2.575,0.036
				c-0.794,0.73-0.917,1.916-0.282,2.638C22.344,719.837,23.492,719.812,24.277,719.065z"/>
			<path fill="#A3A2A3" d="M29.024,722.785c0.3-1.246-0.242-2.493-1.224-2.809c-0.983-0.315-2.035,0.421-2.336,1.669
				c-0.301,1.246,0.262,2.531,1.245,2.845C27.691,724.805,28.722,724.03,29.024,722.785z"/>
		</g>
	</g>
	<g>
		<g>
			<path fill="#A3A2A3" d="M51.862,722.065c-2.825-1.488-1.765-3.604-0.321-6.023c1.45-2.433,2.787-4.272,5.517-2.831
				c1.364,0.72,2.291,1.843,2.701,3.101c0.46,1.241,0.402,2.619-0.285,3.85C58.104,722.624,54.73,723.53,51.862,722.065z"/>
			<path fill="#A3A2A3" d="M62.946,715.602c-1.023,0.332-2.056-0.036-2.239-0.833c-0.198-0.793,0.473-1.686,1.495-2.003
				c1.022-0.315,1.995,0.055,2.19,0.832C64.616,714.368,63.97,715.269,62.946,715.602z"/>
			<path fill="#A3A2A3" d="M63.412,720.919c-1.154-0.235-1.884-1.192-1.62-2.12c0.265-0.93,1.424-1.479,2.578-1.247
				c1.155,0.233,1.866,1.162,1.601,2.093C65.707,720.574,64.566,721.152,63.412,720.919z"/>
			<path fill="#A3A2A3" d="M57.443,725.492c-0.303-0.995-1.224-1.576-2.061-1.305c-0.836,0.271-1.266,1.301-0.955,2.308
				s1.239,1.599,2.066,1.315C57.322,727.528,57.746,726.487,57.443,725.492z"/>
			<path fill="#A3A2A3" d="M62.414,722.735c-0.879-0.742-2.137-0.748-2.803-0.006c-0.667,0.742-0.481,1.966,0.407,2.723
				c0.881,0.759,2.183,0.729,2.822-0.02C63.477,724.683,63.283,723.48,62.414,722.735z"/>
		</g>
		<g>
			<path fill="#A3A2A3" d="M44.037,744.238c-0.314-3.341,2.026-3.608,4.888-3.819c2.878-0.215,5.142-0.243,5.494,2.979
				c0.336,3.239-1.672,6.145-4.539,6.417C47.019,750.086,44.333,747.618,44.037,744.238z"/>
			<path fill="#A3A2A3" d="M55.708,750.049c-0.844-0.687-1.083-1.806-0.53-2.493c0.552-0.688,1.682-0.69,2.52-0.011
				c0.835,0.684,1.076,1.788,0.535,2.475S56.546,750.741,55.708,750.049z"/>
			<path fill="#A3A2A3" d="M51.402,753.777c-0.435-1.183-0.019-2.41,0.923-2.747c0.947-0.343,2.043,0.348,2.487,1.496
				c0.441,1.152,0.04,2.373-0.9,2.724C52.975,755.598,51.843,754.949,51.402,753.777z"/>
			<path fill="#A3A2A3" d="M44.195,751.144c0.676-0.843,0.658-1.992-0.043-2.571c-0.702-0.58-1.81-0.405-2.499,0.44
				c-0.69,0.85-0.668,2.011,0.04,2.594C42.4,752.194,43.519,751.985,44.195,751.144z"/>
			<path fill="#A3A2A3" d="M49.307,753.984c0.146-1.242-0.544-2.363-1.547-2.517c-1.004-0.152-1.944,0.722-2.089,1.965
				c-0.146,1.241,0.557,2.381,1.561,2.533C48.235,756.118,49.161,755.226,49.307,753.984z"/>
		</g>
	</g>
	<g>
		<g>
			<path fill="#A3A2A3" d="M71.814,750.455c-2.977-1.215-2.196-3.408-1.061-6.014c1.135-2.609,2.204-4.646,5.15-3.456
				c2.932,1.188,4.398,4.244,3.318,6.87C78.122,750.479,74.817,751.657,71.814,750.455z"/>
			<path fill="#A3A2A3" d="M82.174,742.89c-0.996,0.422-2.058,0.122-2.365-0.669c-0.313-0.79,0.238-1.769,1.229-2.188
				c0.989-0.418,2.04-0.122,2.348,0.663C83.697,741.482,83.168,742.467,82.174,742.89z"/>
			<path fill="#A3A2A3" d="M83.287,748.334c-1.198-0.159-2.044-1.081-1.887-2.056s1.258-1.633,2.456-1.475s2.038,1.073,1.881,2.049
				C85.579,747.827,84.484,748.493,83.287,748.334z"/>
			<path fill="#A3A2A3" d="M77.757,753.427c-0.409-0.979-1.396-1.492-2.206-1.146s-1.135,1.419-0.724,2.402
				c0.412,0.981,1.401,1.496,2.208,1.148C77.842,755.483,78.165,754.405,77.757,753.427z"/>
			<path fill="#A3A2A3" d="M82.482,750.261c-0.976-0.695-2.246-0.605-2.835,0.201c-0.591,0.807-0.274,2.029,0.704,2.728
				c0.976,0.696,2.255,0.605,2.839-0.205C83.769,752.173,83.458,750.954,82.482,750.261z"/>
		</g>
		<g>
			<path fill="#A3A2A3" d="M65.746,773.074c-0.466-3.218,1.811-3.693,4.64-4.114c2.827-0.422,5.142-0.619,5.596,2.583
				c0.456,3.203-1.47,6.14-4.293,6.568C68.867,778.541,66.221,776.306,65.746,773.074z"/>
			<path fill="#A3A2A3" d="M77.472,778.041c-0.859-0.635-1.126-1.722-0.598-2.425c0.528-0.705,1.652-0.761,2.51-0.125
				c0.858,0.637,1.129,1.723,0.596,2.426C79.451,778.62,78.331,778.676,77.472,778.041z"/>
			<path fill="#A3A2A3" d="M73.275,781.883c-0.451-1.123-0.066-2.341,0.86-2.719c0.925-0.379,2.046,0.227,2.494,1.35
				c0.441,1.122,0.047,2.335-0.878,2.713C74.823,783.602,73.73,783.007,73.275,781.883z"/>
			<path fill="#A3A2A3" d="M66.134,779.762c0.646-0.862,0.603-1.981-0.096-2.497c-0.705-0.523-1.799-0.249-2.443,0.616
				c-0.644,0.867-0.592,1.995,0.103,2.506C64.396,780.902,65.487,780.623,66.134,779.762z"/>
			<path fill="#A3A2A3" d="M71.207,782.196c0.124-1.211-0.581-2.263-1.571-2.35c-0.991-0.088-1.895,0.823-2.019,2.033
				c-0.124,1.209,0.579,2.259,1.569,2.347C70.177,784.314,71.082,783.405,71.207,782.196z"/>
		</g>
	</g>
	<g>
		<g>
			<path fill="#A3A2A3" d="M93.563,778.151c-3.019-1.218-2.271-3.41-1.199-6.067c1.074-2.653,2.065-4.767,5.097-3.533
				c3.032,1.23,4.632,4.399,3.535,7.077C99.904,778.29,96.562,779.395,93.563,778.151z"/>
			<path fill="#A3A2A3" d="M103.918,770.583c-0.997,0.408-2.088,0.089-2.435-0.729c-0.349-0.814,0.177-1.816,1.173-2.233
				s2.088-0.091,2.438,0.728C105.443,769.164,104.916,770.174,103.918,770.583z"/>
			<path fill="#A3A2A3" d="M105.123,776.243c-1.221-0.206-2.086-1.177-1.938-2.176c0.147-1,1.253-1.65,2.474-1.445
				c1.222,0.205,2.096,1.188,1.947,2.188C107.458,775.809,106.344,776.447,105.123,776.243z"/>
			<path fill="#A3A2A3" d="M99.532,781.267c-0.411-1.002-1.407-1.545-2.222-1.21c-0.815,0.334-1.145,1.415-0.736,2.412
				s1.4,1.535,2.219,1.206C99.61,783.346,99.943,782.269,99.532,781.267z"/>
			<path fill="#A3A2A3" d="M104.319,778.188c-0.997-0.745-2.284-0.689-2.877,0.116c-0.595,0.808-0.273,2.057,0.718,2.795
				c0.993,0.737,2.284,0.688,2.883-0.112C105.641,780.188,105.316,778.932,104.319,778.188z"/>
		</g>
		<g>
			<path fill="#A3A2A3" d="M86.95,800.528c-0.281-3.146,1.972-3.59,4.798-3.927c2.813-0.337,5.168-0.459,5.436,2.743
				c0.246,3.215-1.885,5.987-4.699,6.283c-1.406,0.148-2.713-0.346-3.691-1.269C87.784,803.444,87.089,802.101,86.95,800.528z"/>
			<path fill="#A3A2A3" d="M98.209,805.844c-0.807-0.67-0.991-1.751-0.418-2.418c0.572-0.667,1.691-0.662,2.502,0.018
				c0.812,0.679,1.003,1.767,0.424,2.425C100.139,806.526,99.014,806.514,98.209,805.844z"/>
			<path fill="#A3A2A3" d="M93.753,809.376c-0.354-1.112,0.121-2.282,1.064-2.606c0.944-0.325,2.007,0.326,2.369,1.448
				c0.372,1.117-0.161,2.296-1.096,2.604C95.158,811.128,94.113,810.484,93.753,809.376z"/>
			<path fill="#A3A2A3" d="M86.908,807.028c0.698-0.816,0.758-1.913,0.083-2.432c-0.665-0.521-1.759-0.275-2.447,0.548
				c-0.691,0.823-0.708,1.903-0.061,2.419C85.119,808.082,86.207,807.845,86.908,807.028z"/>
			<path fill="#A3A2A3" d="M91.685,809.583c0.222-1.166-0.389-2.223-1.354-2.347c-0.966-0.125-1.923,0.73-2.146,1.896
				c-0.222,1.167,0.374,2.202,1.341,2.327C90.492,811.584,91.463,810.75,91.685,809.583z"/>
		</g>
	</g>
	<g>
		<g>
			<path fill="#A3A2A3" d="M114.218,807.228c-2.923-1.51-1.987-3.629-0.716-6.224c1.277-2.587,2.406-4.669,5.367-3.104
				c2.953,1.581,4.387,4.97,3.029,7.562C120.535,808.057,117.148,808.731,114.218,807.228z"/>
			<path fill="#A3A2A3" d="M125.247,800.672c-1.042,0.308-2.121-0.145-2.414-1.016c-0.294-0.871,0.304-1.841,1.34-2.16
				c1.034-0.318,2.12,0.143,2.42,1.024C126.893,799.403,126.289,800.363,125.247,800.672z"/>
			<path fill="#A3A2A3" d="M125.971,806.589c-1.205-0.363-1.979-1.457-1.74-2.462c0.24-1.005,1.404-1.541,2.609-1.179
				c1.207,0.363,1.997,1.486,1.756,2.491C128.355,806.444,127.175,806.95,125.971,806.589z"/>
			<path fill="#A3A2A3" d="M119.882,811.004c-0.308-1.059-1.247-1.723-2.092-1.476c-0.845,0.245-1.282,1.298-0.98,2.345
				c0.302,1.046,1.233,1.698,2.085,1.465C119.745,813.104,120.19,812.063,119.882,811.004z"/>
			<path fill="#A3A2A3" d="M124.977,808.469c-0.928-0.882-2.219-0.981-2.891-0.233c-0.672,0.749-0.478,2.05,0.44,2.916
				c0.919,0.865,2.219,0.98,2.9,0.248C126.107,810.667,125.904,809.35,124.977,808.469z"/>
		</g>
		<g>
			<path fill="#A3A2A3" d="M105.135,828.63c0.172-3.098,2.43-3.3,5.254-3.297c2.819-0.008,5.135,0.191,5.006,3.359
				c-0.139,3.173-2.742,5.633-5.514,5.542C107.125,834.136,104.936,831.729,105.135,828.63z"/>
			<path fill="#A3A2A3" d="M115.451,835.22c-0.686-0.77-0.698-1.857-0.033-2.436c0.664-0.58,1.761-0.42,2.453,0.366
				c0.693,0.785,0.713,1.886,0.041,2.449S116.137,835.989,115.451,835.22z"/>
			<path fill="#A3A2A3" d="M110.523,838.061c-0.168-1.129,0.482-2.208,1.457-2.399c0.977-0.191,1.916,0.594,2.094,1.741
				s-0.481,2.206-1.467,2.379C111.623,839.954,110.691,839.189,110.523,838.061z"/>
			<path fill="#A3A2A3" d="M104.182,834.912c0.803-0.704,0.982-1.752,0.407-2.331c-0.576-0.58-1.683-0.462-2.478,0.257
				c-0.796,0.718-0.982,1.753-0.414,2.317C102.266,835.721,103.38,835.616,104.182,834.912z"/>
			<path fill="#A3A2A3" d="M108.467,837.987c0.405-1.104-0.023-2.216-0.944-2.46c-0.923-0.245-1.991,0.47-2.397,1.573
				s0.004,2.179,0.927,2.425C106.975,839.771,108.062,839.092,108.467,837.987z"/>
		</g>
	</g>
	<g>
		<g>
			<path fill="#A3A2A3" d="M131.04,839.011c-2.632-1.98-1.327-3.951,0.298-6.328c1.611-2.355,3.004-4.257,5.787-2.253
				c2.681,2.07,3.502,5.775,1.799,8.097C137.221,840.854,133.662,840.998,131.04,839.011z"/>
			<path fill="#A3A2A3" d="M142.975,834.309c-1.078,0.129-2.07-0.513-2.22-1.442c-0.149-0.929,0.593-1.808,1.665-1.953
				c1.07-0.146,2.068,0.51,2.226,1.456C144.802,833.314,144.052,834.179,142.975,834.309z"/>
			<path fill="#A3A2A3" d="M142.829,840.318c-1.118-0.576-1.771-1.771-1.383-2.729c0.379-0.954,1.618-1.295,2.777-0.736
				c1.153,0.562,1.818,1.797,1.381,2.774C145.192,840.597,143.945,840.895,142.829,840.318z"/>
			<path fill="#A3A2A3" d="M136.084,843.675c-0.091-1.119-0.964-1.915-1.84-1.811c-0.885,0.107-1.453,1.064-1.32,2.147
				c0.105,1.094,0.898,1.904,1.773,1.819S136.195,844.785,136.084,843.675z"/>
			<path fill="#A3A2A3" d="M141.523,842.03c-0.743-1.052-2.011-1.368-2.795-0.737c-0.777,0.626-0.83,1.965-0.084,2.99
				c0.744,1.026,1.997,1.372,2.797,0.761C142.239,844.433,142.275,843.077,141.523,842.03z"/>
		</g>
		<g>
			<path fill="#A3A2A3" d="M118.547,858.527c0.641-2.973,2.92-2.806,5.736-2.333c2.843,0.45,5.035,1.068,4.285,4.177
				s-3.643,5.033-6.41,4.473c-1.383-0.278-2.47-1.115-3.109-2.251C118.393,861.462,118.262,859.999,118.547,858.527z"/>
			<path fill="#A3A2A3" d="M127.543,866.771c-0.562-0.87-0.403-1.934,0.349-2.383c0.752-0.451,1.817-0.104,2.382,0.784
				c0.283,0.443,0.387,0.936,0.324,1.37c-0.08,0.44-0.326,0.822-0.71,1.041C129.104,868.023,128.117,867.637,127.543,866.771z"/>
			<path fill="#A3A2A3" d="M122.197,868.684c0.01-1.129,0.826-2.068,1.826-2.085c0.982-0.013,1.852,0.898,1.768,2.072
				c-0.065,1.169-0.924,2.098-1.916,2.09C122.878,870.754,122.15,869.823,122.197,868.684z"/>
			<path fill="#A3A2A3" d="M116.428,864.518c0.922-0.551,1.306-1.549,0.863-2.218c-0.444-0.671-1.543-0.746-2.458-0.179
				c-0.916,0.568-1.306,1.55-0.868,2.202C114.403,864.977,115.508,865.068,116.428,864.518z"/>
			<path fill="#A3A2A3" d="M120.163,868.256c0.576-1.005,0.324-2.162-0.554-2.559c-0.879-0.397-2.054,0.115-2.631,1.119
				c-0.578,1.005-0.338,2.12,0.542,2.519C118.4,869.732,119.587,869.261,120.163,868.256z"/>
		</g>
	</g>
	<g>
		<g>
			<path fill="#A3A2A3" d="M142.183,873.29c-2.276-2.409-0.698-4.099,1.347-6.153c2.048-2.042,3.787-3.675,6.088-1.178
				c2.283,2.51,2.567,6.269,0.409,8.258c-1.07,0.999-2.479,1.37-3.884,1.19c-0.702-0.091-1.404-0.318-2.063-0.677
				C143.406,874.375,142.749,873.896,142.183,873.29z"/>
			<path fill="#A3A2A3" d="M154.771,870.795c-1.089-0.064-1.967-0.868-1.963-1.805c0.003-0.937,0.883-1.666,1.969-1.619
				c1.084,0.047,1.966,0.866,1.966,1.819C156.743,870.145,155.859,870.858,154.771,870.795z"/>
			<path fill="#A3A2A3" d="M153.464,876.682c-1.008-0.759-1.359-2.062-0.792-2.936c0.568-0.874,1.843-0.987,2.852-0.229
				s1.368,2.102,0.799,2.975S154.472,877.439,153.464,876.682z"/>
			<path fill="#A3A2A3" d="M146.238,878.784c0.073-1.107-0.58-2.057-1.457-2.11s-1.647,0.794-1.724,1.885s0.574,2.024,1.453,2.095
				S146.165,879.891,146.238,878.784z"/>
			<path fill="#A3A2A3" d="M151.889,878.126c-0.569-1.155-1.748-1.691-2.634-1.212c-0.888,0.48-1.149,1.779-0.585,2.914
				c0.565,1.134,1.747,1.69,2.638,1.231S152.458,879.281,151.889,878.126z"/>
		</g>
		<g>
			<path fill="#A3A2A3" d="M126.416,890.324c0.65-1.433,1.423-1.983,2.478-2.079c1.025-0.089,2.294,0.289,3.593,0.776
				c2.63,0.961,4.718,1.941,3.469,4.882c-1.25,2.939-4.419,4.36-7.061,3.33C126.252,896.199,125.15,893.176,126.416,890.324z"/>
			<path fill="#A3A2A3" d="M133.894,900.059c-0.405-0.958-0.081-1.983,0.736-2.301c0.816-0.318,1.812,0.205,2.224,1.178
				c0.438,0.97,0,2.024-0.812,2.326C135.213,901.566,134.25,901.024,133.894,900.059z"/>
			<path fill="#A3A2A3" d="M128.282,901.061c0.245-1.131,1.167-1.918,2.168-1.768c1,0.15,1.646,1.209,1.37,2.363
				c-0.252,1.151-1.25,1.933-2.228,1.76C128.615,903.242,128.028,902.193,128.282,901.061z"/>
			<path fill="#A3A2A3" d="M123.287,895.919c1-0.389,1.541-1.314,1.211-2.058c-0.329-0.744-1.402-1.014-2.4-0.609
				c-0.997,0.405-1.54,1.316-1.213,2.044C121.213,896.024,122.289,896.308,123.287,895.919z"/>
			<path fill="#A3A2A3" d="M126.369,900.285c0.732-0.903,0.672-2.096-0.131-2.641c-0.803-0.547-2.047-0.239-2.779,0.661
				c-0.733,0.902-0.677,2.058,0.127,2.605C124.365,901.463,125.641,901.188,126.369,900.285z"/>
		</g>
	</g>
	<g>
		<g>
			<path fill="#A3A2A3" d="M147.249,908.887c-1.854-2.729-0.022-4.145,2.329-5.828c2.353-1.672,4.335-2.979,6.198-0.174
				c1.863,2.813,1.466,6.519-0.894,8.133c-1.214,0.868-2.67,1.011-4.022,0.583C149.512,911.171,148.169,910.264,147.249,908.887z"/>
			<path fill="#A3A2A3" d="M160.073,908.41c-1.063-0.231-1.799-1.151-1.643-2.063c0.155-0.913,1.142-1.484,2.205-1.268
				c1.063,0.216,1.798,1.149,1.644,2.076C162.124,908.082,161.137,908.641,160.073,908.41z"/>
			<path fill="#A3A2A3" d="M157.861,914.285c-0.864-1.015-0.993-2.473-0.289-3.317c0.658-0.75,1.971-0.731,2.849,0.263
				c0.87,1.016,1,2.571,0.29,3.412C160.001,915.485,158.726,915.298,157.861,914.285z"/>
			<path fill="#A3A2A3" d="M150.382,915.12c0.262-1.133-0.222-2.236-1.076-2.441c-0.854-0.206-1.758,0.53-2.02,1.622
				c-0.261,1.093,0.22,2.158,1.073,2.404S150.12,916.252,150.382,915.12z"/>
			<path fill="#A3A2A3" d="M156.063,915.526c-0.363-1.35-1.436-2.137-2.39-1.793c-0.955,0.344-1.435,1.648-1.074,2.946
				c0.362,1.297,1.427,2.136,2.385,1.843C155.939,918.23,156.427,916.874,156.063,915.526z"/>
		</g>
		<g>
			<path fill="#A3A2A3" d="M128.596,922.115c1.768-2.204,3.799-1.307,6.19,0.182c1.193,0.737,2.271,1.466,2.789,2.32
				c0.476,0.848,0.414,1.834-0.576,3.024c-0.99,1.189-2.337,1.873-3.717,2.036c-1.421,0.159-2.796-0.182-3.938-0.994
				c-1.141-0.814-1.789-1.928-1.905-3.087c-0.058-0.581,0.017-1.176,0.231-1.762C127.893,923.251,128.141,922.663,128.596,922.115z"
				/>
			<path fill="#A3A2A3" d="M133.192,932.617c-0.075-0.974,0.578-1.782,1.459-1.828c0.882-0.048,1.651,0.717,1.716,1.73
				s-0.593,1.859-1.464,1.866C134.031,934.393,133.267,933.59,133.192,932.617z"/>
			<path fill="#A3A2A3" d="M127.573,931.752c0.542-0.88,1.712-1.275,2.603-0.851c0.891,0.423,1.158,1.548,0.607,2.479
				c-0.542,0.933-1.717,1.273-2.592,0.801C127.326,933.707,127.029,932.632,127.573,931.752z"/>
			<path fill="#A3A2A3" d="M124.271,926.074c1.06-0.06,1.815-0.696,1.687-1.396c-0.128-0.702-1.097-1.169-2.164-1.067
				c-1.068,0.101-1.824,0.697-1.688,1.357C122.242,925.626,123.211,926.134,124.271,926.074z"/>
			<path fill="#A3A2A3" d="M125.981,930.521c0.974-0.528,1.334-1.55,0.706-2.229c-0.64-0.684-1.908-0.755-2.841-0.226
				c-0.988,0.525-1.298,1.452-0.706,2.133C123.732,930.878,124.998,931.05,125.981,930.521z"/>
		</g>
	</g>
	<g>
		<g>
			<path fill="#A3A2A3" d="M142.693,945.469c-0.242-1.629,0.055-2.639,0.891-3.316c0.815-0.683,2.077-1.063,3.487-1.476
				c2.817-0.811,5.183-1.505,5.859,2.026c0.329,1.766,0.062,3.602-0.691,5.034c-0.8,1.408-2.019,2.447-3.453,2.767
				C145.918,951.138,143.248,948.736,142.693,945.469z"/>
			<path fill="#A3A2A3" d="M154.701,949.967c-0.89-0.658-1.111-1.828-0.633-2.724c0.499-0.883,1.638-1.11,2.541-0.486
				c0.893,0.617,1.236,1.907,0.681,2.795C156.732,950.438,155.575,950.614,154.701,949.967z"/>
			<path fill="#A3A2A3" d="M150.338,954.654c-0.383-1.223-0.023-2.642,0.936-3.125c0.947-0.493,2.088,0.099,2.528,1.369
				c0.441,1.271,0.02,2.743-0.981,3.185C151.84,956.545,150.736,955.886,150.338,954.654z"/>
			<path fill="#A3A2A3" d="M143.127,952.472c0.711-0.9,0.649-2.114-0.067-2.644c-0.723-0.534-1.786-0.195-2.452,0.695
				c-0.68,0.884-0.665,2.034,0.023,2.586C141.32,953.661,142.436,953.384,143.127,952.472z"/>
			<path fill="#A3A2A3" d="M148.196,955.048c0.195-1.335-0.48-2.456-1.492-2.525c-1.014-0.07-1.974,0.907-2.154,2.206
				c-0.18,1.298,0.475,2.454,1.475,2.56C147.023,957.396,148.002,956.383,148.196,955.048z"/>
		</g>
		<g>
			<path fill="#A3A2A3" d="M120.223,950.783c2.563-1.548,4.064,0.123,5.71,2.415c1.648,2.276,2.858,4.313,0.106,5.948
				c-2.727,1.642-6.109,0.91-7.662-1.451C116.799,955.329,117.734,952.315,120.223,950.783z"/>
			<path fill="#A3A2A3" d="M120.711,962.868c0.253-1.003,1.146-1.627,1.999-1.402s1.336,1.223,1.073,2.238
				c-0.262,1.016-1.161,1.652-2.006,1.414C120.934,964.88,120.457,963.869,120.711,962.868z"/>
			<path fill="#A3A2A3" d="M115.59,960.391c0.842-0.778,2.103-0.849,2.808-0.148c0.706,0.701,0.583,1.923-0.269,2.717
				c-0.852,0.796-2.104,0.85-2.799,0.132S114.746,961.169,115.59,960.391z"/>
			<path fill="#A3A2A3" d="M114.572,953.396c1.035,0.273,2.006-0.144,2.164-0.92c0.166-0.778-0.577-1.604-1.613-1.861
				c-1.038-0.256-2.006,0.145-2.152,0.902C112.823,952.276,113.537,953.122,114.572,953.396z"/>
			<path fill="#A3A2A3" d="M114.496,958.645c1.135-0.288,1.85-1.276,1.49-2.173c-0.34-0.9-1.527-1.381-2.637-1.101
				c-1.121,0.283-1.801,1.238-1.482,2.143C112.18,958.418,113.354,958.934,114.496,958.645z"/>
		</g>
	</g>
	<g>
		<g>
			<path fill="#A3A2A3" d="M126.441,977.859c0.096-3.254,2.397-3.355,5.283-3.323c2.877,0.031,5.233,0.157,5.127,3.487
				c-0.054,1.663-0.695,3.189-1.679,4.262c-0.983,1.054-2.31,1.685-3.743,1.643C128.561,983.844,126.34,981.106,126.441,977.859z"/>
			<path fill="#A3A2A3" d="M137.169,984.888c-0.735-0.796-0.807-1.909-0.154-2.555c0.651-0.637,1.781-0.518,2.521,0.274
				c0.739,0.784,0.801,1.974,0.147,2.592S137.905,985.677,137.169,984.888z"/>
			<path fill="#A3A2A3" d="M132.329,987.989c-0.254-1.185,0.352-2.356,1.333-2.563c0.984-0.214,1.983,0.592,2.227,1.805
				c0.242,1.217-0.362,2.378-1.336,2.563C133.576,989.991,132.58,989.184,132.329,987.989z"/>
			<path fill="#A3A2A3" d="M125.654,984.531c0.785-0.722,0.938-1.845,0.336-2.491c-0.601-0.646-1.726-0.566-2.512,0.16
				c-0.785,0.726-0.936,1.836-0.335,2.479S124.867,985.257,125.654,984.531z"/>
			<path fill="#A3A2A3" d="M130.235,987.904c0.331-1.171-0.182-2.343-1.143-2.617c-0.962-0.276-2.011,0.448-2.341,1.618
				c-0.33,1.171,0.183,2.342,1.145,2.618C128.857,989.799,129.905,989.074,130.235,987.904z"/>
		</g>
		<g>
			<path fill="#A3A2A3" d="M103.081,979.905c2.893-1.563,4.099,0.438,5.447,2.964c1.347,2.53,2.321,4.613-0.534,6.2
				c-2.86,1.579-6.332,0.884-7.705-1.641C98.916,984.924,100.188,981.432,103.081,979.905z"/>
			<path fill="#A3A2A3" d="M102.389,992.925c0.291-1.065,1.22-1.747,2.068-1.515c0.85,0.23,1.303,1.277,1.02,2.329
				c-0.285,1.053-1.205,1.723-2.061,1.504C102.56,995.024,102.098,993.99,102.389,992.925z"/>
			<path fill="#A3A2A3" d="M97.248,990.48c0.916-0.901,2.207-1.024,2.891-0.287c0.685,0.737,0.511,2.043-0.394,2.927
				c-0.905,0.885-2.205,1.024-2.899,0.304C96.152,992.704,96.334,991.381,97.248,990.48z"/>
			<path fill="#A3A2A3" d="M96.842,982.731c1.043,0.289,2.1-0.182,2.361-1.055c0.263-0.879-0.363-1.821-1.4-2.124
				c-1.038-0.301-2.099,0.181-2.365,1.062C95.169,981.496,95.799,982.442,96.842,982.731z"/>
			<path fill="#A3A2A3" d="M96.226,988.615c1.203-0.38,1.954-1.514,1.707-2.481c-0.251-0.982-1.427-1.5-2.633-1.143
				c-1.204,0.367-1.977,1.523-1.721,2.521C93.835,988.515,95.025,989,96.226,988.615z"/>
		</g>
	</g>
</g>
</svg>
