<?xml version="1.0" encoding="utf-8"?>
<!-- Generator: Adobe Illustrator 16.0.0, SVG Export Plug-In . SVG Version: 6.00 Build 0)  -->
<!DOCTYPE svg PUBLIC "-//W3C//DTD SVG 1.1//EN" "http://www.w3.org/Graphics/SVG/1.1/DTD/svg11.dtd">
<svg version="1.1" id="Layer_1" xmlns="http://www.w3.org/2000/svg" xmlns:xlink="http://www.w3.org/1999/xlink" x="0px" y="0px"
	 width="250px" height="250px" viewBox="0 0 250 250" enable-background="new 0 0 250 250" xml:space="preserve">
<g>
	<g opacity="0.08">
		<ellipse cx="122.839" cy="221.542" rx="87.372" ry="17.167"/>
		<ellipse cx="161.005" cy="203.817" rx="42.333" ry="9.46"/>
	</g>
	<g>
		<g>
			<path fill="#91D0DD" d="M121.344,135.984c-0.934-0.559-13.395-10.797-12.789-15.232c0.604-4.434,7.863,1.18,12.904-2.82
				c5.043-4.002,5.457-21.172-5.051-24.093c-10.504-2.921-10.854,12.579-16.043,10.674c-3.258-1.194-63.457,9.554-63.457,9.554
				c-4.777,2.76-7,10.75-3.25,17.346l26.479,45.857C69.495,174.317,114.26,142.979,121.344,135.984z"/>
			<path fill="#80BBCE" d="M162,117.399c0.781,5.806,6.797,2.339,9.418,9.235c2.621,6.896-5.387,15.67-14.605,14.729
				c-9.221-0.939-3.949,34.412-5.061,43.496c-0.217,1.747-0.512,4.645,2.529,5.621l58.193-33.598
				c4.777-2.76,8.061-10.941,3.656-18.483l-25.727-39.724c-1.639,0.417-3.371,0.877-5.191,1.384
				C171.137,103.979,160.408,105.566,162,117.399z"/>
			<path fill="#E6C373" d="M98.045,222.949l56.236-32.469c-0.809-1.477-1.266-2.496-1.836-3.777
				c-6.686-15.006-92.16-31.076-92.309-14.27c-0.018,1.768,0,2.867,0,4.836l24.26,42.023
				C87.156,224.07,93.266,225.707,98.045,222.949z"/>
			<path fill="#CD96A3" d="M113.822,42.207c3.541,4.246,9.254-6.604,16.893,1.18c7.639,7.781,1.033,20.045-5.334,20.989
				c-6.367,0.943-9.732-10.099-12.473-6.56c-2.74,3.537-1.208,13.652,1.859,19.421c0.453,0.851,0.957,1.765,1.486,2.716
				c2.238-0.586,4.564-1.102,7.006-1.52c13.678-2.344,21.932,2.342,20.752,9.229c-0.258,1.512-1.984,0.422-2.867,2.648
				c-1.105,2.787-1.041,9.02,3.137,12.034c7.514,5.425,22.004,0.972,20.123-10.506c-1.191-7.28-7.422-3.173-3.648-7.653
				c3.775-4.48,14.623-7.055,28.771-3.41c1.83,0.471,3.563,0.939,5.189,1.396l-0.002-50.021c0-5.517-4.473-9.99-9.988-9.989
				l-69.563-2.652C112.535,31.816,111.6,39.545,113.822,42.207z"/>
		</g>
		<path fill="#A9DDE4" d="M82.575,164.137c3.733-2.971-1.544-1.264-7.04-5.592c-5.492-4.327,2.605-11.998,9.322-14.515
			s13.105,0.059,12.977,4.081c-0.129,4.023-2.414,12.799,5.189,4.271c6.17-6.918,11.236-14.24,18.32-21.234
			c-0.934-0.559-1.826-1.099-2.645-1.609c-5.541-3.462-10.75-9.188-10.145-13.623c0.604-4.434,7.863,1.18,12.904-2.821
			c5.043-4.001,4.631-17.924-5.875-20.845c-10.508-2.921-10.029,9.332-15.219,7.426c-3.258-1.194-6.021-9.533-8.623-18.17
			L37.316,112.93c-4.777,2.76-6.414,8.868-3.658,13.646l26.479,45.857C69.495,169.48,80.502,165.789,82.575,164.137z"/>
		<path fill="#F0D986" d="M98.045,218.112l54.4-31.409c-0.611-2.609-0.91-4.934-0.693-6.68c1.111-9.084-0.82-17.771-4.783-20.385
			c-3.961-2.616-5.49,1.808-7.811,7.232c-2.32,5.423-8.833,5.916-14.283-1.557c-5.451-7.475,0.463-15.789,7.109-14.181
			c6.648,1.608,5.568-4.032,3.371-8.755c-1.871-4.026-8.627-8-14.012-11.23c-7.084,6.994-12.15,14.316-18.32,21.234
			c-7.604,8.527-5.318-0.248-5.189-4.271c0.129-4.022-6.26-6.598-12.977-4.081s-14.814,10.188-9.322,14.515
			c5.496,4.328,10.773,2.621,7.04,5.592c-2.073,1.652-13.08,5.344-22.438,8.297l24.26,42.022
			C87.156,219.234,93.266,220.871,98.045,218.112z"/>
		<path fill="#91D0DD" d="M162,112.563c-1.027,5.768,6.797,2.34,9.418,9.235s-5.387,15.67-14.605,14.729
			c-9.221-0.94-6.379-9.344-7.574-12.582c-2.422-6.553-11.914-6.483-22.588,2.385c-1.904,1.582-3.66,3.191-5.307,4.818
			c5.385,3.23,12.141,7.204,14.012,11.23c2.197,4.723,3.277,10.363-3.371,8.755c-6.646-1.608-12.561,6.706-7.109,14.181
			c5.45,7.473,11.963,6.979,14.283,1.557c2.32-5.425,3.85-9.849,7.811-7.232c3.963,2.613,5.895,11.301,4.783,20.385
			c-0.217,1.746,0.082,4.07,0.693,6.68l60.029-34.657c4.777-2.759,6.414-8.868,3.656-13.646l-25.727-44.561
			c-1.639,0.417-3.371,0.878-5.191,1.384C171.137,99.142,163.029,106.795,162,112.563z"/>
		<path fill="#D7B2B9" d="M113.822,38.373c3.541,4.246,9.254-6.604,16.893,1.18c7.639,7.781,1.033,20.045-5.334,20.99
			c-6.367,0.943-9.848-7.549-12.586-4.01c-2.742,3.537-1.095,11.102,1.973,16.871c0.453,0.85,0.957,1.764,1.486,2.715
			c2.238-0.586,4.564-1.102,7.006-1.52c13.678-2.344,21.932,2.342,20.752,9.229c-0.582,3.402-7.244,9.26,0.27,14.684
			s18.834,1.828,20.014-5.453c1.178-7.281-7.313-8.227-3.539-12.707c3.775-4.48,14.623-7.055,28.771-3.41
			c1.83,0.471,3.563,0.939,5.189,1.396l-0.002-50.02c0-5.518-4.473-9.99-9.988-9.99h-69.287
			C113.373,27.107,111.6,35.711,113.822,38.373z"/>
	</g>
</g>
</svg>
