<?xml version="1.0" encoding="utf-8"?>
<!-- Generator: Adobe Illustrator 16.0.0, SVG Export Plug-In . SVG Version: 6.00 Build 0)  -->
<!DOCTYPE svg PUBLIC "-//W3C//DTD SVG 1.1//EN" "http://www.w3.org/Graphics/SVG/1.1/DTD/svg11.dtd">
<svg version="1.1" id="Layer_1" xmlns="http://www.w3.org/2000/svg" xmlns:xlink="http://www.w3.org/1999/xlink" x="0px" y="0px"
	 width="250px" height="250px" viewBox="0 0 250 250" enable-background="new 0 0 250 250" xml:space="preserve">
<g>
	<g opacity="0.08">
		<ellipse cx="125" cy="205.691" rx="93.301" ry="16.175"/>
		<ellipse cx="67.524" cy="222.346" rx="24.273" ry="8.959"/>
		<ellipse cx="182.475" cy="222.346" rx="24.274" ry="8.959"/>
	</g>
	<g>
		<path fill="#F0D986" d="M155.967,118.546c3.719-1.12,15.265-0.155,23.528-15.583c8.266-15.427,18.08-27.611,27.5-24.659
			c9.421,2.952,12.954,11.725,10.599,19.899c-2.355,8.174-12.977,42.718-55.162,36.829
			C120.245,129.145,155.967,118.546,155.967,118.546z"/>
		<path fill="#F7E9AD" d="M200.715,85.305c-7.402,2.709-10.206,9.926-5.104,16.48c5.104,6.556,14.916,0.66,16.879-6.01
			C214.451,89.105,208.958,82.288,200.715,85.305z"/>
		<path fill="#E4CC80" d="M206.834,87.275c6.055,4.494,3.781,12.125,3.781,12.125l0.002-0.003c0.849-1.127,1.5-2.36,1.873-3.622
			c1.961-6.67-3.532-13.487-11.775-10.471c-1.059,0.387-2.014,0.876-2.872,1.433C199.807,85.566,203.466,84.775,206.834,87.275z"/>
		<path fill="#F0D986" d="M94.979,115.309c-22.549-1.865-23.8-15.211-36.362-30.961c-12.56-15.75-29.046,0.83-26.691,11.185
			c2.355,10.355,12.169,43.101,59.273,36.935C138.303,126.3,94.979,115.309,94.979,115.309z"/>
		<path fill="#E6C373" d="M91.199,132.467c37.459-4.904,17.729-12.859,8.08-15.911c-10.682,6.237-23.422,11.362-35.779,10.636
			c-5.457-0.32-10.283-1.545-14.537-3.318C57.801,130.645,71.105,135.098,91.199,132.467z"/>
		<path fill="#E6C373" d="M162.432,135.032c16.411,2.291,28.044-1.538,36.271-7.553c-3.113,0.776-6.318,1.368-9.604,1.712
			c-13.158,1.375-25.828-3.33-36.363-9.55C145.001,122.499,128.467,130.292,162.432,135.032z"/>
		<path fill="#F7E9AD" d="M44.235,84.268c-6.395,4.871-6.028,19.266,3.392,19.658c9.422,0.393,13.347-11.05,7.852-16.711
			C49.982,81.552,46.306,82.689,44.235,84.268z"/>
		<path fill="#F7E9AD" d="M40.339,97.592c-0.054-0.248-0.342-1.646-0.419-3.521C39.906,95.279,40.047,96.473,40.339,97.592z"/>
		<path fill="#F7E9AD" d="M57.597,90.878c0.015,0.052,0.025,0.095,0.032,0.12C57.617,90.958,57.608,90.918,57.597,90.878z"/>
		<path fill="#E4CC80" d="M57.629,90.998L57.629,90.998L57.629,90.998z"/>
		<path fill="#E4CC80" d="M40.348,97.633v-0.01c-0.004-0.011-0.006-0.021-0.009-0.031C40.344,97.617,40.348,97.633,40.348,97.633z"
			/>
		<path fill="#E4CC80" d="M46.834,86.441c6.834-3.166,10.803,4.59,10.803,4.59s-0.003-0.012-0.008-0.032v-0.001
			c-0.007-0.025-0.018-0.068-0.032-0.12c-0.396-1.347-1.092-2.606-2.118-3.663c-5.496-5.663-9.173-4.525-11.243-2.947
			c-2.776,2.115-4.275,6.023-4.315,9.803c0.077,1.875,0.365,3.273,0.419,3.521c0.003,0.01,0.005,0.021,0.009,0.031
			C40.34,97.517,40.04,89.59,46.834,86.441z"/>
		<g>
			<path fill="#F0D986" d="M160.568,152.774c7.311-5.103,17.877-9.421,27.475-4.141c13.27,7.302,10.988,24.221,5.61,33.094
				c0,0,13.783-7.813,19.75,1.409c6.987,10.805-2.865,25.621-25.516,37.152c-22.648,11.531-23.121-1.58-24.853-14.926
				c-1.852-14.277-25.468-9.88-25.468-9.88L160.568,152.774z"/>
			<path fill="#F0D986" d="M83.399,153.166c-3.85-3.533-12.173-11.775-26.46-1.963c-14.287,9.814-3.376,27.085,0,31.01
				c0,0-13.895-9.813-20.96,3.533s10.638,30.225,27.888,36.506c17.252,6.28,21.963-2.355,23.141-7.066
				c1.178-4.709-6.626-9.598,1.717-15.779c8.343-6.18,24.533-1.547,27.434-5.105C119.06,190.739,83.399,153.166,83.399,153.166z"/>
			<path fill="#F7E9AD" d="M42.445,188.887c-2.947,3.368-0.165,10.483,12.168,19.626c12.558,9.31,19.014,9.028,22.068,6.673
				c3.054-2.354-3.206-9.084-14.218-17.663C51.451,188.943,45.192,185.746,42.445,188.887z"/>
			<path fill="#F7E9AD" d="M187.682,196.345c-7.083,6.792-15.947,14.708-11.698,19.052c4.247,4.346,11.921-1.536,21.671-8.912
				c7.297-5.522,13.187-14.07,10.832-17.99C206.131,184.572,194.791,189.528,187.682,196.345z"/>
		</g>
		<path fill="#F0D986" d="M98.314,33.76c0,0-8.504-10.076-20.803-6.936c-12.3,3.141-6.02,4.973-6.02,4.973s-4.973,2.879-2.879,8.375
			c0,0-4.448,3.139-3.139,6.803c1.309,3.664,3.139,2.094,3.139,2.094s0.262,10.205,9.684,14.654
			C87.718,68.171,98.314,33.76,98.314,33.76z"/>
		<path fill="#F0D986" d="M149.737,31.012c0,0,11.775-8.373,18.057-6.541c6.28,1.83,7.064,4.709,7.064,4.709s0.785-2.617,3.664-1.57
			c2.878,1.047,3.402,8.375,3.402,8.375s1.308-0.263,1.57,1.308c0.261,1.571-1.047,4.973-1.047,4.973s1.901,0.261,1.081,4.972
			s-7.886,17.241-12.857,16.864C165.699,63.723,147.905,36.246,149.737,31.012z"/>
		<path fill="#F7E9AD" d="M156.671,37.488c0.487-1.043,4.688-6.477,9.999-5.691c5.311,0.785,8.449,4.121,9.236,9.027
			c0.784,4.907-4.515,19.627-11.188,17.272C158.046,55.74,153.728,43.77,156.671,37.488z"/>
		<path fill="#E4CC80" d="M155,39.566c0,0,6.125-11.125,14.75-8.75s9.875,16.664,0,28.457c0,0,8.875-14.395,2.375-23.957
			C168.224,29.576,159.48,32.941,155,39.566z"/>
		<path fill="#F7E9AD" d="M94.652,40.433c-2.006-3.573-10.819-10.991-15.42-6.673c-4.6,4.317-7.151,15.309-2.637,21
			c4.514,5.691,11.773,6.28,16.094-1.373C97.007,45.731,94.652,40.433,94.652,40.433z"/>
		<g>
			<path fill="#F0D986" d="M97.683,103.087c-3.532,4.86-24.306,27.104-19.671,56.675s25.213,39.645,49.373,39.645
				c24.161,0,38.368-10.597,43.341-32.578c4.972-21.982,1.146-47.129-19.527-65.828C130.525,82.303,97.683,103.087,97.683,103.087z"
				/>
			<path fill="#E6C373" d="M77.396,154.289c0,0,2.547,36.507,46.902,38.076c44.355,1.57,48.291-38.076,48.291-38.076
				s3.564,48.226-47.055,48.226C74.92,202.515,77.396,154.289,77.396,154.289z"/>
		</g>
		<path fill="#E6C373" d="M95.293,103.087c0,6.038,11.359,20.815,28.724,20.854c16.642,0.037,28.337-8.535,31.714-22.941
			C159.165,86.354,95.293,103.087,95.293,103.087z"/>
		<path fill="#E4CC80" d="M95.293,40.775c0,0-9.224-8.434-13.52-6.668c-4.296,1.767-9.061,13.002-6.417,18.585
			c0,0-5.746-5.021,0.913-16.778C82.929,24.158,94.376,39.441,95.293,40.775z"/>
		<g>
			<path fill="#F0D986" d="M78.95,77.289c-1.25-12.237,1.233-25.009,8.926-34.988c7.692-9.98,15.28-14.043,26.532-16.198
				c0,0,1.57-8.698,6.282-7.39c4.71,1.307,0,7.39,0,7.39s3.925-5.819,8.635-5.558s0,3.662,0,3.662s11.515-1.045,23.028,8.113
				c11.514,9.159,22.766,21.458,17.795,45.271c-4.972,23.814-20.543,35.852-47.365,35.852C94.259,113.443,80.26,90.113,78.95,77.289
				z"/>
			<g>
				<ellipse fill="#9B6D44" cx="104.693" cy="66.475" rx="6.379" ry="5.201"/>
				<ellipse fill="#7F4220" cx="104.692" cy="66.475" rx="3.769" ry="3.072"/>
				
					<ellipse transform="matrix(0.9716 -0.2364 0.2364 0.9716 -12.353 26.1695)" fill="#FFFFFF" cx="102.938" cy="64.591" rx="2.639" ry="1.884"/>
			</g>
			<g>
				<ellipse fill="#9B6D44" cx="143.946" cy="66.475" rx="6.379" ry="5.201"/>
				<ellipse fill="#7F4220" cx="143.946" cy="66.475" rx="3.769" ry="3.072"/>
				
					<ellipse transform="matrix(0.9716 -0.2365 0.2365 0.9716 -11.2426 35.4638)" fill="#FFFFFF" cx="142.19" cy="64.591" rx="2.638" ry="1.884"/>
			</g>
			<g>
				<path fill="#F7E9AD" d="M124.23,71.424c-10.723,0.605-17.482,2.582-20.587,12.38c-3.104,9.798,1.905,15.489,10.294,19.808
					c8.388,4.318,19.736,2.158,26.721-3.729s7.377-17.075,0.803-22.374C134.886,72.209,130.949,71.045,124.23,71.424z"/>
				<path fill="#9B6D44" d="M123.699,75.35c-4.905-0.127-7.721,1.111-3.939,5.712c4.326,5.263,8.648,0.764,9.631-1.396
					C130.31,77.645,131.354,75.545,123.699,75.35z"/>
				<path fill="#9B6D44" d="M109.176,88.051c-1.592,1.408,2.088,5.582,6.771,5.582c4.317,0,8.283-2.835,8.283-2.835
					s3.271,2.817,8.887,2.817c4.45,0,9.55-4.416,7.177-5.564c-1.511-0.73-1.804,3.064-6.71,3.807
					c-4.907,0.742-5.682-3.883-9.354-3.943s-3.355,4.095-8.313,3.943C110.959,91.707,110.904,86.522,109.176,88.051z"/>
				<g>
					<path fill="#7F4220" d="M120.751,77.941c-0.894-0.626-1.884-0.15-2.607,0.424c0.22,0.733,0.731,1.619,1.616,2.696
						c0.586,0.713,1.172,1.241,1.75,1.626C121.721,81.092,121.83,78.697,120.751,77.941z"/>
					<path fill="#7F4220" d="M129.391,79.666c0.176-0.386,0.354-0.775,0.477-1.153c-0.734-0.634-1.816-1.251-2.786-0.571
						c-1.126,0.788-0.958,3.362-0.731,4.95C127.836,82.074,128.95,80.636,129.391,79.666z"/>
				</g>
				<path fill="#E4CC80" d="M113.938,103.611c8.388,4.318,19.736,2.158,26.721-3.729c4.459-3.761,6.219-9.678,5.205-14.847
					c0.152,1.402,1.293,16.656-21.428,16.656c-22.973,0-21.446-14.882-21.31-15.935C101.25,94.371,106.123,99.589,113.938,103.611z"
					/>
			</g>
		</g>
		<path fill="#E4CC80" d="M195.465,88.707c-0.318,0.361-0.485,0.607-0.485,0.607S195.151,89.082,195.465,88.707z"/>
		<path fill="#FF7E70" d="M145.098,137.416c-12.219-6.669-19.834,4.128-19.834,4.128s-7.616-10.797-19.835-4.128
			c-6.37,3.477-6.903,16.832,0,25.881c6.337,8.305,19.835,12.496,19.835,12.496s13.497-4.191,19.834-12.496
			C152.002,154.248,151.469,140.893,145.098,137.416z"/>
		<path fill="#E4CC80" d="M43.408,190.84c3.277-3.944,12.352,1.771,13.042,2.217c-7.343-5.125-11.805-6.686-14.005-4.17
			c-2.947,3.368-0.165,10.483,12.168,19.626c0.639,0.474,1.25,0.905,1.856,1.329C55.899,209.324,40.062,194.867,43.408,190.84z"/>
		<path fill="#E4CC80" d="M208.486,188.494c-2.204-3.67-12.276,0.436-19.387,6.564c0.014-0.01,13.9-9.716,17.649-5.543
			c3.75,4.175-14.798,21.225-14.804,21.23c1.809-1.309,3.713-2.753,5.709-4.262C204.951,200.962,210.841,192.414,208.486,188.494z"
			/>
		<g>
			<defs>
				<path id="SVGID_1_" d="M145.098,137.416c-12.219-6.669-19.834,4.128-19.834,4.128s-7.616-10.797-19.835-4.128
					c-6.37,3.477-6.903,16.832,0,25.881c6.337,8.305,19.835,12.496,19.835,12.496s13.497-4.191,19.834-12.496
					C152.002,154.248,151.469,140.893,145.098,137.416z"/>
			</defs>
			<clipPath id="SVGID_2_">
				<use xlink:href="#SVGID_1_"  overflow="visible"/>
			</clipPath>
			<g clip-path="url(#SVGID_2_)">
				<path fill="#BF5B51" d="M94.663,102.832v102.386h61.201V102.832H94.663z M125.264,167.753
					c-15.328,0-27.752-11.637-27.752-25.989c0-14.354,12.424-25.99,27.752-25.99s27.752,11.637,27.752,25.99
					C153.016,156.116,140.592,167.753,125.264,167.753z"/>
			</g>
		</g>
	</g>
</g>
</svg>
