<?xml version="1.0" encoding="utf-8"?>
<!-- Generator: Adobe Illustrator 16.0.0, SVG Export Plug-In . SVG Version: 6.00 Build 0)  -->
<!DOCTYPE svg PUBLIC "-//W3C//DTD SVG 1.1//EN" "http://www.w3.org/Graphics/SVG/1.1/DTD/svg11.dtd">
<svg version="1.1" id="Layer_1" xmlns="http://www.w3.org/2000/svg" xmlns:xlink="http://www.w3.org/1999/xlink" x="0px" y="0px"
	 width="24px" height="24px" viewBox="0 0 24 24" enable-background="new 0 0 24 24" xml:space="preserve">
<g>
	<path d="M11.673,0c-6.628,0-12,5.372-12,12c0,6.629,5.372,12,12,12c6.627,0,12-5.371,12-12
		C23.673,5.372,18.3,0,11.673,0z M15.827,6.657l-1.506,0c-1.182,0-1.41,0.561-1.41,1.384v1.815h2.817l-0.366,2.846h-2.451V20H9.973
		v-7.298H7.518V9.856h2.455V7.759C9.973,5.323,11.461,4,13.632,4c1.041,0,1.936,0.077,2.195,0.112V6.657z"/>
</g>
</svg>
