<?xml version="1.0" encoding="utf-8"?>
<!-- Generator: Adobe Illustrator 16.0.0, SVG Export Plug-In . SVG Version: 6.00 Build 0)  -->
<!DOCTYPE svg PUBLIC "-//W3C//DTD SVG 1.1//EN" "http://www.w3.org/Graphics/SVG/1.1/DTD/svg11.dtd">
<svg version="1.1" id="Layer_1" xmlns="http://www.w3.org/2000/svg" xmlns:xlink="http://www.w3.org/1999/xlink" x="0px" y="0px"
	 width="250px" height="250px" viewBox="0 0 250 250" enable-background="new 0 0 250 250" xml:space="preserve">
<g>
	<g opacity="0.08">
		<ellipse cx="84.684" cy="221.042" rx="60.609" ry="17.167"/>
		<ellipse cx="171.684" cy="221.042" rx="60.609" ry="17.167"/>
	</g>
	<g>
		<g>
			<path fill="#E6C373" d="M139.353,128.502c-6.497-3.389-10.031-3.427-14.448,1.629c-4.418,5.057-1.466,7.357,0.604,7.51
				c2.068,0.153,3.063-5.697,7.277-6.424c4.219-0.729,5.274,6.189,2.945,9.201c-2.328,3.012-5.855-1.336-8.973,2.436
				c-3.117,3.773-1.85,8.508,5.99,10.611c7.839,2.102,15.814-0.748,16.376-12.633C149.686,128.948,144.901,131.394,139.353,128.502z
				"/>
			<path fill="#BF5B51" d="M195.521,105.853c5.003,8.862-4.708,17.661-23.77,28.423c-4.604,2.599-16.264,9.093-19.283,10.797
				c-3.948,2.229-4.769,0.85-9.939-8.311c-4.769-8.445-6.196-10.607-3.365-12.207c3.474-1.959,15.654-8.612,21.642-11.992
				C180.713,101.323,190.517,96.988,195.521,105.853z"/>
		</g>
		<path fill="#5E5B5B" d="M157.189,155.32c1.104,7.406,1.458,43-1.147,44.994c-2.606,1.994-5.926,4.84-7.706,9.398
			c-1.781,4.558-5.329,13.672,7.706,13.672c13.034,0,31.056,0,38.534,0c7.48,0,8.5,0.854,8.5-21.932c0-22.784,5.441-36.456,0-53.545
			C197.639,130.818,154.426,136.748,157.189,155.32z"/>
		<path fill="#7F7D7D" d="M166.613,155.4c1.103,7.406,4.277,43.92,1.67,45.914c-2.605,1.994-5.924,4.84-7.707,9.398
			c-1.778,4.558-5.328,13.672,7.707,13.672c13.037,0,29.017,0,36.496,0s10.541,0.854,10.541-21.932c0-22.784,0-35.631,0-53.545
			C215.32,131.07,163.85,136.828,166.613,155.4z"/>
		<g>
			<rect x="171.209" y="75.003" fill="#E6C373" width="28.301" height="28.78"/>
			<circle fill="#F0D986" cx="185.359" cy="55.832" r="30.701"/>
			<circle fill="#9B6D44" cx="171.208" cy="49.453" r="3.837"/>
			<path fill="#9B6D44" d="M185.359,19.84c-10.074,0-27.744,6.806-27.744,22.843c0,0,30.623-3.655,30.623-8.933
				c0,0,1.624,21.941,10.498,21.941c0,0,2.639-5.403,7.436-5.403s7.039,6.843,2.723,12.599c-4.319,5.756-9.158,3.357-9.158,3.357
				s-1.3,5.128-1.1,8.759c0.13,2.361,0.799,4.954,2.648,7.079c0,0,18.132-8.016,18.132-29.751
				C219.417,39.027,210.782,19.84,185.359,19.84z"/>
			<path fill="#9B6D44" d="M172.311,67.295c0.512-0.607,0.432-1.515-0.174-2.027c-0.607-0.512-1.518-0.433-2.028,0.175
				c-3.344,3.97-11.479,3.861-11.556,3.861c-0.247-0.007-0.482,0.06-0.693,0.173c0.461,0.927,0.966,1.824,1.514,2.693
				C161.822,72.088,168.783,71.484,172.311,67.295z"/>
			<path fill="#E6C373" d="M178.917,81.191c-4.941,0-9.675-0.888-14.053-2.508c5.436,4.878,12.617,7.849,20.495,7.849
				c16.597,0,30.108-13.172,30.673-29.63C209.779,71.197,195.519,81.191,178.917,81.191z"/>
			<path fill="#7F4220" d="M198.736,76.008c0.252,2.074,0.957,4.246,2.549,6.074c0,0,18.132-8.016,18.132-29.751
				c0-1.741-0.152-3.585-0.467-5.473C217.035,59.393,209.367,70.027,198.736,76.008z"/>
		</g>
		<path fill="#FF7E70" d="M186.475,88.434c13.883,0,27.518,5.604,28.884,36.456c0.822,18.594,0.701,23.864,0.701,29.74
			c0,4.535-14.019,5.349-28.411,5.349c-17.968,0-31.67-0.396-31.67-5.829c0-4.634-0.239-10.378,1.367-25.024
			C160.531,100.061,165.992,88.434,186.475,88.434z"/>
		<path fill="#BF5B51" d="M187.434,100.301c-6.053,0.916-7.723,13.08-15.822,59.381c4.658,0.252,10.113,0.297,16.037,0.297
			c6.647,0,13.211-0.175,18.354-0.809C205.65,151.791,202.481,98.022,187.434,100.301z"/>
		<path fill="#A3A2A3" d="M100.572,155.32c-1.104,7.406-1.458,43,1.148,44.994c2.604,1.994,5.925,4.84,7.705,9.398
			c1.781,4.558,5.329,13.672-7.705,13.672c-13.035,0-31.057,0-38.536,0s-8.5,0.854-8.5-21.932c0-22.784-5.442-36.456,0-53.545
			C60.123,130.818,103.336,136.748,100.572,155.32z"/>
		<path fill="#B3B2B3" d="M91.149,154.4c-1.104,7.406-4.28,43.92-1.672,45.914c2.607,1.994,5.925,4.84,7.706,9.398
			c1.78,4.558,5.33,13.672-7.706,13.672s-29.015,0-36.495,0c-7.479,0-10.541,0.854-10.541-21.932c0-22.784,0-35.631,0-53.545
			C42.441,130.07,93.913,135.828,91.149,154.4z"/>
		<g>
			<rect x="58.252" y="75.003" fill="#E6C373" width="28.301" height="28.78"/>
			<circle fill="#F0D986" cx="72.401" cy="55.832" r="30.7"/>
			<circle fill="#9B6D44" cx="86.553" cy="49.453" r="3.837"/>
			<path fill="#9B6D44" d="M85.451,67.295c-0.512-0.607-0.433-1.515,0.176-2.027c0.605-0.512,1.515-0.433,2.026,0.175
				c3.345,3.97,11.479,3.861,11.556,3.861c0.248-0.007,0.482,0.06,0.694,0.173c-0.462,0.927-0.966,1.824-1.514,2.693
				C95.939,72.088,88.979,71.484,85.451,67.295z"/>
			<path fill="#E6C373" d="M42.685,63.561c3.427,13.213,15.433,22.972,29.718,22.972c8.892,0,16.896-3.784,22.502-9.824
				c-5.559,2.783-11.828,4.358-18.467,4.358C62.49,81.066,50.165,74.146,42.685,63.561z"/>
			<path fill="#9B6D44" d="M70.723,42.385h36.355c0,0-3.711-24.943-35.333-24.943c-31.62,0-53.248,28.174-33.74,57.562h32.718
				V42.385z"/>
			<path fill="#7F4220" d="M36.25,36.296c0-0.671,0.021-1.337,0.059-1.998c-7.487,10.804-8.335,25.594,1.696,40.705h32.718v-2.585
				C51.43,70.928,36.25,55.33,36.25,36.296z"/>
		</g>
		<path fill="#91D0DD" d="M71.285,88.434c-13.881,0-27.516,5.604-28.882,36.456c-0.822,18.594-0.702,23.864-0.702,29.74
			c0,4.535,14.021,5.349,28.412,5.349c17.969,0,31.67-0.396,31.67-5.829c0-4.634,0.24-10.378-1.365-25.024
			C97.231,100.061,91.77,88.434,71.285,88.434z"/>
		<path fill="#80BBCE" d="M99.982,125.414l-37.477-14.531c0,0-1.005,5.87,13.828,20.09c9.221,8.839,19.213,14.887,25.455,18.199
			c-0.039-4.182-0.273-10.032-1.371-20.047C100.278,127.851,100.132,126.622,99.982,125.414z"/>
		<g>
			<path fill="#F0D986" d="M119.969,128.502c6.498-3.389,10.033-3.427,14.449,1.629c4.417,5.057,1.466,7.357-0.604,7.51
				c-2.071,0.153-3.063-5.697-7.278-6.424c-4.218-0.729-5.273,6.189-2.944,9.201c2.328,3.012,5.855-1.336,8.974,2.436
				c3.116,3.773,1.846,8.508-5.99,10.611c-7.84,2.102-15.814-0.748-16.376-12.633C109.638,128.948,114.419,131.394,119.969,128.502z
				"/>
			<path fill="#A9DDE4" d="M63.801,105.853c-5.004,8.862,4.707,17.661,23.769,28.423c4.604,2.599,16.265,9.093,19.285,10.797
				c3.947,2.229,4.767,0.85,9.938-8.311c4.768-8.445,6.195-10.607,3.365-12.207c-3.474-1.959-15.654-8.612-21.642-11.992
				C78.609,101.323,68.806,96.988,63.801,105.853z"/>
		</g>
		<path fill="#80BBCE" d="M41.708,147.477c-0.022,2.799-0.007,4.934-0.007,7.153c0,4.535,14.021,5.349,28.412,5.349
			c17.969,0,31.67-0.396,31.67-5.829c0-1.865,0.037-3.923-0.021-6.657c-2.759,6.235-18.581,8.636-30.017,8.636
			C60.301,156.128,44.833,153.025,41.708,147.477z"/>
		<path fill="#BF5B51" d="M156,147.492c-0.059,2.734-0.021,4.792-0.021,6.657c0,5.434,13.702,5.829,31.67,5.829
			c14.393,0,28.411-0.813,28.411-5.349c0-2.22,0.016-4.354-0.006-7.153c-2.721,5.049-18.593,8.651-30.038,8.651
			C174.581,156.128,158.759,152.691,156,147.492z"/>
		<g>
			<path fill="#F0D986" d="M179.543,160.347c-6.146,3.993-7.917,7.051-5.686,13.384c2.23,6.332,5.686,4.893,6.837,3.166
				c1.15-1.727-3.454-5.469-2.016-9.498s7.981-1.547,9.46,1.961c1.477,3.508-4.043,4.442-2.289,9.012
				c1.752,4.568,6.5,5.791,12.184,0c5.686-5.792,7.123-14.139-2.949-20.471C185.012,151.57,184.789,156.936,179.543,160.347z"/>
			<path fill="#FF9085" d="M187.434,100.301c10.18,0,13.064,12.781,13.064,34.672c0,5.287-0.078,18.633-0.078,22.1
				c0,4.533-1.603,4.57-12.123,4.57c-9.698,0-12.284,0.179-12.284-3.072c0-3.988,0.197-17.865,0.197-24.741
				C176.21,110.968,177.254,100.301,187.434,100.301z"/>
		</g>
	</g>
	<path fill="#7F4220" d="M36.25,36.296c0-0.671,0.021-1.337,0.059-1.998c-7.487,10.804-8.335,25.594,1.696,40.705h32.718v-2.585
		C51.43,70.928,36.25,55.33,36.25,36.296z"/>
</g>
</svg>
