<?xml version="1.0" encoding="utf-8"?>
<!-- Generator: Adobe Illustrator 16.0.0, SVG Export Plug-In . SVG Version: 6.00 Build 0)  -->
<!DOCTYPE svg PUBLIC "-//W3C//DTD SVG 1.1//EN" "http://www.w3.org/Graphics/SVG/1.1/DTD/svg11.dtd">
<svg version="1.1" id="Layer_1" xmlns="http://www.w3.org/2000/svg" xmlns:xlink="http://www.w3.org/1999/xlink" x="0px" y="0px"
	 width="140px" height="70px" viewBox="0 0 140 70" enable-background="new 0 0 140 70" xml:space="preserve">
<g>
	<path fill="#0095D8" d="M22.009,41.618c-1.045-1.916-3.34-2.909-5.427-2.675c-1.494,0.168-3.004,2.088-2.007,4.743
		c1.486,3.96,4.891,4.414,6.122,3.63C22.986,45.865,22.76,42.996,22.009,41.618"/>
	<path fill="#0095D8" d="M34.232,38.943c-2.088-0.234-4.383,0.759-5.427,2.675c-0.752,1.378-0.979,4.247,1.311,5.698
		c1.232,0.784,4.637,0.33,6.123-3.63C37.235,41.032,35.726,39.113,34.232,38.943"/>
	<path fill="#0095D8" d="M30.862,33.976c0.86-1.146,1.37-2.569,1.37-4.109c0-0.71-0.108-1.394-0.309-2.038l0.012,0.011
		c1.244-1.249,1.243-3.271-0.007-4.517c-1.247-1.244-3.264-1.242-4.512,0c-0.643-0.199-1.326-0.304-2.035-0.304
		c-0.697,0-1.37,0.102-2.004,0.296l0.019-0.019c-1.249-1.245-3.271-1.243-4.518,0.006c-1.235,1.237-1.241,3.235-0.024,4.483
		c-0.209,0.656-0.322,1.357-0.322,2.081c0,1.542,0.51,2.966,1.37,4.11c-1.253,1.071-2.346,2.496-3.212,4.184
		c0,0,4.154-0.363,5.967,2.953c1.87,3.414-0.25,5.88-0.688,6.441l3.299,0.005l0.099-0.005h3.435
		c-0.438-0.564-2.557-3.029-0.688-6.445c1.814-3.314,5.968-2.951,5.968-2.951C33.215,36.471,32.119,35.045,30.862,33.976
		 M31.073,24.205c0.538,0.535,0.561,1.391,0.069,1.955c-0.523-0.809-1.21-1.502-2.015-2.028
		C29.69,23.648,30.54,23.672,31.073,24.205 M19.763,24.157c0.533-0.537,1.385-0.557,1.949-0.075
		c-0.813,0.52-1.511,1.201-2.041,2.002C19.206,25.521,19.235,24.686,19.763,24.157 M22.637,29.128
		c-0.409,0.126-0.616,0.641-0.743,0.227c-0.125-0.41,0.105-0.844,0.515-0.97c0.411-0.125,0.847,0.105,0.972,0.516
		S23.048,29.002,22.637,29.128 M25.415,35.23c-1.244,0-2.255-1.008-2.255-2.252c0-1.242,1.011-2.251,2.255-2.251
		c1.242,0,2.251,1.009,2.251,2.251C27.666,34.223,26.657,35.23,25.415,35.23 M28.919,29.389c-0.127,0.409-0.333-0.104-0.743-0.229
		s-0.868,0.182-0.743-0.226c0.126-0.413,0.56-0.643,0.971-0.518C28.813,28.542,29.044,28.978,28.919,29.389"/>
	<path fill="#0095D8" d="M26.773,32.525c-0.002-0.674-0.613-1.215-1.365-1.213c-0.75,0.002-1.355,0.551-1.353,1.223
		c0.002,0.635,0.545,1.152,1.236,1.207v0.586c-0.475-0.047-0.707-0.332-0.707-0.332c-0.082,0-0.148,0.066-0.148,0.148
		c0,0.084,0.372,0.49,0.979,0.49c0.604,0,0.978-0.406,0.978-0.49c0-0.082-0.067-0.148-0.15-0.148c0,0-0.241,0.287-0.707,0.332
		v-0.586C26.231,33.686,26.776,33.162,26.773,32.525"/>
	<path fill="#0095D8" d="M42.449,28.42h1.932l2.504,6.939l0.946,2.644h0.079l0.907-2.644l2.484-6.939h1.932v12.934h-1.557v-7.117
		c0-0.579,0.022-1.217,0.068-1.912c0.047-0.697,0.096-1.334,0.148-1.914h-0.08l-1.044,2.878l-2.484,6.767h-0.927l-2.504-6.767
		l-1.026-2.878H43.75c0.04,0.58,0.085,1.217,0.138,1.914c0.053,0.695,0.079,1.333,0.079,1.912v7.117h-1.518V28.42z"/>
	<path fill="#0095D8" d="M63.395,37.41h-4.713l-1.241,3.945h-1.677l4.377-12.936h1.854l4.377,12.936h-1.755L63.395,37.41z
		 M62.98,36.09l-0.613-1.972c-0.234-0.724-0.459-1.444-0.668-2.159c-0.211-0.717-0.421-1.449-0.632-2.199h-0.078
		c-0.197,0.75-0.4,1.482-0.611,2.199c-0.211,0.715-0.434,1.436-0.671,2.159l-0.61,1.972H62.98z"/>
	<polygon fill="#0095D8" points="68.901,28.42 70.538,28.42 70.538,39.953 76.197,39.953 76.197,41.354 68.901,41.354 	"/>
	<path fill="#0095D8" d="M78.492,28.42h1.637v7.631c0,0.775,0.079,1.426,0.236,1.952c0.157,0.524,0.371,0.946,0.641,1.261
		s0.589,0.546,0.957,0.681c0.367,0.138,0.762,0.208,1.183,0.208c0.433,0,0.834-0.07,1.203-0.208c0.367-0.135,0.69-0.366,0.966-0.681
		c0.276-0.314,0.492-0.736,0.651-1.261c0.157-0.526,0.235-1.177,0.235-1.952V28.42h1.578v7.589c0,1.04-0.119,1.915-0.354,2.624
		c-0.237,0.711-0.563,1.285-0.977,1.725c-0.415,0.441-0.904,0.756-1.469,0.947c-0.565,0.189-1.177,0.287-1.834,0.287
		c-0.658,0-1.271-0.098-1.844-0.287c-0.571-0.191-1.064-0.506-1.479-0.947c-0.415-0.439-0.74-1.014-0.977-1.725
		c-0.236-0.709-0.354-1.584-0.354-2.624V28.42z"/>
	<path fill="#0095D8" d="M91.003,34.887c0-1.036,0.145-1.973,0.434-2.801s0.69-1.531,1.203-2.109c0.512-0.578,1.12-1.021,1.824-1.33
		c0.702-0.309,1.468-0.462,2.297-0.462c0.788,0,1.479,0.159,2.07,0.481c0.591,0.322,1.077,0.693,1.459,1.113l-0.927,1.045
		c-0.343-0.367-0.72-0.66-1.134-0.876c-0.414-0.218-0.896-0.327-1.449-0.327c-0.62,0-1.177,0.123-1.676,0.365
		c-0.5,0.244-0.928,0.592-1.282,1.045s-0.631,1.003-0.83,1.646c-0.194,0.646-0.294,1.367-0.294,2.173
		c0,0.812,0.096,1.545,0.286,2.194c0.19,0.65,0.456,1.207,0.799,1.668c0.341,0.459,0.759,0.814,1.252,1.063
		c0.492,0.25,1.049,0.376,1.665,0.376c0.633,0,1.181-0.126,1.647-0.376c0.466-0.249,0.91-0.604,1.331-1.063l0.927,1.005
		c-0.513,0.592-1.092,1.052-1.736,1.383c-0.644,0.326-1.379,0.491-2.209,0.491c-0.813,0-1.565-0.152-2.256-0.455
		c-0.69-0.301-1.288-0.738-1.794-1.311s-0.901-1.275-1.184-2.109C91.144,36.881,91.003,35.939,91.003,34.887"/>
	<polygon fill="#0095D8" points="103.403,28.42 105.04,28.42 105.04,33.843 111.054,33.843 111.054,28.42 112.71,28.42 
		112.71,41.354 111.054,41.354 111.054,35.262 105.04,35.262 105.04,41.354 103.403,41.354 	"/>
	<polygon fill="#0095D8" points="119.219,35.458 115.63,35.458 115.63,34.236 119.219,34.236 119.219,30.393 120.501,30.393 
		120.501,34.236 124.089,34.236 124.089,35.458 120.501,35.458 120.501,39.303 119.219,39.303 	"/>
</g>
</svg>
