<?xml version="1.0" encoding="utf-8"?>
<!-- Generator: Adobe Illustrator 16.0.0, SVG Export Plug-In . SVG Version: 6.00 Build 0)  -->
<!DOCTYPE svg PUBLIC "-//W3C//DTD SVG 1.1//EN" "http://www.w3.org/Graphics/SVG/1.1/DTD/svg11.dtd">
<svg version="1.1" id="Layer_1" xmlns="http://www.w3.org/2000/svg" xmlns:xlink="http://www.w3.org/1999/xlink" x="0px" y="0px"
	 width="212.432px" height="223.115px" viewBox="0 0 212.432 223.115" enable-background="new 0 0 212.432 223.115"
	 xml:space="preserve">
<g>
	<path opacity="0.08" d="M152.594,201.432c0.031-0.145,0.05-0.289,0.05-0.434c0-5.303-21.177-9.602-47.301-9.602
		s-47.301,4.299-47.301,9.602c0,3.479,9.119,6.525,22.771,8.211c-1.26,0.908-1.936,1.863-1.936,2.848
		c0,6.107,25.824,11.059,57.679,11.059c31.855,0,57.679-4.951,57.679-11.059C194.234,207.016,176.646,202.764,152.594,201.432z"/>
	<g>
		<path fill="#7F7D7D" d="M123.358,195.521c-3.113-4.363-8.719-17.629,0.749-23.037c2.176,1.943,3.615,7.57,6.385,8.889
			c5.156,2.459,6.619-4.58,13.97-3.01c-3.707,2.174-1.152,25.514-1.152,25.514c-12.123-2.344-25.558-2.834-25.558-2.834
			C117.744,196.678,123.358,195.521,123.358,195.521z"/>
		<path fill="#7F7D7D" d="M131.657,208.15c8.068-0.041,11.521-1.133,11.652-4.273c0.123-3.145-6.312-3.807-14.359-4.135
			c-8.056-0.324-11.066-1.84-11.198,1.301C117.62,204.186,122.897,208.193,131.657,208.15z"/>
	</g>
	<g>
		<polygon fill="#F6EDD1" points="0,20.229 65.247,5.875 121.944,9.928 181.485,0 185.064,70.074 202.917,128.82 146.063,141.072 
			81.013,134.258 22.319,149.473 18.157,80.35 		"/>
		<polygon fill="#90CFDC" points="7.186,44.021 70.928,53.373 101.458,70.756 135.49,86.15 191.597,91.154 193.173,96.758 
			136.614,91.992 89.406,71.027 71.692,58.758 8.838,49.492 		"/>
		<polygon fill="#E5C273" points="76.161,17.008 79.768,46.117 107.062,62.553 131.526,65.535 147.869,63.588 141.332,17.658 
			123.656,21.48 		"/>
		<polygon display="none" fill="#A8DCE3" points="20.464,118.666 77.272,104.01 140.479,112.07 195.377,104.01 196.687,108.318 
			141.472,117.223 77.946,109.453 20.758,123.541 		"/>
		<polygon fill="#E5C273" points="13.337,17.295 29.864,77.521 34.435,146.332 40.326,144.805 35.573,76.141 18.455,16.168 		"/>
		<polygon fill="#E5C273" points="37.376,129.229 79.09,118.701 143.263,126.531 199.059,116.125 200.262,119.986 144.064,130.693 
			79.688,123.541 37.376,134.262 		"/>
		<polygon opacity="0.02" points="18.157,80.35 72.717,67.164 133.293,74.736 185.024,69.287 202.917,128.82 146.063,141.072 
			81.013,134.258 22.319,149.473 		"/>
		<polygon opacity="0.02" points="81.013,134.258 72.717,67.164 65.247,5.875 121.944,9.928 133.293,74.736 146.063,141.072 		"/>
	</g>
	<path fill="#7F7D7D" d="M121.313,151.23c10.934,0.531,8.011-1.729,13.875-4.596c0.033-0.018,9.901,2.051,9.901-5.912
		c-1.45-0.145-3.344-1.367-3.793-2.873c-0.809-2.705,0.164-3.541-1.537-4.18c-1.025-0.393-3.977,4.156-3.977,4.156
		s-3.12,1.766-12.576-3.117C112.847,129.359,108.216,150.594,121.313,151.23z"/>
	<g>
		<path fill="#A2A1A2" d="M130.741,133.693c0,0-1.895,6.689,5.992,13.586c11.953,10.398,10.152,23.492,8.285,29.768
			c-4.197,14.104-39.755,30.902-53.256-4.691c-12.924-34.074,23.541-58.414,23.541-58.414L130.741,133.693z"/>
		<path fill="#D6C3C8" d="M112.379,116.125l5.349,6.928c0,0-3.551,3.281-14.293,18.645c-18.896,27.027,0.623,47.723,0.623,47.723
			c-4.808-3.303-9.137-8.75-12.295-17.064C81.115,144.27,103.999,122.807,112.379,116.125z"/>
		<path fill="#D0ABB2" d="M113.228,117.223c0,0,1.451,2.744-4.369,13.189s-14.002,15.041-15.89,30.096
			c-1.888,15.057,8.101,24.887,8.101,24.887s-9.188-18.957-2.095-31.105c4.229-7.246,8.564-13.875,11.99-18.707
			c7.013-9.889,6.763-15.609,6.175-17.164L113.228,117.223z"/>
	</g>
	<g display="none">
		<path display="inline" fill="#A2A1A2" d="M142.276,198.6c2.211-4.508,7.846-25.883,1.574-30.709
			c-1.52,2.055-6.736,13.67-8.641,15.135c-3.546,2.736-4.365-4.166-9.374-2.188c-1.907,13.541,0.163,25.252,0.163,25.252
			c8.254-3.018,19.707-0.713,19.707-0.713C145.816,201.045,142.276,198.6,142.276,198.6z"/>
		<path display="inline" fill="#A2A1A2" d="M136.683,210.908c-5.46,0.781-10.671-1.709-10.684-4.818
			c-0.007-3.111,4.36-4.137,9.81-4.922c5.455-0.781,9.885,1.1,9.897,4.209C145.72,208.488,142.135,210.119,136.683,210.908z"/>
	</g>
	<g display="none">
		<defs>
			<path id="SVGID_13_" d="M107.649,126.852c0,0-22.613,20.697-17.309,43.953c5.824,25.498,39.159,25.547,48.824,9.883
				c13.313-21.607-18.043-56.66-18.043-56.66L107.649,126.852z"/>
		</defs>
		<clipPath id="SVGID_2_" display="inline">
			<use xlink:href="#SVGID_13_"  overflow="visible"/>
		</clipPath>
		<g display="inline" clip-path="url(#SVGID_2_)">
			<rect x="89.534" y="124.027" fill="#A2A1A2" width="52.924" height="67.381"/>
		</g>
		<g display="inline" clip-path="url(#SVGID_2_)">
			<path fill="#D6C3C8" d="M98.987,163.072c-2.42,8.021-7.24,11.783-12.492,12.102c-3.812,0.236-6.06-3.496-7.897-7.24
				c-4.614-9.406,2.088-27.916,12.881-38.775C104.72,115.832,102.007,153.098,98.987,163.072z"/>
			<path fill="#D0ABB2" d="M96.493,167.348c3.021-9.975,5.73-47.234-7.509-33.914c-2.374,2.389-4.548,5.146-6.451,8.096
				c2.391-4.545,6.621-11.281,10.112-14.795c13.24-13.324,9.361,26.363,6.342,36.338c-0.916,3.035-2.128,5.365-3.512,7.092
				C95.845,169.303,96.187,168.365,96.493,167.348z"/>
		</g>
	</g>
	<g>
		<g>
			<g>
				<path fill="#222221" d="M51.013,101.512c0.294,0.252,3.158-4.094,8.788-6.494c5.572-2.451,10.706-2.299,10.685-2.658
					c0.098-0.332-5.262-1.096-11.198,1.5c-2.937,1.281-5.201,3.197-6.54,4.781C51.407,100.244,50.886,101.432,51.013,101.512z"/>
			</g>
			<g>
				<path fill="#222221" d="M51.44,92.285c0.131,0.316,4.121-1.188,9.299-1.027c5.166,0.072,9.271,1.242,9.371,0.908
					c0.146-0.32-3.94-2.09-9.354-2.174C55.3,89.826,51.236,91.98,51.44,92.285z"/>
			</g>
		</g>
		<g>
			<path fill="#D0ABB2" d="M118.9,25.869c0.053,8.486,6.959,15.316,15.446,15.273c8.483-0.047,15.323-6.965,15.271-15.449
				c-0.04-8.482-6.964-15.32-15.449-15.271C125.688,10.469,118.854,17.385,118.9,25.869z"/>
			<path fill="#D6C3C8" d="M118.272,27.518c0.043,8.293,6.808,14.979,15.108,14.93c8.292-0.049,14.978-6.811,14.932-15.104
				c-0.05-8.301-6.813-14.982-15.108-14.93C124.909,12.457,118.224,19.221,118.272,27.518z"/>
			<path fill="#A2A1A2" d="M109.255,26.609c0.08,13.432,11.028,24.256,24.462,24.182c13.44-0.078,24.271-11.025,24.193-24.463
				c-0.084-13.432-11.026-24.266-24.462-24.184C120.011,2.221,109.183,13.172,109.255,26.609z"/>
		</g>
		<path fill="#B2B1B2" d="M50.851,73.107l4.271-4.738c0,0,2.017,0.283,5.619,1.439c3.967,1.275,9.367,4.496,13.58,4.717
			c0.521-4.35,1.589-8.709,3.267-12.984c10.631-27.223,41.327-40.678,68.555-30.039c27.223,10.633,40.676,41.332,30.041,68.555
			c-10.635,27.225-40.313,41.246-68.111,32.213C72.97,120.875,50.851,73.107,50.851,73.107z"/>
		<g>
			<path fill="#A2A1A2" d="M104.778,130.928c27.799,9.037,57.479-4.988,68.11-32.213c10.322-26.418-2.046-56.109-27.669-67.561
				c0.307,0.113,0.613,0.227,0.922,0.348c27.223,10.633,40.676,41.332,30.041,68.555c-10.635,27.225-40.313,41.246-68.111,32.213
				c-2.139-0.695-4.236-1.5-6.291-2.395C102.77,130.248,103.771,130.602,104.778,130.928z"/>
		</g>
		<g>
			<path fill="#494646" d="M45.997,66.24c-2.577,4.135-0.578,10.031,4.467,13.168c5.036,3.139,11.209,2.326,13.781-1.801
				c2.579-4.143,0.574-10.037-4.459-13.17C54.747,61.297,48.578,62.096,45.997,66.24z"/>
			<path fill="#222221" d="M61.408,79.361c2.582-4.145,0.574-10.039-4.461-13.172c-3.228-2.012-6.915-2.404-9.832-1.336
				c2.979-2.895,8.258-3.164,12.671-0.416c5.033,3.133,7.038,9.027,4.459,13.17c-0.922,1.482-2.314,2.535-3.949,3.131
				C60.716,80.33,61.091,79.873,61.408,79.361z"/>
		</g>
		<g>
			<g>
				<path fill="#222221" d="M92.603,70.691c-1.113,2.537-0.756,5.146,0.796,5.824c1.551,0.678,3.712-0.826,4.819-3.363
					c1.118-2.539,0.762-5.146-0.792-5.824C95.878,66.646,93.714,68.15,92.603,70.691z"/>
			</g>
		</g>
		<g>
			<g>
				<path fill="#222221" d="M118.109,125.717c0.212-0.049-0.146-1.844-1.626-4.445c-1.459-2.596-4.053-5.908-7.41-9.121
					c-6.72-6.445-13.429-10.313-13.672-9.965c-0.292,0.355,5.861,4.734,12.422,11.029c3.28,3.139,5.926,6.225,7.596,8.592
					C117.106,124.166,117.857,125.787,118.109,125.717z"/>
			</g>
			<g>
				<path fill="#222221" d="M133.054,110.527c0.266-0.275-7.125-5.516-17.919-8.693c-10.778-3.295-20.071-2.549-19.937-2.025
					c0.018,0.352,8.975,0.328,19.451,3.533C125.135,106.42,132.777,110.961,133.054,110.527z"/>
			</g>
		</g>
		<g>
			<path fill="#B2B1B2" d="M151.192,51.426c-6.367,16.305,1.681,34.697,17.986,41.064c16.313,6.375,34.702-1.689,41.07-17.998
				c6.373-16.309-1.685-34.695-17.994-41.061C175.947,27.061,157.563,35.117,151.192,51.426z"/>
			<path fill="#D0ABB2" d="M163.227,55.174c-4.024,10.295,1.062,21.904,11.365,25.924c10.292,4.027,21.901-1.063,25.926-11.363
				c4.019-10.289-1.069-21.898-11.364-25.918C178.853,39.791,167.245,44.879,163.227,55.174z"/>
			<path fill="#D6C3C8" d="M161.412,56.473c-3.937,10.078,1.041,21.422,11.106,25.354c10.064,3.934,21.416-1.035,25.354-11.111
				c3.932-10.068-1.046-21.412-11.114-25.348C176.694,41.438,165.344,46.404,161.412,56.473z"/>
		</g>
	</g>
	<g>
		<path fill="#A2A1A2" d="M101.961,197.941c-3.114-4.363-8.719-17.629,0.749-23.037c2.176,1.943,3.615,7.57,6.385,8.889
			c5.156,2.459,6.619-4.58,13.97-3.01c-3.707,2.174-1.152,25.514-1.152,25.514c-12.123-2.344-29.179,0.959-29.179,0.959
			C92.726,202.891,101.961,197.941,101.961,197.941z"/>
		<path fill="#A2A1A2" d="M105.906,212.072c8.063,0.322,15.875-2.635,16.006-5.775c0.122-3.145-6.312-3.807-14.36-4.135
			c-8.055-0.324-14.687,1.953-14.818,5.094C92.603,210.398,97.854,211.74,105.906,212.072z"/>
	</g>
	<path fill="#A2A1A2" d="M121.163,139.008c1.135,3.973-4.057,14.127-17.153,14.764c-10.934,0.533-19.309-6.574-25.173-9.441
		c-0.033-0.016-9.069,0.988-10.348-6.889c2.963-0.893,3.517-0.545,4.388-3.227c0.873-2.686-0.165-3.543,1.537-4.182
		c1.025-0.391,3.977,4.156,3.977,4.156s8.321,3.85,26.851,1.793C116.83,134.697,120.49,136.645,121.163,139.008z"/>
	<path fill="#7F7D7D" d="M143.636,168.117c6.707-0.418,14.475,1.018,21.293,7.225c14.301,13.02,30.35,0.785,26.854-9.18
		c0,0,3.381,6.979-2.077,12.715c-4.991,5.232-14.77,8.334-29.434-2.559c-5.647-4.193-13.467-3.842-19.554-2.32
		c-2.447,0.439-3.169-2.115-1.892-3.727C140.291,168.426,142.269,168.385,143.636,168.117z"/>
</g>
</svg>
