<?xml version="1.0" encoding="utf-8"?>
<!-- Generator: Adobe Illustrator 16.0.0, SVG Export Plug-In . SVG Version: 6.00 Build 0)  -->
<!DOCTYPE svg PUBLIC "-//W3C//DTD SVG 1.1//EN" "http://www.w3.org/Graphics/SVG/1.1/DTD/svg11.dtd">
<svg version="1.1" id="Layer_1" xmlns="http://www.w3.org/2000/svg" xmlns:xlink="http://www.w3.org/1999/xlink" x="0px" y="0px"
	 width="192.622px" height="206.717px" viewBox="0 0 192.622 206.717" enable-background="new 0 0 192.622 206.717"
	 xml:space="preserve">
<g>
	<path opacity="0.08" d="M111.299,149.172c1.579,0,3.122,0.033,4.617,0.094c7.568-2.354,20.282-3.898,34.693-3.898
		c23.203,0,42.013,4.006,42.013,8.943c0,4.939-18.81,8.943-42.013,8.943c-14.411,0-27.125-1.543-34.693-3.896
		c-1.495,0.061-3.038,0.094-4.617,0.094c-13.334,0-24.145-2.303-24.145-5.141S97.965,149.172,111.299,149.172z"/>
	<g>
		<g>
			<path fill="#A3A2A3" d="M91.816,128.426c-0.056-0.768,0.164-2.314,0.164-2.314l4.107-2.16c2.1-1.533,19.413-9.488,22.771-11.002
				c3.721,0.176-4.727,11.064-6.264,14.641c-5.12-0.809-11.889,0.479-11.889,0.479s-4.348,4.74-6.328,4.322
				c-1.974-0.42,0,0-1.137-1.176c-0.758-0.791,2.44-2.92,2.44-2.92S91.904,129.689,91.816,128.426z"/>
		</g>
		<g>
			<path fill="#A3A2A3" d="M102.159,138.77c2.292-2.969,7.716-8.404,11.804-4.613c-0.859,1.852,3.947,4.49,3.625,6.613
				c-0.602,3.953,2.256,8.521,3.708,11.449c-9.367-3.463-22.13,2.041-22.13,2.041c-0.889-8.594-5.115-19.781-5.115-19.781
				C99.091,132.717,102.159,138.77,102.159,138.77z"/>
			<path fill="#7F7D7D" d="M92.75,145.363c1.418,5.465,4.285,9.447,6.416,8.896c2.129-0.555,2.711-5.432,1.301-10.891
				c-1.417-5.459-4.285-9.439-6.416-8.891S91.342,139.902,92.75,145.363z"/>
		</g>
		<path fill="#A3A2A3" d="M122.945,107.586c0,0-16.578,18.268-11.062,35.391c6.053,18.77,32.051,15.383,38.282,2.977
			c8.578-17.109-17.285-41.379-17.285-41.379L122.945,107.586z"/>
		<path fill="#7F7D7D" d="M152.096,133.943c3.244-3.893,8.053-7.41,14.986-7.934c14.543-1.1,16.144-16.234,8.87-19.477
			c0,0,5.577,1.76,5.897,7.723c0.283,5.445-3.079,12.412-16.644,14.813c-5.223,0.926-9.079,5.395-11.396,9.52
			C153.357,137.027,152.773,135.473,152.096,133.943z"/>
		<g>
			<path fill="#D7C4C9" d="M143.777,134.455c2.381,13.318-12.394,19.881-20.875,17.154c-10.004-3.215-11.643-20.283-4.759-34.961
				C126.59,98.641,142.219,125.66,143.777,134.455z"/>
			<path fill="#D1ACB3" d="M143.074,139.041c-1.559-8.795-17.188-35.813-25.633-17.807c-1.515,3.229-2.615,6.572-3.307,9.857
				c0.449-4.697,1.782-9.695,4.009-14.443c8.446-18.008,24.075,9.012,25.634,17.807c0.478,2.672,0.264,5.072-0.449,7.178
				C143.315,140.801,143.234,139.938,143.074,139.041z"/>
		</g>
		<g>
			<path fill="#A3A2A3" d="M160.097,142.236c-0.78-3.967-3.089-11.871-10.957-9.48c-0.061,2.199,0.711,6.576,0,8.777
				c-1.321,4.102-2.296,6.65-5.106,8.773c2.811-2.123,11.494,8.307,11.494,8.307C160.521,150.754,169.98,142,169.98,142
				C165.969,137.877,160.097,142.236,160.097,142.236z"/>
			<path fill="#7F7D7D" d="M165.996,153.121c-3.997,4.588-8.678,7.047-10.469,5.492c-1.785-1.561,0.001-6.543,3.988-11.127
				c3.993-4.582,8.676-7.041,10.465-5.486C171.771,143.555,169.982,148.535,165.996,153.121z"/>
		</g>
		<g>
			<path fill="#A43F69" d="M167.912,158.15c-0.139-0.355-0.467-0.601-0.847-0.633l-111.658-9.551
				c-0.181-0.018-0.359,0.018-0.521,0.096L0.563,174.399c-0.379,0.184-0.603,0.585-0.558,1.004c0.044,0.419,0.346,0.766,0.755,0.866
				l122.963,30.287c0.079,0.02,0.159,0.029,0.239,0.029c0.277,0,0.546-0.115,0.738-0.325l43.018-47.072
				C167.976,158.907,168.051,158.504,167.912,158.15z"/>
			<path fill="#D8D8D8" d="M61.646,190.133c0,0-8.499-5.99-24.749-8.49C15.674,178.377,1,175.299,1,175.299l54.322-26.336
				c0,0,12.606-5.977,26.023-3.924c13.416,2.051,20.902,7.938,20.902,7.938L61.646,190.133z"/>
			<path fill="#D8D8D8" d="M1,175.299c0,0,2.137-2.572,1.043-3.518l18.322-1.695l-7.75,5.832L1,175.299z"/>
			<path fill="#C7C7C7" d="M166.98,158.514c0,0-1.199-1.678-1.115-3.012l-38.125,23.625l-4.25,22.5c0,0-0.234,1.182-0.063,2.125
				c0.162,0.891,0.535,1.834,0.535,1.834L166.98,158.514z"/>
			<path fill="#D8D8D8" d="M61.646,190.133c0,0,8.983-3.027,30.926,4.711c17.784,6.271,31.392,10.742,31.392,10.742l43.018-47.072
				c0,0-7.164-8.186-34.39-9.551c-22.325-1.121-30.343,4.014-30.343,4.014L61.646,190.133z"/>
			<path fill="#FFFFFF" d="M61.646,190.133c0,0-5.97-10.42-27.303-12.859c-21.333-2.438-32.3-5.492-32.3-5.492l53.322-26.336
				c0,0,12.563-2.459,25.98-0.406c13.416,2.051,20.902,7.938,20.902,7.938L61.646,190.133z"/>
			<path fill="#FFFFFF" d="M61.646,190.133c0,0,9.679-7.461,30.91,0c17.262,6.064,30.935,11.494,30.935,11.494l42.375-46.125
				c0,0-12.933-5.195-33.246-8.578c-22.049-3.674-30.371,6.053-30.371,6.053L61.646,190.133z"/>
			<g id="photos_back_3_">
				<path fill="#F0D986" d="M34.598,159.061l-19.543,11.035c4.063,0.637,10.241,1.586,19.457,2.963l17.989-11.787
					C45.882,160.166,39.192,159.465,34.598,159.061z"/>
				<path fill="#CD96A3" d="M56.594,162.014l-17.201,11.797c8.879,1.51,14.684,3.883,18.455,6.223l15.674-12.477
					c-1.998-1.135-4.664-2.313-8.24-3.42C62.662,163.324,59.687,162.621,56.594,162.014z"/>
				<path fill="#80BBCE" d="M72.764,147.994c-6.348-0.891-13.399-0.666-17.943-0.352l-13.164,7.467
					c4.482,0.27,11.061,1.008,17.234,2.02L72.764,147.994z"/>
				<path fill="#A43F69" d="M78.745,149.293c-0.828-0.264-1.7-0.49-2.597-0.689l-13.45,9.23c2.153,0.453,5.843,1.063,7.535,1.668
					c3.757,1.344,6.056,2.33,8.157,4.178l11.596-9.23C87.213,152.727,83.443,150.785,78.745,149.293z"/>
			</g>
			<path fill="#FFFFFF" d="M102.248,152.977l-40.603,37.156c0,0-7.217-36.873-36.666-48.764l51.735-29.201
				C76.715,112.168,104.674,126.842,102.248,152.977z"/>
			<g id="photos_front_3_">
				<path fill="#F0D986" d="M100.379,187.879c7.834,2.576,15.193,5.512,20.126,7.584l13.836-14.996
					c-4.856-1.846-12.081-4.5-20.139-7.158L100.379,187.879z"/>
				<g>
					<defs>
						<path id="SVGID_3_" d="M100.379,187.879c7.834,2.576,15.193,5.512,20.126,7.584l13.836-14.996
							c-4.856-1.846-12.081-4.5-20.139-7.158L100.379,187.879z"/>
					</defs>
					<clipPath id="SVGID_2_">
						<use xlink:href="#SVGID_3_"  overflow="visible"/>
					</clipPath>
					<path clip-path="url(#SVGID_2_)" fill="#E6C373" d="M122.82,173.309c0,0-3.02,3.695-2.592,8.027c0,0-2.736-0.5-5.238,2.166
						c-2.502,2.668,2.499,7.168,5.748,5c3.25-2.166,2.42-5.832,2.42-5.832s5.248-0.521,10.695-5.395S122.82,173.309,122.82,173.309z
						"/>
				</g>
				<path fill="#80BBCE" d="M140.461,173.832l13.371-14.492c-5.8-2.422-13.943-4.504-20.832-5.844l-13.055,13.76
					C129.084,170.049,135.991,172.318,140.461,173.832z"/>
				<g>
					<defs>
						<path id="SVGID_5_" d="M140.461,173.832l13.371-14.492c-5.8-2.422-13.943-4.504-20.832-5.844l-13.055,13.76
							C129.084,170.049,135.991,172.318,140.461,173.832z"/>
					</defs>
					<clipPath id="SVGID_4_">
						<use xlink:href="#SVGID_5_"  overflow="visible"/>
					</clipPath>
					<path clip-path="url(#SVGID_4_)" fill="#A9DDE4" d="M122.537,162.904c0,0,4.328-2.152,5.328,1.682
						c0.88,3.375,5.447,0.105,11-0.906s7.057,6.303,7.057,6.303l-6.189,5.578l-21.84-8.189L122.537,162.904z"/>
				</g>
				<path fill="#FF9085" d="M108.99,171.627c-8.312-2.615-15.054-2.477-19.991-1.51l-15.277,14.197
					c4.706-0.814,11.104-0.963,18.85,1.188c1.151,0.32,2.308,0.658,3.461,1.006L110,171.947
					C109.664,171.84,109.328,171.734,108.99,171.627z"/>
				<g>
					<defs>
						<path id="SVGID_7_" d="M108.99,171.627c-8.312-2.615-15.054-2.477-19.991-1.51l-15.277,14.197
							c4.706-0.814,11.104-0.963,18.85,1.188c1.151,0.32,2.308,0.658,3.461,1.006L110,171.947
							C109.664,171.84,109.328,171.734,108.99,171.627z"/>
					</defs>
					<clipPath id="SVGID_6_">
						<use xlink:href="#SVGID_7_"  overflow="visible"/>
					</clipPath>
					<path clip-path="url(#SVGID_6_)" fill="#A43F69" d="M84.957,173.002c0,0-5.154,6.084,0.954,7.543
						c6.108,1.457,14.898-6.684,14.898-6.684s-2.3,4.758,0.946,4.699c3.244-0.059,12.18-9.082,12.18-9.082l-6.588-2.107
						l-16.335-1.385L84.957,173.002z"/>
				</g>
				<path fill="#BF5B51" d="M115.718,165.986l13.095-13.65c-9.53-2.029-15.238-1.58-20.714,0.031l-13.177,12.246
					C100.037,163.553,106.935,163.445,115.718,165.986z"/>
				<path fill="#FF9085" d="M111.447,153.148c0,0-2.431,0.93-4.676,3.223c-2.244,2.295-2.997,5.723-0.916,6.041
					c3.896,0.596,4.949-2.896,4.949-2.896s1.481,3.523,5.043,1.402C119.177,158.936,116.441,153.813,111.447,153.148z"/>
				<path fill="#D1ACB3" d="M53.99,130.734l-18.258,10.643c4.314,2.898,10.568,7.971,16.06,15.752l18.441-12.588
					C65.726,137.256,58.918,133.012,53.99,130.734z"/>
				<path fill="#E6C373" d="M75.322,140.646c0.063,0.1,0.121,0.197,0.183,0.297l14.996-10.236
					c-4.589-6.477-10.059-10.721-13.888-13.158l-16.238,9.465C64.789,129.467,70.969,133.824,75.322,140.646z"/>
				<path fill="#F1E9E9" d="M71.893,147.479L54.018,160.5c4.179,6.764,6.902,13.746,8.554,18.895l15.832-13.307
					C77.432,161.16,75.541,154.422,71.893,147.479z"/>
				<g>
					<defs>
						<path id="SVGID_9_" d="M71.893,147.479L54.018,160.5c4.179,6.764,6.902,13.746,8.554,18.895l15.832-13.307
							C77.432,161.16,75.541,154.422,71.893,147.479z"/>
					</defs>
					<clipPath id="SVGID_8_">
						<use xlink:href="#SVGID_9_"  overflow="visible"/>
					</clipPath>
					<path clip-path="url(#SVGID_8_)" fill="#D7C4C9" d="M74.17,150.98c0,0-2.383-0.063-2.908,2.846c0,0-2.461-1.633-3.82,0.441
						s0.301,5.141,2.823,4.328c2.522-0.811,1.802-3.74,1.802-3.74s3.688,0.08,5.172-0.795C81.509,151.541,74.17,150.98,74.17,150.98
						z"/>
					<path clip-path="url(#SVGID_8_)" fill="#D7C4C9" d="M78.848,162.281c0,0-4.49,3.869-7.287,2.92c0,0,0.232,2.941-2.24,3.125
						s-4.349-2.756-2.415-4.568c1.933-1.813,4.146,0.24,4.146,0.24s4.253-6.488,5.738-7.361
						C81.064,154.125,78.848,162.281,78.848,162.281z"/>
				</g>
				<path fill="#A9DDE4" d="M83.203,162.055l12.881-10.826c0.125-5.254-0.596-12.234-4.164-18.34l-14.805,10.785
					C80.966,150.664,82.568,157.23,83.203,162.055z"/>
				<path fill="#F0D986" d="M88.006,144.393c-1.214-2.061-2.928-2.223-4.334-0.971c-1.742,1.549-1.513,4.377,0.536,5.717
					C86.777,150.818,89.618,147.127,88.006,144.393z"/>
				<path fill="#494646" d="M70.514,126.604c-0.923-0.184-1.42,0.277-1.42,1.018c0,0.918,0.889,1.59,1.818,1.34
					C72.079,128.646,71.738,126.846,70.514,126.604z"/>
				<path fill="#494646" d="M76.146,132.701c-0.723-0.602-1.379-0.436-1.734,0.213c-0.441,0.805,0.018,1.822,0.953,2.047
					C76.54,135.244,77.104,133.502,76.146,132.701z"/>
				<g>
					<defs>
						<path id="SVGID_11_" d="M53.99,130.734l-18.258,10.643c4.314,2.898,10.568,7.971,16.06,15.752l18.441-12.588
							C65.726,137.256,58.918,133.012,53.99,130.734z"/>
					</defs>
					<clipPath id="SVGID_10_">
						<use xlink:href="#SVGID_11_"  overflow="visible"/>
					</clipPath>
					<path clip-path="url(#SVGID_10_)" fill="#A43F69" d="M36.615,139.252c0,0,7.545,9.115,20.643,8.977s16.264-4.494,16.264-4.494
						L54.74,127.842L36.615,139.252z"/>
				</g>
				<path fill="#BF5B51" d="M73.722,123.502c0,0,2.644-1.285,6.769,2.107s2.014,6.703,2.014,6.703S78.328,129.127,73.722,123.502z"
					/>
			</g>
			<path opacity="0.08" d="M61.646,190.133l40.603-37.156c0.41-4.422-0.063-8.508-1.11-12.258c-1.168,1.121-2.427,2.207-3.799,3.236
				c-14.333,10.76-49.875,8.282-56.55,7.709C57.144,167.191,61.646,190.133,61.646,190.133z"/>
		</g>
		<g>
			<path fill="#A3A2A3" d="M116.863,35.833c6.656,11.4,21.297,15.254,32.695,8.596c11.406-6.66,15.248-21.305,8.59-32.705
				c-6.656-11.402-21.297-15.248-32.698-8.588C114.05,9.794,110.204,24.433,116.863,35.833z"/>
			<path fill="#D1ACB3" d="M124.712,30.474c4.202,7.199,13.446,9.631,20.646,5.422c7.199-4.201,9.626-13.445,5.421-20.646
				c-4.201-7.193-13.445-9.621-20.643-5.418C122.936,14.037,120.508,23.281,124.712,30.474z"/>
			<path fill="#D7C4C9" d="M124.63,32.158c4.115,7.043,13.151,9.414,20.188,5.305c7.039-4.109,9.415-13.145,5.303-20.189
				c-4.108-7.041-13.147-9.408-20.188-5.299C122.897,16.083,120.52,25.119,124.63,32.158z"/>
			<path fill="#A3A2A3" d="M60.354,66.181c9.632,7.537,23.544,5.84,31.083-3.789c7.543-9.633,5.852-23.551-3.781-31.09
				c-9.635-7.533-23.551-5.848-31.086,3.787C49.029,44.722,50.725,58.638,60.354,66.181z"/>
			<path fill="#D1ACB3" d="M65.277,58.88c6.088,4.76,14.866,3.691,19.631-2.391c4.762-6.08,3.692-14.873-2.393-19.631
				c-6.076-4.764-14.87-3.689-19.629,2.395C58.125,45.333,59.198,54.119,65.277,58.88z"/>
			<path fill="#D7C4C9" d="M66.101,60.261c5.941,4.656,14.536,3.607,19.192-2.344c4.652-5.945,3.607-14.539-2.338-19.193
				c-5.951-4.654-14.543-3.605-19.193,2.342C59.104,47.009,60.152,55.607,66.101,60.261z"/>
			<path fill="#B3B2B3" d="M79.686,116.598l-1.971-3.43c0,0,1.298-6.086,3.668-7.672c2.611-1.748,5.178-4.305,7.28-6.689
				c-2.327-2.346-4.404-5.02-6.146-8.012c-11.115-19.03-4.696-43.477,14.339-54.59c19.032-11.113,43.479-4.693,54.593,14.34
				c11.115,19.033,5.508,43.143-12.848,55.346C115.43,121.307,79.686,116.598,79.686,116.598z"/>
			<g>
				<path fill="#A3A2A3" d="M136.266,107.209c18.357-12.203,23.963-36.313,12.848-55.348
					c-10.784-18.471-34.127-25.059-52.893-15.273c0.211-0.129,0.421-0.258,0.636-0.383c19.032-11.113,43.479-4.693,54.593,14.34
					c11.115,19.033,5.508,43.143-12.848,55.346c-1.412,0.938-2.87,1.801-4.362,2.598
					C134.924,108.076,135.602,107.652,136.266,107.209z"/>
			</g>
			<path fill="#494646" d="M74.684,114.514c1.851,3.174,6.486,3.914,10.354,1.65c3.864-2.254,5.494-6.656,3.646-9.826
				c-1.855-3.176-6.494-3.912-10.354-1.658C74.463,106.938,72.826,111.332,74.684,114.514z"/>
			<path fill="#222221" d="M88.855,108.85c-1.855-3.18-6.493-3.916-10.355-1.658c-2.477,1.443-4.035,3.768-4.35,6.088
				c-0.883-3.006,0.795-6.621,4.18-8.6c3.859-2.254,8.498-1.518,10.354,1.658c0.665,1.139,0.878,2.438,0.7,3.738
				C89.259,109.652,89.084,109.24,88.855,108.85z"/>
			<g>
				<g>
					<path fill="#222221" d="M73.354,105.061c0.215,0.219,2.764-3.014,7.359-4.525c4.557-1.557,8.59-1.092,8.598-1.375
						c0.1-0.256-4.072-1.219-8.924,0.428c-2.398,0.811-4.311,2.17-5.475,3.326C73.748,104.09,73.258,104.988,73.354,105.061z"/>
				</g>
				<g>
					<path fill="#222221" d="M74.309,97.82c0.086,0.26,3.33-0.66,7.396-0.184c4.066,0.404,7.221,1.6,7.324,1.344
						c0.134-0.24-2.964-1.91-7.225-2.342C77.517,96.145,74.17,97.568,74.309,97.82z"/>
				</g>
				<g>
					<g>
						<path fill="#222221" d="M113.394,84.164c0.422,2.047,1.78,3.496,3.028,3.238c1.251-0.256,1.922-2.121,1.5-4.17
							c-0.42-2.049-1.775-3.497-3.025-3.241C113.646,80.25,112.973,82.117,113.394,84.164z"/>
					</g>
				</g>
				<g>
					<g>
						<path fill="#222221" d="M92.072,90.34c0.604,2,2.086,3.322,3.308,2.951C96.602,92.922,97.104,91,96.498,89
							c-0.602-2-2.082-3.322-3.306-2.951C91.971,86.416,91.467,88.338,92.072,90.34z"/>
					</g>
				</g>
				<g>
					<path fill="#222221" d="M160.277,87.354c0.088-0.137-1.061-0.902-3.239-1.498c-2.162-0.605-5.313-0.984-8.815-0.9
						c-7.02,0.156-12.657,1.676-12.603,1.992c0.035,0.344,5.649-0.607,12.504-0.758c3.423-0.082,6.479,0.15,8.633,0.52
						C158.915,87.064,160.182,87.527,160.277,87.354z"/>
				</g>
				<g>
					<path fill="#222221" d="M160.893,72.072c-0.005-0.287-6.738,0.867-14.186,4.938c-7.498,4-12.049,9.36-11.695,9.567
						c0.195,0.176,4.953-4.62,12.244-8.504C154.482,74.113,160.977,72.449,160.893,72.072z"/>
				</g>
			</g>
			<g>
				<path d="M106.343,111.258c0.015,0.07,0.373,0.074,1.013,0.002c0.637-0.076,1.555-0.227,2.674-0.492
					c1.118-0.266,2.438-0.648,3.863-1.209c1.422-0.561,2.954-1.305,4.422-2.328c1.469-1.02,2.715-2.238,3.605-3.529
					c0.897-1.289,1.424-2.633,1.666-3.787c0.246-1.16,0.225-2.125,0.135-2.771c-0.088-0.65-0.244-0.992-0.314-0.975
					c-0.073,0.016-0.059,0.367-0.1,0.988c-0.04,0.623-0.135,1.52-0.453,2.57c-0.313,1.049-0.865,2.242-1.733,3.4
					c-0.861,1.158-2.032,2.266-3.416,3.227c-1.384,0.965-2.833,1.705-4.188,2.297s-2.622,1.037-3.693,1.391
					s-1.951,0.613-2.557,0.811C106.662,111.049,106.328,111.184,106.343,111.258z"/>
				<path d="M106.343,111.258c0.015,0.07,0.373,0.074,1.013,0.002c0.637-0.076,1.555-0.227,2.674-0.492
					c1.118-0.266,2.438-0.648,3.863-1.209c1.422-0.561,2.954-1.305,4.422-2.328c1.469-1.02,2.715-2.238,3.605-3.529
					c0.897-1.289,1.424-2.633,1.666-3.787c0.246-1.16,0.225-2.125,0.135-2.771c-0.088-0.65-0.244-0.992-0.314-0.975
					c-0.073,0.016-0.059,0.367-0.1,0.988c-0.04,0.623-0.135,1.52-0.453,2.57c-0.313,1.049-0.865,2.242-1.733,3.4
					c-0.861,1.158-2.032,2.266-3.416,3.227c-1.384,0.965-2.833,1.705-4.188,2.297s-2.622,1.037-3.693,1.391
					s-1.951,0.613-2.557,0.811C106.662,111.049,106.328,111.184,106.343,111.258z"/>
				<path fill="#B3B2B3" d="M110.029,110.768c1.118-0.266,2.438-0.648,3.863-1.209c1.422-0.561,2.954-1.305,4.422-2.328
					c0.316-0.219,0.621-0.451,0.917-0.689c0.186,0.508,0.571,1.461,0.701,2.223c0.176,1.031,0.175,2.133-0.384,2.814
					c-1.272,1.563-5.41,4.311-9.529-0.508c-0.035-0.039-0.121-0.152-0.202-0.254C109.889,110.801,109.956,110.785,110.029,110.768z"
					/>
				<path fill="#FFFFFF" d="M110.029,110.768c1.118-0.266,2.438-0.648,3.863-1.209c1.422-0.561,2.954-1.305,4.422-2.328
					c0.275-0.189,0.538-0.389,0.797-0.594c0.183,0.5,0.393,1.115,0.483,1.637c0.175,1.033,0.173,2.133-0.386,2.813
					c-0.347,0.428-0.908,0.941-1.625,1.369c-0.1,0.059-0.201,0.119-0.311,0.174c-1.867,0.975-4.627,1.252-7.398-1.826
					C109.928,110.791,109.976,110.779,110.029,110.768z"/>
				<path fill="#B3B2B3" d="M115.049,109.979c1.316,1.789,2.203,2.285,2.756,2.338c-0.072,0.047-0.146,0.094-0.221,0.139
					c-0.1,0.059-0.201,0.119-0.311,0.174c-0.227,0.119-0.469,0.227-0.721,0.32C116.125,112.211,114.589,109.355,115.049,109.979z"/>
			</g>
		</g>
		<path fill="#A3A2A3" d="M95.484,126.111c0,0-3.223,2.311-2.889,3.145s2,1.855,5-1.572S95.484,126.111,95.484,126.111z"/>
		<path fill="#A3A2A3" d="M131.633,125.846c0-8.793,2.148-13.047,3.977-13.355c3.072-0.52,9.16,3.439,8.563,13.311
			c-0.726,12-5.718,15.461-9.312,21.252c0,0,0.094,3.172-0.579,3.748c-0.968,0.82-1.722-1.941-1.722-1.941s-1.252,3.039-2.064,3.041
			c-1.336,0.006-0.17-4.078-0.17-4.078s-1.992,3.531-2.879,2.801c-1.338-1.1,1.273-3.641,0.682-5.684
			c-0.593-2.043-1.603-2.139-0.812-3.26c0.474-0.678,2.84,0.84,2.84,0.84S131.633,139.906,131.633,125.846z"/>
	</g>
</g>
</svg>
