<?xml version="1.0" encoding="utf-8"?>
<!-- Generator: Adobe Illustrator 16.0.0, SVG Export Plug-In . SVG Version: 6.00 Build 0)  -->
<!DOCTYPE svg PUBLIC "-//W3C//DTD SVG 1.1//EN" "http://www.w3.org/Graphics/SVG/1.1/DTD/svg11.dtd">
<svg version="1.1" id="Layer_1" xmlns="http://www.w3.org/2000/svg" xmlns:xlink="http://www.w3.org/1999/xlink" x="0px" y="0px"
	 width="162.932px" height="44px" viewBox="0 0 162.932 44" enable-background="new 0 0 162.932 44" xml:space="preserve">
<g>
	<circle fill="#A3A2A3" cx="10.179" cy="15.685" r="9.931"/>
	<circle fill="#D1ACB3" cx="9.881" cy="15.429" r="6.27"/>
	<circle fill="#D7C4C9" cx="10.446" cy="15.975" r="6.131"/>
	<path fill="#A3A2A3" d="M46.561,11.935c-1.508,4.853-6.663,7.561-11.514,6.054c-4.855-1.508-7.567-6.662-6.06-11.515
		c1.513-4.85,6.664-7.564,11.516-6.056C45.357,1.926,48.067,7.081,46.561,11.935z"/>
	<path fill="#D1ACB3" d="M43.153,10.605c-0.956,3.065-4.207,4.775-7.273,3.822c-3.063-0.952-4.776-4.207-3.822-7.271
		c0.952-3.063,4.208-4.776,7.274-3.822C42.394,4.285,44.104,7.539,43.153,10.605z"/>
	<circle fill="#D7C4C9" cx="37.773" cy="9.584" r="5.681"/>
	<path fill="#B3B2B3" d="M51.874,33.729l-0.138-1.638c0,0-1.881-1.771-3.066-1.754c-1.307,0.021-2.785-0.247-4.069-0.563
		c0.241-1.353,0.318-2.756,0.206-4.191c-0.701-9.128-8.672-15.961-17.802-15.259c-9.128,0.702-15.963,8.673-15.261,17.804
		s8.315,16.041,17.473,15.871C40.776,43.787,51.874,33.729,51.874,33.729z"/>
	<path fill="#A3A2A3" d="M30.326,43.895c-9.157,0.17-16.772-6.739-17.474-15.871c-0.683-8.858,5.734-16.627,14.458-17.722
		c-0.102,0.006-0.205,0.012-0.307,0.021c-9.128,0.702-15.963,8.673-15.261,17.804s8.315,16.041,17.473,15.871
		c0.703-0.013,1.405-0.063,2.103-0.144C30.988,43.874,30.656,43.891,30.326,43.895z"/>
	<path fill="#494646" d="M53.09,31.833c0.119,1.522-1.291,2.872-3.148,3.011c-1.853,0.145-3.449-0.975-3.566-2.494
		c-0.118-1.523,1.293-2.873,3.146-3.015C51.375,29.193,52.973,30.309,53.09,31.833z"/>
	<path fill="#222221" d="M46.91,33.248c-0.119-1.525,1.293-2.873,3.145-3.014c1.188-0.092,2.271,0.334,2.926,1.051
		c-0.409-1.234-1.836-2.074-3.459-1.949c-1.853,0.143-3.264,1.49-3.146,3.016c0.041,0.545,0.274,1.039,0.645,1.441
		C46.961,33.618,46.923,33.438,46.91,33.248z"/>
	<g>
		<g>
			<path fill="#222221" d="M51.31,28.29c-0.021,0.124-1.655-0.375-3.584,0.194c-1.923,0.546-3.191,1.658-3.261,1.562
				c-0.096-0.062,1.103-1.377,3.148-1.962c1.011-0.289,1.986-0.277,2.656-0.159C50.945,28.052,51.325,28.242,51.31,28.29z"/>
		</g>
		<g>
			<path fill="#222221" d="M49.271,26.041c0.033,0.109-1.293,0.564-2.57,1.688c-1.293,1.099-2.088,2.254-2.184,2.189
				c-0.103-0.05,0.561-1.354,1.913-2.508C47.78,26.227,49.261,25.923,49.271,26.041z"/>
		</g>
		<g>
			<g>
				
					<ellipse transform="matrix(-0.3912 -0.9203 0.9203 -0.3912 15.7295 72.388)" fill="#222221" cx="31.808" cy="30.991" rx="1.572" ry="0.961"/>
			</g>
		</g>
		<g>
			<g>
				
					<ellipse transform="matrix(-0.3061 -0.952 0.952 -0.3061 26.2888 75.118)" fill="#222221" cx="40.52" cy="27.979" rx="1.569" ry="0.961"/>
			</g>
		</g>
		<g>
			<path fill="#222221" d="M17.427,42.788c-0.062-0.024,0.15-0.56,0.752-1.277c0.597-0.717,1.583-1.59,2.801-2.391
				c2.435-1.604,4.721-2.42,4.776-2.298c0.069,0.126-2.074,1.127-4.452,2.695c-1.188,0.782-2.178,1.584-2.826,2.219
				C17.826,42.368,17.502,42.825,17.427,42.788z"/>
		</g>
		<g>
			<path fill="#222221" d="M13.605,37.712c-0.066-0.099,2.507-1.296,6.015-1.665c3.507-0.406,6.327,0.348,6.256,0.501
				c-0.024,0.108-2.784-0.405-6.192-0.01C16.277,36.895,13.666,37.859,13.605,37.712z"/>
		</g>
	</g>
	<g>
		<path d="M41.503,38.205c0.014,0.027-0.107,0.115-0.344,0.24s-0.585,0.289-1.03,0.465c-0.445,0.172-0.986,0.354-1.605,0.499
			s-1.317,0.253-2.061,0.251c-0.743-0.001-1.457-0.125-2.066-0.355c-0.611-0.229-1.107-0.563-1.464-0.899
			c-0.358-0.339-0.579-0.675-0.701-0.914c-0.125-0.244-0.151-0.397-0.123-0.408c0.028-0.013,0.105,0.11,0.268,0.313
			c0.162,0.205,0.403,0.487,0.763,0.771c0.355,0.284,0.826,0.563,1.396,0.751c0.567,0.192,1.229,0.295,1.93,0.296
			c0.7,0.004,1.371-0.088,1.973-0.204c0.604-0.12,1.142-0.267,1.592-0.399c0.448-0.133,0.811-0.25,1.063-0.326
			C41.346,38.21,41.491,38.176,41.503,38.205z"/>
		<path d="M41.503,38.205c0.014,0.027-0.107,0.115-0.344,0.24s-0.585,0.289-1.03,0.465c-0.445,0.172-0.986,0.354-1.605,0.499
			s-1.317,0.253-2.061,0.251c-0.743-0.001-1.457-0.125-2.066-0.355c-0.611-0.229-1.107-0.563-1.464-0.899
			c-0.358-0.339-0.579-0.675-0.701-0.914c-0.125-0.244-0.151-0.397-0.123-0.408c0.028-0.013,0.105,0.11,0.268,0.313
			c0.162,0.205,0.403,0.487,0.763,0.771c0.355,0.284,0.826,0.563,1.396,0.751c0.567,0.192,1.229,0.295,1.93,0.296
			c0.7,0.004,1.371-0.088,1.973-0.204c0.604-0.12,1.142-0.267,1.592-0.399c0.448-0.133,0.811-0.25,1.063-0.326
			C41.346,38.21,41.491,38.176,41.503,38.205z"/>
		<path fill="#B3B2B3" d="M40.129,38.91c-0.445,0.172-0.986,0.354-1.605,0.499s-1.317,0.253-2.061,0.251
			c-0.16-0.001-0.32-0.008-0.479-0.021c0.059,0.219,0.152,0.635,0.286,0.926c0.185,0.394,0.445,0.771,0.796,0.873
			c0.805,0.231,2.867,0.191,3.138-2.427c0.002-0.021,0.006-0.081,0.008-0.136C40.185,38.889,40.159,38.896,40.129,38.91z"/>
		<path fill="#FFFFFF" d="M40.129,38.91c-0.445,0.172-0.986,0.354-1.605,0.499s-1.317,0.253-2.061,0.251
			c-0.14,0-0.277-0.008-0.412-0.018c0.056,0.215,0.128,0.476,0.221,0.676c0.185,0.395,0.445,0.769,0.796,0.869
			c0.222,0.063,0.534,0.106,0.879,0.084c0.049-0.004,0.098-0.006,0.148-0.013c0.868-0.11,1.876-0.667,2.094-2.374
			C40.169,38.893,40.15,38.9,40.129,38.91z"/>
		<path fill="#B3B2B3" d="M38.227,39.825c-0.025,0.923-0.21,1.303-0.388,1.45c0.036,0,0.073-0.002,0.107-0.004
			c0.049-0.004,0.098-0.006,0.148-0.013c0.104-0.016,0.213-0.036,0.322-0.063C38.387,40.844,38.237,39.505,38.227,39.825z"/>
	</g>
</g>
<g>
	<path fill="#A43F69" d="M76.414,25.314c-0.156,0.131-0.357,0.236-0.604,0.314c-0.246,0.079-0.531,0.117-0.854,0.117
		c-0.433,0-0.789-0.055-1.071-0.162s-0.465-0.294-0.549-0.559c-0.336-1.056-0.612-1.91-0.828-2.564
		c-0.216-0.654-0.384-1.227-0.504-1.719h-0.09c-0.036,0.708-0.063,1.353-0.081,1.935c-0.019,0.582-0.03,1.149-0.036,1.701
		s-0.019,1.11-0.036,1.674c-0.018,0.564-0.045,1.188-0.081,1.872c-0.156,0.061-0.36,0.11-0.612,0.153
		c-0.252,0.042-0.504,0.063-0.756,0.063c-0.527,0-0.938-0.084-1.232-0.252c-0.294-0.169-0.441-0.475-0.441-0.919l0.522-9.18
		c0.096-0.156,0.306-0.324,0.63-0.504c0.323-0.18,0.779-0.27,1.368-0.27c0.636,0,1.134,0.099,1.493,0.297
		c0.36,0.198,0.624,0.52,0.792,0.963c0.108,0.288,0.226,0.618,0.352,0.99s0.252,0.756,0.378,1.152s0.249,0.79,0.369,1.179
		c0.12,0.39,0.228,0.741,0.324,1.053h0.09c0.288-1.008,0.575-1.982,0.863-2.925c0.288-0.942,0.553-1.731,0.792-2.367
		c0.181-0.096,0.411-0.177,0.693-0.243c0.282-0.066,0.597-0.099,0.945-0.099c0.588,0,1.067,0.087,1.439,0.261
		c0.372,0.174,0.588,0.423,0.648,0.747c0.048,0.24,0.099,0.609,0.153,1.107c0.054,0.499,0.11,1.06,0.171,1.683
		c0.06,0.624,0.12,1.284,0.18,1.98c0.06,0.696,0.117,1.365,0.171,2.007c0.054,0.643,0.099,1.23,0.135,1.764
		c0.036,0.535,0.061,0.945,0.072,1.233c-0.204,0.12-0.417,0.207-0.639,0.261c-0.223,0.055-0.507,0.082-0.855,0.082
		c-0.456,0-0.84-0.078-1.151-0.234c-0.313-0.156-0.48-0.463-0.505-0.918c-0.071-1.309-0.116-2.484-0.135-3.528
		c-0.018-1.044-0.045-1.92-0.081-2.628h-0.09c-0.12,0.468-0.294,1.056-0.521,1.764C77.014,23.305,76.738,24.21,76.414,25.314z"/>
	<path fill="#A43F69" d="M84.082,25.766c-0.132-0.301-0.273-0.637-0.423-1.009c-0.15-0.372-0.307-0.798-0.469-1.278
		c-0.162-0.479-0.33-1.028-0.504-1.646s-0.356-1.329-0.549-2.133c0.168-0.168,0.393-0.315,0.675-0.441s0.591-0.189,0.928-0.189
		c0.42,0,0.768,0.087,1.044,0.261c0.275,0.174,0.479,0.501,0.611,0.981l1.422,4.95h0.072c0.145-0.407,0.285-0.852,0.423-1.331
		c0.139-0.48,0.273-0.976,0.405-1.486c0.132-0.51,0.255-1.02,0.369-1.53c0.114-0.51,0.213-1.011,0.297-1.503
		c0.432-0.228,0.906-0.342,1.422-0.342c0.42,0,0.769,0.09,1.044,0.27c0.276,0.18,0.414,0.492,0.414,0.936
		c0,0.324-0.042,0.699-0.126,1.125c-0.084,0.426-0.195,0.879-0.333,1.359c-0.138,0.48-0.3,0.976-0.486,1.485
		c-0.186,0.51-0.381,1.011-0.585,1.503s-0.414,0.957-0.63,1.396c-0.216,0.438-0.426,0.83-0.63,1.178
		c-0.336,0.588-0.647,1.068-0.936,1.44s-0.564,0.663-0.828,0.873c-0.265,0.209-0.528,0.354-0.792,0.433
		c-0.265,0.078-0.54,0.117-0.828,0.117c-0.504,0-0.912-0.15-1.224-0.451c-0.313-0.299-0.498-0.689-0.559-1.17
		c0.384-0.299,0.769-0.633,1.152-0.998c0.384-0.366,0.731-0.741,1.044-1.125c-0.204-0.061-0.423-0.201-0.657-0.424
		C84.613,26.794,84.358,26.376,84.082,25.766z"/>
	<path fill="#A43F69" d="M100.012,25.387c0,0.912-0.342,1.627-1.026,2.143c-0.684,0.516-1.691,0.773-3.023,0.773
		c-0.504,0-0.972-0.035-1.404-0.107c-0.432-0.072-0.801-0.184-1.106-0.334c-0.307-0.149-0.547-0.338-0.721-0.566
		s-0.261-0.498-0.261-0.811c0-0.287,0.06-0.53,0.18-0.729c0.12-0.197,0.265-0.363,0.433-0.495c0.348,0.192,0.747,0.363,1.196,0.513
		c0.45,0.15,0.97,0.226,1.558,0.226c0.372,0,0.657-0.054,0.854-0.162c0.198-0.108,0.297-0.252,0.297-0.432
		c0-0.169-0.071-0.3-0.216-0.396c-0.144-0.096-0.384-0.174-0.72-0.233l-0.54-0.108c-1.044-0.204-1.821-0.524-2.331-0.963
		s-0.765-1.065-0.765-1.881c0-0.444,0.096-0.846,0.288-1.206c0.191-0.36,0.462-0.66,0.81-0.9c0.348-0.24,0.765-0.426,1.251-0.558
		c0.486-0.132,1.023-0.198,1.611-0.198c0.443,0,0.86,0.033,1.251,0.099c0.39,0.066,0.729,0.165,1.017,0.297
		c0.288,0.132,0.517,0.303,0.685,0.513s0.252,0.459,0.252,0.747c0,0.276-0.052,0.513-0.153,0.711
		c-0.103,0.198-0.231,0.363-0.387,0.495c-0.097-0.06-0.24-0.123-0.433-0.189c-0.191-0.066-0.401-0.126-0.63-0.18
		c-0.228-0.054-0.459-0.099-0.692-0.135c-0.234-0.036-0.447-0.054-0.64-0.054c-0.396,0-0.702,0.045-0.918,0.135
		c-0.216,0.09-0.324,0.231-0.324,0.423c0,0.132,0.061,0.24,0.181,0.324s0.348,0.162,0.684,0.234l0.559,0.126
		c1.151,0.265,1.971,0.627,2.457,1.089C99.769,24.059,100.012,24.655,100.012,25.387z"/>
	<path fill="#A43F69" d="M101.416,16.818c0-0.456,0.152-0.839,0.459-1.152c0.306-0.312,0.711-0.468,1.215-0.468
		s0.909,0.156,1.215,0.468c0.306,0.313,0.459,0.696,0.459,1.152c0,0.457-0.153,0.84-0.459,1.152
		c-0.306,0.313-0.711,0.468-1.215,0.468s-0.909-0.156-1.215-0.468C101.569,17.659,101.416,17.275,101.416,16.818z M104.62,27.979
		c-0.133,0.024-0.327,0.058-0.585,0.1c-0.259,0.042-0.52,0.063-0.783,0.063c-0.265,0-0.501-0.018-0.711-0.054
		s-0.388-0.108-0.531-0.216s-0.255-0.255-0.333-0.441c-0.078-0.186-0.117-0.43-0.117-0.729v-7.326
		c0.132-0.024,0.327-0.057,0.585-0.099s0.52-0.063,0.783-0.063s0.501,0.018,0.711,0.054c0.21,0.036,0.387,0.108,0.531,0.216
		c0.144,0.108,0.255,0.255,0.333,0.441c0.078,0.187,0.117,0.429,0.117,0.729V27.979L104.62,27.979z"/>
	<path fill="#A43F69" d="M111.19,28.285c-0.708,0-1.364-0.1-1.971-0.297c-0.606-0.198-1.134-0.495-1.584-0.891
		c-0.45-0.396-0.804-0.895-1.062-1.494c-0.259-0.601-0.388-1.303-0.388-2.106c0-0.792,0.128-1.473,0.388-2.043
		c0.258-0.57,0.597-1.038,1.017-1.404c0.42-0.366,0.9-0.636,1.439-0.81c0.54-0.174,1.093-0.261,1.656-0.261
		c0.636,0,1.215,0.096,1.737,0.288c0.521,0.192,0.972,0.456,1.35,0.792s0.672,0.738,0.882,1.206c0.211,0.468,0.315,0.978,0.315,1.53
		c0,0.408-0.114,0.721-0.342,0.936c-0.229,0.217-0.546,0.354-0.954,0.414l-4.446,0.666c0.132,0.396,0.402,0.693,0.811,0.892
		c0.407,0.198,0.876,0.297,1.403,0.297c0.492,0,0.957-0.063,1.396-0.188c0.438-0.127,0.794-0.273,1.071-0.441
		c0.191,0.12,0.354,0.288,0.485,0.504s0.198,0.443,0.198,0.684c0,0.541-0.252,0.942-0.756,1.207
		c-0.384,0.203-0.816,0.342-1.296,0.413C112.06,28.249,111.61,28.285,111.19,28.285z M110.686,21.21
		c-0.288,0-0.538,0.048-0.747,0.144c-0.21,0.096-0.381,0.219-0.513,0.369s-0.231,0.318-0.297,0.504
		c-0.066,0.186-0.105,0.375-0.117,0.567l3.078-0.504c-0.036-0.24-0.168-0.48-0.396-0.72C111.466,21.331,111.129,21.21,110.686,21.21
		z"/>
	<path fill="#A43F69" d="M123.43,27.925c-0.132,0.036-0.339,0.072-0.621,0.108c-0.282,0.035-0.561,0.054-0.837,0.054
		s-0.519-0.021-0.729-0.063c-0.21-0.041-0.388-0.116-0.531-0.225c-0.145-0.107-0.252-0.258-0.324-0.449
		c-0.072-0.192-0.108-0.444-0.108-0.757v-8.478c0-0.252,0.069-0.447,0.207-0.585c0.139-0.138,0.327-0.249,0.567-0.333
		c0.408-0.145,0.873-0.249,1.396-0.315c0.521-0.065,1.047-0.099,1.574-0.099c1.656,0,2.922,0.354,3.798,1.062
		c0.875,0.708,1.314,1.668,1.314,2.88c0,0.588-0.093,1.119-0.279,1.593c-0.186,0.475-0.462,0.882-0.828,1.224
		c-0.365,0.342-0.827,0.606-1.386,0.792c-0.558,0.186-1.203,0.279-1.935,0.279h-1.278V27.925z M124.366,22.146
		c0.504,0,0.891-0.117,1.16-0.351c0.271-0.234,0.405-0.591,0.405-1.071c0-0.456-0.141-0.807-0.423-1.053s-0.693-0.369-1.233-0.369
		c-0.191,0-0.351,0.003-0.477,0.009s-0.255,0.021-0.387,0.045v2.79H124.366z"/>
	<path fill="#A43F69" d="M131.872,25.766c-0.133-0.301-0.273-0.637-0.423-1.009c-0.15-0.372-0.307-0.798-0.469-1.278
		c-0.162-0.479-0.33-1.028-0.504-1.646s-0.356-1.329-0.549-2.133c0.168-0.168,0.393-0.315,0.675-0.441s0.591-0.189,0.927-0.189
		c0.421,0,0.769,0.087,1.045,0.261c0.275,0.174,0.479,0.501,0.611,0.981l1.422,4.95h0.072c0.145-0.407,0.285-0.852,0.423-1.331
		c0.139-0.48,0.273-0.976,0.405-1.486c0.132-0.51,0.255-1.02,0.369-1.53c0.114-0.51,0.213-1.011,0.297-1.503
		c0.432-0.228,0.906-0.342,1.422-0.342c0.419,0,0.768,0.09,1.044,0.27c0.276,0.18,0.414,0.492,0.414,0.936
		c0,0.324-0.042,0.699-0.126,1.125c-0.084,0.426-0.195,0.879-0.333,1.359c-0.138,0.48-0.3,0.976-0.486,1.485
		c-0.186,0.51-0.381,1.011-0.585,1.503s-0.414,0.957-0.63,1.396c-0.216,0.438-0.426,0.83-0.63,1.178
		c-0.336,0.588-0.647,1.068-0.936,1.44s-0.564,0.663-0.828,0.873c-0.265,0.209-0.528,0.354-0.792,0.433
		c-0.265,0.078-0.54,0.117-0.828,0.117c-0.504,0-0.912-0.15-1.225-0.451c-0.313-0.299-0.498-0.689-0.558-1.17
		c0.384-0.299,0.769-0.633,1.152-0.998c0.384-0.366,0.731-0.741,1.044-1.125c-0.204-0.061-0.423-0.201-0.657-0.424
		C132.402,26.793,132.147,26.376,131.872,25.766z"/>
	<path fill="#A43F69" d="M147.801,25.387c0,0.912-0.342,1.627-1.026,2.143c-0.684,0.516-1.691,0.773-3.023,0.773
		c-0.504,0-0.973-0.035-1.404-0.107s-0.801-0.184-1.107-0.334c-0.306-0.149-0.546-0.338-0.72-0.566s-0.261-0.498-0.261-0.811
		c0-0.287,0.06-0.53,0.18-0.729c0.12-0.197,0.265-0.363,0.433-0.495c0.348,0.192,0.747,0.363,1.196,0.513
		c0.45,0.15,0.97,0.226,1.558,0.226c0.372,0,0.657-0.054,0.854-0.162c0.198-0.108,0.297-0.252,0.297-0.432
		c0-0.169-0.071-0.3-0.216-0.396c-0.144-0.096-0.384-0.174-0.72-0.233l-0.54-0.108c-1.044-0.204-1.821-0.524-2.331-0.963
		s-0.765-1.065-0.765-1.881c0-0.444,0.096-0.846,0.288-1.206c0.19-0.36,0.461-0.66,0.81-0.9c0.348-0.24,0.765-0.426,1.251-0.558
		c0.486-0.132,1.023-0.198,1.611-0.198c0.443,0,0.86,0.033,1.251,0.099c0.39,0.066,0.729,0.165,1.017,0.297
		c0.288,0.132,0.517,0.303,0.685,0.513s0.252,0.459,0.252,0.747c0,0.276-0.052,0.513-0.153,0.711
		c-0.103,0.198-0.231,0.363-0.387,0.495c-0.097-0.06-0.24-0.123-0.433-0.189c-0.191-0.066-0.401-0.126-0.63-0.18
		c-0.228-0.054-0.459-0.099-0.692-0.135c-0.234-0.036-0.447-0.054-0.64-0.054c-0.396,0-0.702,0.045-0.918,0.135
		c-0.216,0.09-0.324,0.231-0.324,0.423c0,0.132,0.061,0.24,0.181,0.324s0.348,0.162,0.684,0.234l0.558,0.126
		c1.152,0.265,1.972,0.627,2.457,1.089C147.559,24.059,147.801,24.655,147.801,25.387z"/>
	<path fill="#A43F69" d="M149.205,16.818c0-0.456,0.152-0.839,0.459-1.152c0.306-0.312,0.711-0.468,1.215-0.468
		s0.909,0.156,1.215,0.468c0.306,0.313,0.459,0.696,0.459,1.152c0,0.457-0.153,0.84-0.459,1.152
		c-0.306,0.313-0.711,0.468-1.215,0.468s-0.909-0.156-1.215-0.468C149.358,17.659,149.205,17.275,149.205,16.818z M152.409,27.979
		c-0.133,0.024-0.327,0.058-0.585,0.1c-0.259,0.042-0.52,0.063-0.783,0.063c-0.265,0-0.501-0.018-0.711-0.054
		s-0.388-0.108-0.531-0.216c-0.145-0.107-0.255-0.255-0.333-0.441c-0.078-0.186-0.117-0.429-0.117-0.729v-7.326
		c0.132-0.024,0.327-0.057,0.585-0.099s0.52-0.063,0.783-0.063s0.501,0.018,0.711,0.054c0.21,0.036,0.387,0.108,0.531,0.216
		c0.144,0.108,0.254,0.255,0.333,0.441c0.078,0.187,0.117,0.429,0.117,0.729V27.979z"/>
	<path fill="#A43F69" d="M158.979,28.285c-0.708,0-1.365-0.1-1.971-0.297c-0.606-0.198-1.134-0.495-1.584-0.891
		c-0.45-0.396-0.804-0.895-1.063-1.494c-0.258-0.601-0.387-1.303-0.387-2.106c0-0.792,0.129-1.473,0.387-2.043
		c0.259-0.57,0.598-1.038,1.018-1.404c0.42-0.366,0.899-0.636,1.439-0.81c0.54-0.174,1.093-0.261,1.656-0.261
		c0.636,0,1.215,0.096,1.737,0.288c0.521,0.192,0.972,0.456,1.35,0.792s0.672,0.738,0.882,1.206c0.209,0.468,0.315,0.978,0.315,1.53
		c0,0.408-0.114,0.721-0.342,0.936c-0.229,0.217-0.546,0.354-0.954,0.414l-4.446,0.666c0.132,0.396,0.402,0.693,0.811,0.892
		c0.407,0.198,0.876,0.297,1.403,0.297c0.492,0,0.957-0.063,1.396-0.188c0.438-0.127,0.794-0.273,1.071-0.441
		c0.191,0.12,0.354,0.288,0.485,0.504s0.198,0.443,0.198,0.684c0,0.541-0.252,0.942-0.756,1.207
		c-0.384,0.203-0.816,0.342-1.296,0.413C159.849,28.249,159.399,28.285,158.979,28.285z M158.475,21.21
		c-0.288,0-0.537,0.048-0.747,0.144s-0.381,0.219-0.513,0.369s-0.231,0.318-0.297,0.504c-0.066,0.186-0.105,0.375-0.117,0.567
		l3.078-0.504c-0.036-0.24-0.168-0.48-0.396-0.72C159.255,21.331,158.919,21.21,158.475,21.21z"/>
</g>
</svg>
