<?xml version="1.0" encoding="utf-8"?>
<!-- Generator: Adobe Illustrator 16.0.0, SVG Export Plug-In . SVG Version: 6.00 Build 0)  -->
<!DOCTYPE svg PUBLIC "-//W3C//DTD SVG 1.1//EN" "http://www.w3.org/Graphics/SVG/1.1/DTD/svg11.dtd">
<svg version="1.1" id="Layer_1" xmlns="http://www.w3.org/2000/svg" xmlns:xlink="http://www.w3.org/1999/xlink" x="0px" y="0px"
	 width="110.023px" height="113.366px" viewBox="0 0 110.023 113.366" enable-background="new 0 0 110.023 113.366"
	 xml:space="preserve">
<g>
	<path fill="#A3A2A3" d="M76.842,88.347c0,0,9.266,3.5,20.258,2c0,0,1.439-2.131,1.466-3.398s0.776-1.273,1.359-0.521
		s0.417,2.085,0,3.919s-0.886,1.208-0.716,2.375c0.277,1.896,1.666-0.429,2.091,1.271c0.563,2.25-4.708,1.271-4.708,1.271
		s-4.334,3.166-9.917,3.333S76.842,88.347,76.842,88.347z"/>
	<path fill="#A3A2A3" d="M63.727,99.941c-1.139-4.272-1.737-8.37-2.05-11.275c-2.089,1.376-11.413,7.65-14.827,12.073
		c0,0-2.461,0.84-2.711,1.522c-0.352,0.978,1.986,0.763,1.986,0.763s-1.974,1.834-1.742,2.459c0.377,1.027,3.181-1.041,3.181-1.041
		s-2.14,2.541-1.323,3.014c1.228,0.713,2.43-2.021,4.167-2.154c1.74-0.133,2.104,0.615,2.735-0.314
		c0.385-0.559-1.459-1.939-1.459-1.939S59.196,100.419,63.727,99.941z"/>
	<path fill="#A3A2A3" d="M93.306,110.408c-1.651-15.471-21.169-24.229-21.169-24.229L63.228,87.5c0,0-6.008,14.5-4.91,26.5h35.033
		C93.434,113,93.429,111.561,93.306,110.408z"/>
	<path fill="#D7C4C9" d="M79.115,92.082C66.711,81.33,63.537,105,64.884,114h25.896C90.998,107,86.486,98.474,79.115,92.082z"/>
	<path fill="#D1ACB3" d="M81.279,95.174c2.33,2.021,4.375,4.136,6.075,6.491c-2.004-3.557-4.813-6.825-8.239-9.796
		C66.711,81.116,63.537,105,64.884,114h1.89C66.517,103,70.248,85.611,81.279,95.174z"/>
	<path fill="#7F7D7D" d="M58.176,110.478c-3.93-1.938-8.967-3.063-14.629-1.043c-11.883,4.238-18.461-7.181-13.85-12.296
		c0,0-3.791,3.339-1.949,8.164c1.687,4.404,6.791,8.795,18.355,5.93c3.945-0.977,8.019,0.768,11.178,2.768h1.09
		C58.25,113,58.178,111.645,58.176,110.478z"/>
	<path fill="#A3A2A3" d="M98.09,90.488c0.801-0.15,0.713-0.452,1.598,0s1.436,0.979,1.47,2.337c0.033,1.356-1.313,1.8-1.866,1.96
		c-0.785,0.229-1.844-0.377-1.844-0.377L98.09,90.488z"/>
	<path fill="#A3A2A3" d="M41.291,31.571c0.875,11.383-7.643,21.328-19.025,22.201C10.877,54.649,0.938,46.124,0.063,34.741
		C-0.814,23.354,7.707,13.415,19.092,12.54C30.477,11.666,40.416,20.184,41.291,31.571z"/>
	<path fill="#D1ACB3" d="M33.07,31.62c0.555,7.189-4.824,13.467-12.016,14.018c-7.188,0.555-13.463-4.825-14.016-12.017
		c-0.553-7.185,4.828-13.46,12.014-14.013C26.245,19.056,32.521,24.435,33.07,31.62z"/>
	<path fill="#D7C4C9" d="M33.958,32.778c0.539,7.033-4.722,13.167-11.748,13.707c-7.028,0.541-13.165-4.714-13.706-11.749
		c-0.543-7.03,4.72-13.162,11.75-13.704C27.279,20.493,33.418,25.748,33.958,32.778z"/>
	<path fill="#A3A2A3" d="M96.415,25.344c-3.141,10.102-13.872,15.742-23.972,12.604c-10.104-3.14-15.752-13.871-12.611-23.975
		C62.979,3.875,73.705-1.775,83.805,1.37C93.91,4.509,99.552,15.241,96.415,25.344z"/>
	<path fill="#D1ACB3" d="M89.32,22.576c-1.986,6.38-8.758,9.941-15.139,7.96c-6.378-1.982-9.945-8.76-7.958-15.141
		c1.978-6.377,8.761-9.94,15.138-7.957C87.741,9.42,91.301,16.196,89.32,22.576z"/>
	<path fill="#D7C4C9" d="M89.414,23.961c-1.934,6.236-8.563,9.721-14.803,7.779c-6.234-1.938-9.721-8.564-7.783-14.802
		c1.942-6.237,8.57-9.721,14.805-7.778C87.87,11.094,91.354,17.725,89.414,23.961z"/>
	<path fill="#B3B2B3" d="M107.475,70.715l-0.283-3.381c0,0-4.045-3.688-6.6-3.678c-2.666,0.01-5.657-0.533-8.256-1.178
		c0.5-2.813,0.662-5.736,0.428-8.723c-1.459-19.005-18.053-33.232-37.063-31.768C36.697,23.45,22.469,40.047,23.932,59.05
		c1.461,19.009,17.313,33.397,36.373,33.042C84.371,91.654,107.475,70.715,107.475,70.715z"/>
	<g>
		<path fill="#A3A2A3" d="M62.615,91.881C43.555,92.237,27.703,77.847,26.24,58.84C24.82,40.395,38.18,24.222,56.342,21.948
			c-0.213,0.012-0.426,0.022-0.641,0.041C36.697,23.45,22.469,40.047,23.932,59.05c1.461,19.009,17.313,33.397,36.373,33.042
			c1.467-0.025,2.928-0.131,4.381-0.299C63.996,91.838,63.305,91.87,62.615,91.881z"/>
	</g>
	<path fill="#494646" d="M110.01,66.772c0.244,3.168-2.688,5.975-6.553,6.27c-3.857,0.298-7.185-2.031-7.43-5.195
		c-0.242-3.174,2.693-5.979,6.549-6.273C106.437,61.274,109.764,63.594,110.01,66.772z"/>
	<path fill="#222221" d="M97.141,69.717c-0.245-3.175,2.693-5.98,6.549-6.275c2.473-0.192,4.726,0.693,6.09,2.188
		c-0.852-2.572-3.822-4.318-7.203-4.057c-3.855,0.295-6.791,3.1-6.549,6.273c0.088,1.136,0.576,2.166,1.342,3.002
		C97.249,70.487,97.172,70.109,97.141,69.717z"/>
	<g>
		<g>
			<path fill="#222221" d="M106.303,59.393c-0.046,0.26-3.449-0.783-7.462,0.404c-4.005,1.135-6.646,3.449-6.791,3.252
				c-0.196-0.134,2.296-2.869,6.557-4.086c2.104-0.605,4.134-0.578,5.53-0.329C105.543,58.897,106.334,59.294,106.303,59.393z"/>
		</g>
		<g>
			<path fill="#222221" d="M102.059,54.713c0.068,0.227-2.691,1.172-5.35,3.512c-2.693,2.286-4.348,4.69-4.548,4.559
				c-0.214-0.106,1.169-2.818,3.985-5.219C98.952,55.1,102.034,54.465,102.059,54.713z"/>
		</g>
		<g>
			<g>
				
					<ellipse transform="matrix(0.9202 -0.3915 0.3915 0.9202 -20.2089 30.9092)" fill="#222221" cx="65.701" cy="65.018" rx="1.999" ry="3.271"/>
			</g>
		</g>
		<g>
			<g>
				
					<ellipse transform="matrix(0.9518 -0.3068 0.3068 0.9518 -13.9795 28.5525)" fill="#222221" cx="83.842" cy="58.748" rx="2.001" ry="3.271"/>
			</g>
		</g>
		<g>
			<path fill="#222221" d="M35.766,89.576c-0.129-0.052,0.311-1.163,1.567-2.66c1.24-1.493,3.294-3.313,5.827-4.978
				c5.07-3.344,9.826-5.036,9.942-4.785c0.146,0.262-4.315,2.348-9.267,5.614c-2.474,1.626-4.533,3.295-5.885,4.618
				C36.593,88.7,35.92,89.653,35.766,89.576z"/>
		</g>
		<g>
			<path fill="#222221" d="M27.809,79.01c-0.139-0.206,5.219-2.699,12.518-3.469c7.303-0.846,13.176,0.729,13.027,1.047
				c-0.053,0.222-5.797-0.845-12.894-0.022C33.373,77.307,27.936,79.321,27.809,79.01z"/>
		</g>
	</g>
	<g>
		<path d="M85.889,80.036c0.025,0.057-0.229,0.236-0.719,0.5c-0.49,0.258-1.217,0.604-2.143,0.966
			c-0.928,0.36-2.055,0.739-3.344,1.041c-1.287,0.301-2.743,0.524-4.291,0.521c-1.546-0.003-3.033-0.258-4.301-0.736
			c-1.272-0.476-2.309-1.172-3.05-1.873c-0.744-0.705-1.206-1.402-1.459-1.905c-0.258-0.507-0.313-0.825-0.255-0.847
			c0.059-0.025,0.223,0.23,0.557,0.652c0.336,0.423,0.843,1.015,1.587,1.605c0.739,0.59,1.72,1.168,2.905,1.563
			c1.184,0.401,2.561,0.612,4.019,0.616c1.458,0.005,2.854-0.184,4.108-0.428c1.256-0.246,2.376-0.553,3.312-0.829
			c0.937-0.276,1.689-0.522,2.218-0.681C85.561,80.043,85.863,79.975,85.889,80.036z"/>
		<path d="M85.889,80.036c0.025,0.057-0.229,0.236-0.719,0.5c-0.49,0.258-1.217,0.604-2.143,0.966
			c-0.928,0.36-2.055,0.739-3.344,1.041c-1.287,0.301-2.743,0.524-4.291,0.521c-1.546-0.003-3.033-0.258-4.301-0.736
			c-1.272-0.476-2.309-1.172-3.05-1.873c-0.744-0.705-1.206-1.402-1.459-1.905c-0.258-0.507-0.313-0.825-0.255-0.847
			c0.059-0.025,0.223,0.23,0.557,0.652c0.336,0.423,0.843,1.015,1.587,1.605c0.739,0.59,1.72,1.168,2.905,1.563
			c1.184,0.401,2.561,0.612,4.019,0.616c1.458,0.005,2.854-0.184,4.108-0.428c1.256-0.246,2.376-0.553,3.312-0.829
			c0.937-0.276,1.689-0.522,2.218-0.681C85.561,80.043,85.863,79.975,85.889,80.036z"/>
		<path fill="#B3B2B3" d="M83.027,81.501c-0.928,0.36-2.055,0.739-3.344,1.041c-1.287,0.301-2.743,0.524-4.291,0.521
			c-0.332-0.002-0.664-0.016-0.991-0.039c0.118,0.451,0.313,1.32,0.595,1.925c0.383,0.82,0.926,1.603,1.658,1.813
			c1.674,0.484,5.969,0.402,6.527-5.051c0.006-0.045,0.012-0.168,0.019-0.28C83.143,81.456,83.086,81.479,83.027,81.501z"/>
		<path fill="#FFFFFF" d="M83.027,81.501c-0.928,0.36-2.055,0.739-3.344,1.041c-1.287,0.301-2.743,0.524-4.291,0.521
			c-0.289,0-0.574-0.012-0.858-0.031c0.116,0.445,0.269,0.987,0.462,1.402c0.383,0.821,0.926,1.602,1.658,1.812
			c0.457,0.133,1.109,0.223,1.829,0.173c0.099-0.007,0.202-0.014,0.306-0.029c1.809-0.226,3.908-1.387,4.363-4.939
			C83.111,81.467,83.07,81.485,83.027,81.501z"/>
		<path fill="#B3B2B3" d="M79.066,83.41c-0.054,1.92-0.441,2.709-0.809,3.019c0.075-0.002,0.15-0.004,0.226-0.01
			c0.099-0.007,0.202-0.014,0.306-0.029c0.221-0.025,0.445-0.069,0.671-0.127C79.4,85.528,79.088,82.74,79.066,83.41z"/>
	</g>
</g>
</svg>
