<?xml version="1.0" encoding="utf-8"?>
<!-- Generator: Adobe Illustrator 16.0.0, SVG Export Plug-In . SVG Version: 6.00 Build 0)  -->
<!DOCTYPE svg PUBLIC "-//W3C//DTD SVG 1.1//EN" "http://www.w3.org/Graphics/SVG/1.1/DTD/svg11.dtd">
<svg version="1.1" id="Layer_1" xmlns="http://www.w3.org/2000/svg" xmlns:xlink="http://www.w3.org/1999/xlink" x="0px" y="0px"
	 width="167.925px" height="172.992px" viewBox="0 0 167.925 172.992" enable-background="new 0 0 167.925 172.992"
	 xml:space="preserve">
<g>
	<path fill="#7F7D7D" d="M92.219,164.486c-5.684-2.804-12.968-4.382-21.158-1.461c-17.186,6.129-26.698-10.361-20.03-17.761
		c0,0-5.483,4.842-2.82,11.82c2.44,6.369,9.822,12.629,26.548,8.485c6.438-1.593,14.022,1.557,18.766,5.097
		C93.249,168.648,92.222,166.579,92.219,164.486z"/>
	<g>
		<g>
			<path fill="#A3A2A3" d="M142.122,158.629c-2.389-22.375-30.616-34.877-30.616-34.877l-12.886,1.661
				c0,0-12.36,29.579-4.921,47.579h45.536C141.542,168.992,142.715,164.197,142.122,158.629z"/>
		</g>
		<path fill="#D7C4C9" d="M121.598,131.711c-18.799-16.295-22.947,22.567-20.263,33.412c0.792,3.222,2.212,5.869,4.035,7.869h29.688
			C143.111,163.992,136.27,144.432,121.598,131.711z"/>
		<path fill="#D1ACB3" d="M104.468,169.891c-2.684-10.847,1.464-49.667,20.262-33.374c3.369,2.922,6.326,6.186,8.785,9.593
			c-2.897-5.144-6.96-10.178-11.917-14.478c-18.799-16.296-22.947,22.527-20.263,33.372c0.813,3.296,1.777,5.663,4.035,7.977
			C104.96,172.021,104.739,170.992,104.468,169.891z"/>
	</g>
	<g>
		<path fill="#A3A2A3" d="M66.894,44.94c1.266,16.461-11.054,30.846-27.516,32.107c-16.471,1.27-30.849-11.06-32.113-27.525
			C5.996,33.058,18.32,18.681,34.787,17.414C51.253,16.151,65.628,28.474,66.894,44.94z"/>
		<path fill="#D1ACB3" d="M55.004,45.009c0.802,10.398-6.979,19.478-17.378,20.275c-10.396,0.801-19.472-6.977-20.272-17.38
			c-0.797-10.39,6.984-19.467,17.377-20.265C45.132,26.839,54.208,34.618,55.004,45.009z"/>
		<path fill="#D7C4C9" d="M56.288,46.687c0.779,10.17-6.83,19.041-16.991,19.822C29.13,67.292,20.256,59.69,19.473,49.517
			c-0.783-10.167,6.826-19.037,16.994-19.819C46.628,28.917,55.506,36.517,56.288,46.687z"/>
		<path fill="#A3A2A3" d="M146.618,35.933c-4.541,14.611-20.061,22.768-34.669,18.229c-14.614-4.54-22.782-20.06-18.239-34.674
			c4.549-14.605,20.063-22.776,34.672-18.23C142.995,5.8,151.155,21.321,146.618,35.933z"/>
		<path fill="#D1ACB3" d="M136.358,31.931c-2.874,9.227-12.666,14.377-21.896,11.512c-9.224-2.868-14.384-12.67-11.509-21.898
			c2.858-9.223,12.67-14.377,21.893-11.508C134.074,12.904,139.222,22.702,136.358,31.931z"/>
		<path fill="#D7C4C9" d="M136.494,33.935c-2.799,9.021-12.385,14.058-21.409,11.25c-9.018-2.803-14.06-12.387-11.257-21.407
			c2.81-9.021,12.395-14.059,21.411-11.248C134.261,15.325,139.3,24.914,136.494,33.935z"/>
		<path fill="#B3B2B3" d="M162.614,101.558l-0.311-3.709c0,0-6.433-6.417-10.459-6.514c-3.641-0.087-7.629-0.826-11.125-1.693
			c0.723-4.066,0.957-8.293,0.619-12.616c-2.111-27.485-26.111-48.063-53.604-45.946C60.25,33.193,39.671,57.198,41.788,84.683
			c2.112,27.493,25.039,48.304,52.605,47.791C129.2,131.837,162.614,101.558,162.614,101.558z"/>
		<g>
			<path fill="#A3A2A3" d="M97.733,132.167c-27.566,0.515-50.493-20.299-52.607-47.787c-2.054-26.678,17.268-50.069,43.535-53.358
				c-0.307,0.018-0.615,0.036-0.927,0.058C60.25,33.193,39.671,57.198,41.788,84.683c2.112,27.493,25.039,48.304,52.605,47.791
				c2.119-0.039,4.233-0.191,6.334-0.436C99.731,132.102,98.732,132.149,97.733,132.167z"/>
		</g>
		<path fill="#494646" d="M166.28,95.851c0.354,4.581-3.887,8.641-9.477,9.068c-5.58,0.43-10.391-2.939-10.746-7.515
			c-0.35-4.591,3.896-8.646,9.473-9.073C161.112,87.898,165.925,91.254,166.28,95.851z"/>
		<path fill="#222221" d="M147.669,100.111c-0.355-4.593,3.894-8.651,9.471-9.077c3.576-0.279,6.835,1.004,8.809,3.164
			c-1.232-3.721-5.528-6.246-10.418-5.867c-5.577,0.427-9.822,4.482-9.473,9.073c0.127,1.644,0.834,3.134,1.94,4.343
			C147.825,101.224,147.714,100.678,147.669,100.111z"/>
		<g>
			<g>
				<path fill="#222221" d="M160.919,85.181c-0.065,0.377-4.988-1.135-10.791,0.584c-5.793,1.64-9.613,4.986-9.822,4.7
					c-0.285-0.192,3.321-4.147,9.484-5.907c3.043-0.876,5.979-0.834,7.998-0.477C159.82,84.46,160.964,85.036,160.919,85.181z"/>
			</g>
			<g>
				<path fill="#222221" d="M154.781,78.411c0.099,0.327-3.892,1.695-7.737,5.077c-3.895,3.308-6.288,6.784-6.578,6.594
					c-0.308-0.154,1.691-4.077,5.766-7.548C150.288,78.974,154.746,78.053,154.781,78.411z"/>
			</g>
			<g>
				<g>
					<path fill="#222221" d="M104.858,92.182c1.023,2.405,0.657,4.863-0.811,5.485c-1.469,0.627-3.486-0.814-4.51-3.222
						c-1.025-2.403-0.662-4.86,0.807-5.484C101.812,88.335,103.835,89.777,104.858,92.182z"/>
				</g>
			</g>
			<g>
				<g>
					<path fill="#222221" d="M131.188,83.357c0.798,2.491,0.217,4.901-1.305,5.392c-1.518,0.491-3.402-1.131-4.203-3.614
						c-0.803-2.491-0.222-4.903,1.299-5.393C128.498,79.251,130.384,80.868,131.188,83.357z"/>
				</g>
			</g>
			<g>
				<path fill="#222221" d="M58.902,128.831c-0.187-0.075,0.45-1.684,2.267-3.848c1.794-2.158,4.766-4.793,8.428-7.197
					c7.333-4.838,14.212-7.284,14.38-6.922c0.21,0.379-6.242,3.396-13.401,8.119c-3.578,2.352-6.558,4.767-8.512,6.68
					C60.098,127.563,59.126,128.943,58.902,128.831z"/>
			</g>
			<g>
				<path fill="#222221" d="M47.394,113.551c-0.2-0.298,7.549-3.903,18.105-5.015c10.562-1.227,19.056,1.051,18.84,1.51
					c-0.075,0.322-8.384-1.221-18.647-0.029C55.441,111.087,47.577,113.999,47.394,113.551z"/>
			</g>
		</g>
		<g display="none">
			<path display="inline" d="M131.395,130.534c0.038,0.081-0.331,0.341-1.038,0.723c-0.71,0.373-1.762,0.873-3.102,1.397
				c-1.34,0.521-2.969,1.069-4.836,1.505c-1.861,0.435-3.966,0.758-6.205,0.752c-2.235-0.003-4.386-0.373-6.22-1.063
				c-1.842-0.69-3.339-1.697-4.411-2.709c-1.076-1.021-1.743-2.03-2.109-2.758c-0.373-0.732-0.454-1.193-0.37-1.224
				c0.087-0.037,0.323,0.334,0.807,0.944c0.485,0.609,1.218,1.468,2.294,2.32c1.068,0.854,2.488,1.69,4.203,2.263
				c1.711,0.579,3.702,0.885,5.811,0.89c2.11,0.01,4.127-0.265,5.943-0.618c1.816-0.355,3.436-0.8,4.789-1.199
				c1.354-0.4,2.443-0.756,3.207-0.983C130.92,130.544,131.358,130.445,131.395,130.534z"/>
			<path display="inline" d="M131.395,130.534c0.038,0.081-0.331,0.341-1.038,0.723c-0.71,0.373-1.762,0.873-3.102,1.397
				c-1.34,0.521-2.969,1.069-4.836,1.505c-1.861,0.435-3.966,0.758-6.205,0.752c-2.235-0.003-4.386-0.373-6.22-1.063
				c-1.842-0.69-3.339-1.697-4.411-2.709c-1.076-1.021-1.743-2.03-2.109-2.758c-0.373-0.732-0.454-1.193-0.37-1.224
				c0.087-0.037,0.323,0.334,0.807,0.944c0.485,0.609,1.218,1.468,2.294,2.32c1.068,0.854,2.488,1.69,4.203,2.263
				c1.711,0.579,3.702,0.885,5.811,0.89c2.11,0.01,4.127-0.265,5.943-0.618c1.816-0.355,3.436-0.8,4.789-1.199
				c1.354-0.4,2.443-0.756,3.207-0.983C130.92,130.544,131.358,130.445,131.395,130.534z"/>
			<path display="inline" fill="#B3B2B3" d="M127.255,132.654c-1.34,0.521-2.969,1.069-4.836,1.505
				c-1.861,0.435-3.966,0.758-6.205,0.752c-0.48,0-0.959-0.021-1.434-0.057c0.172,0.652,0.453,1.91,0.86,2.786
				c0.555,1.185,1.339,2.316,2.398,2.621c2.421,0.7,8.632,0.587,9.441-7.305c0.006-0.063,0.018-0.244,0.026-0.404
				C127.423,132.587,127.343,132.62,127.255,132.654z"/>
			<path display="inline" fill="#FFFFFF" d="M127.255,132.654c-1.34,0.521-2.969,1.069-4.836,1.505
				c-1.861,0.435-3.966,0.758-6.205,0.752c-0.418,0-0.829-0.018-1.24-0.043c0.168,0.644,0.389,1.426,0.667,2.026
				c0.555,1.188,1.339,2.317,2.398,2.621c0.661,0.19,1.604,0.321,2.646,0.249c0.144-0.01,0.291-0.02,0.441-0.041
				c2.616-0.327,5.651-2.005,6.313-7.145C127.377,132.604,127.318,132.63,127.255,132.654z"/>
			<path display="inline" fill="#B3B2B3" d="M121.527,135.413c-0.077,2.777-0.637,3.917-1.169,4.366
				c0.108-0.002,0.217-0.005,0.326-0.015c0.144-0.01,0.291-0.02,0.441-0.041c0.319-0.039,0.645-0.102,0.971-0.185
				C122.012,138.478,121.56,134.445,121.527,135.413z"/>
		</g>
		<g>
			<path fill="#A43F69" d="M104.367,112.007c0,0,2.651,13.337,16.332,11.709c8.16-0.97,8.557-9.4,8.557-9.4
				s-6.991,3.037-13.379,2.862C107.079,116.936,104.367,112.007,104.367,112.007z"/>
			<path fill="#D7A0AD" d="M121.122,123.864c2.34-0.334,3.99-1.521,5.177-2.678c-1.321-0.756-5.962-2.945-19.447-3.19
				C109.14,121.479,113.396,124.981,121.122,123.864z"/>
			<path fill="#A3A2A3" d="M103.45,111.292c0,0,1.58,7.174,7.245,10.975c5.664,3.799,12.701,1.722,15.065-0.358
				c2.363-2.081,3.529-5.23,3.965-7.739l-0.711,0.266c0,0-0.549,5.596-4.7,7.773c-4.152,2.182-9.581,1.75-12.956-0.72
				c-3.375-2.474-5.244-5.424-6.75-9.099L103.45,111.292z"/>
			<g>
				<path d="M131.374,113.441c0.036,0.083-0.33,0.343-1.039,0.725c-0.711,0.373-1.762,0.872-3.102,1.397
					c-1.341,0.52-2.969,1.067-4.836,1.507c-1.861,0.433-3.967,0.757-6.206,0.751c-2.235-0.005-4.384-0.373-6.22-1.064
					c-1.84-0.689-3.338-1.695-4.411-2.71c-1.076-1.018-1.743-2.029-2.11-2.755c-0.371-0.734-0.453-1.193-0.368-1.225
					c0.085-0.035,0.32,0.334,0.806,0.941c0.484,0.613,1.219,1.469,2.296,2.324c1.067,0.853,2.487,1.688,4.202,2.266
					c1.711,0.575,3.702,0.881,5.812,0.885c2.108,0.008,4.126-0.265,5.942-0.615c1.814-0.356,3.436-0.803,4.789-1.202
					s2.443-0.755,3.207-0.982C130.898,113.454,131.336,113.354,131.374,113.441z"/>
				<path d="M131.374,113.441c0.036,0.083-0.33,0.343-1.039,0.725c-0.711,0.373-1.762,0.872-3.102,1.397
					c-1.341,0.52-2.969,1.067-4.836,1.507c-1.861,0.433-3.967,0.757-6.206,0.751c-2.235-0.005-4.384-0.373-6.22-1.064
					c-1.84-0.689-3.338-1.695-4.411-2.71c-1.076-1.018-1.743-2.029-2.11-2.755c-0.371-0.734-0.453-1.193-0.368-1.225
					c0.085-0.035,0.32,0.334,0.806,0.941c0.484,0.613,1.219,1.469,2.296,2.324c1.067,0.853,2.487,1.688,4.202,2.266
					c1.711,0.575,3.702,0.881,5.812,0.885c2.108,0.008,4.126-0.265,5.942-0.615c1.814-0.356,3.436-0.803,4.789-1.202
					s2.443-0.755,3.207-0.982C130.898,113.454,131.336,113.354,131.374,113.441z"/>
				<path fill="#C7C7C7" d="M127.233,115.563c-1.341,0.52-2.969,1.067-4.836,1.507c-1.861,0.433-3.967,0.757-6.206,0.751
					c-0.48-0.001-0.958-0.021-1.433-0.057c0.171,0.652,0.454,1.91,0.86,2.785c0.554,1.184,1.339,2.315,2.397,2.62
					c2.421,0.702,8.633,0.583,9.441-7.302c0.008-0.068,0.018-0.244,0.026-0.406C127.4,115.497,127.32,115.532,127.233,115.563z"/>
				<path fill="#FFFFFF" d="M127.233,115.563c-1.341,0.52-2.969,1.067-4.836,1.507c-1.861,0.433-3.967,0.757-6.206,0.751
					c-0.417,0-0.829-0.019-1.241-0.044c0.169,0.642,0.39,1.427,0.669,2.03c0.554,1.186,1.339,2.313,2.397,2.617
					c0.661,0.191,1.605,0.321,2.646,0.25c0.144-0.012,0.291-0.02,0.442-0.045c2.615-0.322,5.651-2.004,6.312-7.142
					C127.355,115.512,127.296,115.538,127.233,115.563z"/>
				<path fill="#C7C7C7" d="M121.507,118.321c-0.078,2.777-0.639,3.92-1.17,4.366c0.106-0.001,0.19,0.255,0.302,0.247
					c0.144-0.01,0.333,0.02,0.483,0c0.318-0.037,0.627-0.402,0.953-0.487C121.989,121.39,121.537,117.353,121.507,118.321z"/>
			</g>
		</g>
	</g>
	<path fill="#80BBCE" d="M167.301,165.936c0.008-0.922-0.414-1.765-1.188-2.302c-2.279-1.581-6.038,0.238-10.387,2.371
		c-2.066,1.014-5.489,2.673-6.501,2.497c-0.269-0.965,1.18-2.558,2.352-3.841c1.446-1.584,2.813-3.082,2.677-4.808
		c-0.045-0.584-0.295-1.437-1.226-2.181c-2.454-1.961-6.351,1.095-12.512,6.244c-2.277,1.903-5.575,4.66-7.117,5.323
		c0.346-0.91,1.557-2.55,2.333-3.602c2.146-2.903,4.577-6.194,2.575-8.626c-2.315-2.814-7.288,0.925-13.044,5.256
		c-0.763,0.573-1.636,1.23-2.46,1.827c0.779-1.096,1.679-2.275,2.362-3.174c3.57-4.686,4.984-6.649,4.129-8.21
		c-0.179-0.326-0.74-1.071-2.001-0.969c-1.776,0.146-4.129,1.596-6.619,3.131c-1.205,0.742-3.058,1.884-4.136,2.309
		c0.559-1.594,3.225-4.521,4.747-6.193c2.705-2.97,3.997-4.462,3.809-5.917c-0.077-0.603-0.433-1.103-0.974-1.373
		c-1.429-0.712-3.52,0.168-12.442,5.245c-2.232,1.271-4.54,2.584-5.354,2.89c-0.525,0.202-2.399-2.075-3.618-5.141l-2.789,1.106
		c0.781,1.969,3.635,8.276,7.463,6.843c0.986-0.371,2.84-1.416,5.782-3.091c1.904-1.083,4.828-2.746,7.067-3.868
		c-0.393,0.442-0.798,0.886-1.161,1.286c-2.91,3.195-5.919,6.499-5.608,9.17c0.145,1.23,0.879,1.76,1.305,1.966
		c1.678,0.813,3.827-0.424,7.484-2.678c1.003-0.618,2.137-1.316,3.138-1.848c-0.78,1.126-1.808,2.475-2.606,3.523
		c-3.861,5.068-5.248,7.135-4.481,8.745c0.237,0.497,0.683,0.857,1.221,0.989c1.396,0.346,2.985-0.739,7.548-4.172
		c2.443-1.839,7.441-5.6,8.984-5.622c0.211,0.829-1.831,3.594-2.731,4.813c-2.136,2.891-4.344,5.879-2.106,7.919
		c2.189,1.996,5.784-1.051,11.227-5.603c2.582-2.158,7.34-6.181,8.772-6.181c0.007,0,0.014,0,0.021,0
		c0.015,0,0.023,0.066,0.028,0.068c-0.041,0.492-1.202,1.786-1.9,2.551c-1.782,1.952-4.002,4.394-2.875,7.11
		c0.303,0.731,0.851,1.271,1.582,1.546c2.085,0.791,5.278-0.777,8.979-2.591c2.02-0.989,6.123-2.915,7.228-2.597
		c-0.315,1.192-3.385,3.912-7.153,6.912h4.918C164.744,170.992,167.283,167.998,167.301,165.936z"/>
	<path fill="#91D0DD" d="M28.39,118.083c38.081,41.906,66.643,45.133,79.097,25.854c9.532-14.754-2.112-31.355-12.709-35.484
		c-10.595-4.127-22.341,3.456-22.341,3.456s-14.611,3.54-25.254-8.794c-10.643-12.335-9.932-27.4-9.932-27.4
		c10.279-10.045,11.113-30.502-1.314-39.781c-12.426-9.281-21.859-5.042-29.815,2.858C0.024,44.849-12.686,72.883,28.39,118.083z"/>
	<path fill="#80BBCE" d="M28.39,118.083c38.081,41.906,66.643,45.133,79.097,25.854c8.55-13.232,0.063-27.945-9.423-33.818l0,0
		c1.292,0.75,18.885,16.396-3.121,31.595c-16.473,11.379-39.883-0.216-70.918-34.757C10.189,91.559-1.314,69.952,0.604,49.563
		C-2.814,62.642-0.719,86.053,28.39,118.083z"/>
	<path fill="#A3A2A3" d="M81.649,154.844c-2.772,1.97-10.172,5.701-15.783,3.122c-4.936-2.268-8.33-10.489-8.195-14.269
		c0,0-1.965-3.209-1.611-4.2c0.509-1.414,2.914,0.986,2.914,0.986s-0.502-3.867,0.332-4.343c1.37-0.8,2.58,4.093,2.58,4.093
		s-0.036-4.802,1.308-4.577c2.025,0.342,0.837,4.494,2.649,6.248c1.814,1.754,2.911,1.257,2.756,2.875
		c-0.089,0.977-3.418,0.812-3.418,0.812S72.155,153.238,81.649,154.844z"/>
	<g>
		<path fill="#A3A2A3" d="M94.984,137.808c0.325,0.904,4.214,1.09,4.214,1.09s-2.787,1.951-1.48,2.701
			c0.913,0.516,4.422-0.848,4.422-0.848c3.179,0.686,20.85,0.028,27.755-0.413c6.905-0.44-2.806-18.573-12.562-12.224
			c-9.754,6.351-12.005,5.583-12.005,5.583s0.74-3.245-0.195-3.517c-1.566-0.428-1.269,0.729-3.321,2.211
			c-2.041,1.48-5.912-0.418-6.611,1.5c-0.468,1.291,4.271,2.1,4.271,2.1S94.442,136.32,94.984,137.808z"/>
	</g>
</g>
</svg>
