<?xml version="1.0" encoding="utf-8"?>
<!-- Generator: Adobe Illustrator 16.0.0, SVG Export Plug-In . SVG Version: 6.00 Build 0)  -->
<!DOCTYPE svg PUBLIC "-//W3C//DTD SVG 1.1//EN" "http://www.w3.org/Graphics/SVG/1.1/DTD/svg11.dtd">
<svg version="1.1" id="Layer_1" xmlns="http://www.w3.org/2000/svg" xmlns:xlink="http://www.w3.org/1999/xlink" x="0px" y="0px"
	 width="53px" height="44.125px" viewBox="0 0 53 44.125" enable-background="new 0 0 53 44.125" xml:space="preserve">
<g>
	<circle fill="#A3A2A3" cx="9.959" cy="15.73" r="9.959"/>
	<path fill="#D1ACB3" d="M15.931,14.991c0.268,3.462-2.324,6.489-5.788,6.752c-3.463,0.269-6.486-2.324-6.752-5.788
		c-0.265-3.46,2.326-6.483,5.789-6.749C12.643,8.939,15.666,11.53,15.931,14.991z"/>
	<circle fill="#D7C4C9" cx="10.227" cy="16.021" r="6.149"/>
	<path fill="#A3A2A3" d="M46.445,11.968c-1.512,4.867-6.682,7.583-11.547,6.071c-4.869-1.513-7.588-6.681-6.075-11.548
		c1.516-4.864,6.683-7.586,11.547-6.073C45.238,1.932,47.956,7.101,46.445,11.968z"/>
	<circle fill="#D1ACB3" cx="37.464" cy="8.905" r="5.826"/>
	<path fill="#D7C4C9" d="M43.073,11.302c-0.933,3.004-4.125,4.682-7.132,3.747c-3.004-0.934-4.684-4.126-3.75-7.129
		c0.937-3.005,4.129-4.683,7.132-3.749C42.329,5.103,44.008,8.298,43.073,11.302z"/>
	<path fill="#B3B2B3" d="M51.773,33.824l-0.137-1.643c0,0-1.887-1.775-3.076-1.759c-1.311,0.021-2.793-0.248-4.082-0.565
		c0.242-1.356,0.319-2.764,0.207-4.203C43.982,16.5,35.988,9.647,26.833,10.352c-9.154,0.704-16.008,8.698-15.304,17.855
		c0.705,9.157,8.34,16.086,17.524,15.916C40.645,43.912,51.773,33.824,51.773,33.824z"/>
	<path fill="#A3A2A3" d="M30.164,44.02c-9.184,0.172-16.82-6.759-17.522-15.916c-0.685-8.885,5.75-16.674,14.499-17.771
		c-0.102,0.006-0.205,0.012-0.308,0.02c-9.154,0.704-16.008,8.698-15.304,17.855c0.705,9.157,8.34,16.086,17.523,15.916
		c0.705-0.014,1.409-0.063,2.108-0.145C30.828,43.999,30.496,44.016,30.164,44.02z"/>
	<path fill="#494646" d="M52.993,31.924c0.118,1.527-1.294,2.881-3.157,3.02c-1.857,0.146-3.459-0.978-3.577-2.5
		c-0.118-1.529,1.298-2.881,3.155-3.023C51.271,29.275,52.876,30.395,52.993,31.924z"/>
	<path fill="#222221" d="M46.795,33.343c-0.119-1.528,1.297-2.881,3.154-3.022c1.189-0.092,2.275,0.334,2.934,1.054
		c-0.41-1.238-1.842-2.08-3.469-1.955c-1.857,0.142-3.273,1.494-3.155,3.022c0.041,0.548,0.276,1.043,0.646,1.447
		C46.848,33.714,46.809,33.532,46.795,33.343z"/>
	<g>
		<g>
			<path fill="#222221" d="M51.208,28.37c-0.022,0.124-1.66-0.376-3.595,0.194c-1.93,0.547-3.201,1.662-3.271,1.566
				c-0.096-0.063,1.104-1.381,3.158-1.968c1.013-0.29,1.992-0.278,2.664-0.159C50.842,28.132,51.223,28.322,51.208,28.37z"/>
		</g>
		<g>
			<path fill="#222221" d="M49.164,26.115c0.033,0.109-1.297,0.564-2.578,1.691c-1.296,1.102-2.093,2.26-2.189,2.196
				c-0.103-0.05,0.563-1.356,1.92-2.515C47.667,26.302,49.152,25.997,49.164,26.115z"/>
		</g>
		<g>
			<g>
				
					<ellipse transform="matrix(-0.3911 -0.9204 0.9204 -0.3911 15.4192 72.3617)" fill="#222221" cx="31.647" cy="31.08" rx="1.576" ry="0.964"/>
			</g>
		</g>
		<g>
			<g>
				
					<ellipse transform="matrix(-0.3064 -0.9519 0.9519 -0.3064 26.0488 75.1005)" fill="#222221" cx="40.387" cy="28.06" rx="1.575" ry="0.962"/>
			</g>
		</g>
		<g>
			<path fill="#222221" d="M17.229,42.909c-0.062-0.025,0.15-0.562,0.755-1.281c0.598-0.719,1.587-1.595,2.809-2.397
				c2.441-1.61,4.734-2.428,4.79-2.306c0.069,0.126-2.08,1.132-4.465,2.704c-1.193,0.785-2.184,1.589-2.834,2.225
				C17.628,42.488,17.304,42.945,17.229,42.909z"/>
		</g>
		<g>
			<path fill="#222221" d="M13.396,37.82c-0.067-0.1,2.514-1.301,6.031-1.67c3.518-0.408,6.346,0.349,6.274,0.502
				c-0.024,0.108-2.792-0.406-6.21-0.01C16.076,37,13.457,37.968,13.396,37.82z"/>
		</g>
	</g>
	<g>
		<path d="M41.373,38.313c0.014,0.028-0.107,0.115-0.346,0.242c-0.236,0.125-0.586,0.29-1.032,0.465
			c-0.446,0.172-0.989,0.355-1.61,0.5c-0.619,0.146-1.32,0.254-2.066,0.252c-0.746,0-1.461-0.125-2.072-0.355
			c-0.614-0.229-1.111-0.564-1.469-0.902c-0.359-0.34-0.58-0.676-0.702-0.916c-0.125-0.246-0.152-0.398-0.124-0.41
			c0.027-0.012,0.105,0.111,0.268,0.315s0.405,0.488,0.766,0.772c0.355,0.285,0.828,0.563,1.398,0.754
			c0.569,0.193,1.233,0.295,1.936,0.296c0.703,0.004,1.375-0.089,1.979-0.205c0.604-0.12,1.146-0.269,1.597-0.4
			c0.451-0.134,0.813-0.252,1.066-0.327C41.216,38.318,41.361,38.285,41.373,38.313z"/>
		<path d="M41.373,38.313c0.014,0.028-0.107,0.115-0.346,0.242c-0.236,0.125-0.586,0.29-1.032,0.465
			c-0.446,0.172-0.989,0.355-1.61,0.5c-0.619,0.146-1.32,0.254-2.066,0.252c-0.746,0-1.461-0.125-2.072-0.355
			c-0.614-0.229-1.111-0.564-1.469-0.902c-0.359-0.34-0.58-0.676-0.702-0.916c-0.125-0.246-0.152-0.398-0.124-0.41
			c0.027-0.012,0.105,0.111,0.268,0.315s0.405,0.488,0.766,0.772c0.355,0.285,0.828,0.563,1.398,0.754
			c0.569,0.193,1.233,0.295,1.936,0.296c0.703,0.004,1.375-0.089,1.979-0.205c0.604-0.12,1.146-0.269,1.597-0.4
			c0.451-0.134,0.813-0.252,1.066-0.327C41.216,38.318,41.361,38.285,41.373,38.313z"/>
		<path fill="#B3B2B3" d="M39.996,39.021c-0.446,0.172-0.989,0.354-1.609,0.5c-0.621,0.146-1.322,0.254-2.068,0.252
			c-0.16-0.002-0.32-0.008-0.479-0.021c0.059,0.218,0.152,0.637,0.287,0.93c0.186,0.394,0.447,0.771,0.799,0.873
			c0.807,0.233,2.875,0.193,3.146-2.433c0.002-0.022,0.006-0.082,0.008-0.136C40.051,38.998,40.025,39.008,39.996,39.021z"/>
		<path fill="#FFFFFF" d="M39.996,39.021c-0.446,0.172-0.989,0.354-1.609,0.5c-0.621,0.146-1.322,0.254-2.068,0.252
			c-0.139,0-0.276-0.008-0.412-0.018c0.056,0.217,0.128,0.477,0.221,0.678c0.186,0.396,0.447,0.771,0.799,0.873
			c0.221,0.063,0.535,0.105,0.881,0.082c0.049-0.003,0.098-0.006,0.148-0.012c0.871-0.109,1.881-0.669,2.1-2.38
			C40.035,39.003,40.018,39.011,39.996,39.021z"/>
		<path fill="#B3B2B3" d="M38.087,39.938c-0.026,0.927-0.211,1.308-0.39,1.455c0.035,0,0.072-0.002,0.109-0.004
			c0.047-0.004,0.096-0.007,0.147-0.013c0.104-0.017,0.214-0.036,0.323-0.063C38.248,40.96,38.098,39.618,38.087,39.938z"/>
	</g>
</g>
</svg>
