<?xml version="1.0" encoding="utf-8"?>
<!-- Generator: Adobe Illustrator 16.0.0, SVG Export Plug-In . SVG Version: 6.00 Build 0)  -->
<!DOCTYPE svg PUBLIC "-//W3C//DTD SVG 1.1//EN" "http://www.w3.org/Graphics/SVG/1.1/DTD/svg11.dtd">
<svg version="1.1" xmlns="http://www.w3.org/2000/svg" xmlns:xlink="http://www.w3.org/1999/xlink" x="0px" y="0px" width="128px"
	 height="116px" viewBox="0 0 128 116" enable-background="new 0 0 128 116" xml:space="preserve">
<g id="wzor">
</g>
<g id="ilu">
	<g>
		<path fill="#A3A2A3" d="M68.123,93.257c0,0,8.215,3.103,17.96,1.772c0,0,1.275-1.889,1.299-3.013
			c0.023-1.123,0.688-1.129,1.205-0.462c0.517,0.667,0.37,1.849,0,3.475c-0.37,1.626-0.786,1.07-0.635,2.106
			c0.246,1.681,1.477-0.382,1.853,1.127c0.5,1.994-4.173,1.125-4.173,1.125s-3.842,2.807-8.792,2.956
			C71.89,102.491,68.123,93.257,68.123,93.257z"/>
		<path fill="#A3A2A3" d="M56.496,103.535c-1.01-3.787-1.54-7.422-1.817-9.996c-1.853,1.221-10.118,6.782-13.145,10.704
			c0,0-2.182,0.744-2.403,1.349c-0.313,0.868,1.76,0.676,1.76,0.676s-1.75,1.626-1.545,2.18c0.334,0.911,2.821-0.923,2.821-0.923
			s-1.898,2.253-1.173,2.674c1.089,0.632,2.154-1.793,3.694-1.91c1.543-0.118,1.866,0.545,2.425-0.279
			c0.341-0.495-1.293-1.719-1.293-1.719S52.479,103.959,56.496,103.535z"/>
		<path fill="#A3A2A3" d="M82.719,112.814c-1.464-13.716-18.767-21.479-18.767-21.479l-7.898,1.17c0,0-5.326,12.855-4.353,23.494
			h31.059C82.833,115.112,82.828,113.836,82.719,112.814z"/>
		<path fill="#D7C4C9" d="M70.138,96.567c-10.997-9.532-13.811,11.452-12.617,19.432h22.958
			C80.673,109.793,76.673,102.234,70.138,96.567z"/>
		<path fill="#D1ACB3" d="M72.056,99.309c2.066,1.792,3.879,3.667,5.386,5.755c-1.776-3.154-4.267-6.051-7.304-8.686
			c-10.997-9.531-13.811,11.642-12.617,19.621h1.676C58.97,106.247,62.277,90.831,72.056,99.309z"/>
		<path fill="#7F7D7D" d="M51.574,112.876c-3.483-1.717-7.949-2.715-12.969-0.924c-10.535,3.757-16.367-6.367-12.278-10.902
			c0,0-3.361,2.961-1.728,7.238c1.496,3.904,6.02,7.797,16.273,5.257c3.496-0.866,7.108,0.683,9.909,2.455h0.966
			C51.64,115.112,51.577,113.91,51.574,112.876z"/>
		<path fill="#A3A2A3" d="M86.96,95.154c0.711-0.134,0.633-0.399,1.417,0s1.273,0.867,1.303,2.073
			c0.029,1.201-1.164,1.594-1.654,1.736c-0.697,0.202-1.635-0.334-1.635-0.334L86.96,95.154z"/>
		<path fill="#A3A2A3" d="M36.605,42.921c0.775,10.092-6.775,18.908-16.866,19.683C9.642,63.381,0.831,55.823,0.055,45.732
			c-0.777-10.096,6.776-18.907,16.87-19.683C27.019,25.275,35.829,32.826,36.605,42.921z"/>
		<path fill="#D1ACB3" d="M29.317,42.965c0.492,6.373-4.277,11.939-10.652,12.429c-6.373,0.491-11.937-4.279-12.426-10.654
			c-0.49-6.37,4.28-11.933,10.651-12.424C23.266,31.827,28.831,36.596,29.317,42.965z"/>
		<path fill="#D7C4C9" d="M30.104,43.991c0.478,6.235-4.186,11.674-10.415,12.152c-6.23,0.479-11.671-4.179-12.151-10.416
			c-0.482-6.232,4.185-11.668,10.417-12.148C24.183,33.101,29.625,37.759,30.104,43.991z"/>
		<path fill="#A3A2A3" d="M85.475,37.401c-2.784,8.955-12.298,13.955-21.252,11.174c-8.958-2.783-13.965-12.297-11.18-21.255
			c2.79-8.952,12.299-13.962,21.253-11.173C83.254,18.93,88.257,28.444,85.475,37.401z"/>
		<path fill="#D1ACB3" d="M79.186,34.947c-1.761,5.656-7.764,8.813-13.421,7.057c-5.654-1.757-8.817-7.767-7.055-13.423
			c1.753-5.654,7.767-8.813,13.42-7.055C77.785,23.284,80.941,29.29,79.186,34.947z"/>
		<path fill="#D7C4C9" d="M79.269,36.175c-1.714,5.529-7.591,8.618-13.124,6.896c-5.527-1.719-8.618-7.592-6.9-13.123
			c1.722-5.528,7.598-8.617,13.125-6.895C77.9,24.768,80.989,30.646,79.269,36.175z"/>
		<path fill="#B3B2B3" d="M95.281,77.624l-0.251-2.997c0,0-3.586-3.269-5.852-3.261c-2.364,0.009-5.015-0.473-7.319-1.044
			c0.443-2.493,0.587-5.085,0.38-7.733C80.945,45.74,66.233,33.128,49.38,34.425c-16.848,1.297-29.461,16.011-28.164,32.859
			c1.295,16.851,15.348,29.607,32.247,29.292C74.798,96.188,95.281,77.624,95.281,77.624z"/>
		<g>
			<path fill="#A3A2A3" d="M55.51,96.389c-16.897,0.315-30.951-12.44-32.248-29.292c-1.259-16.353,10.586-30.689,26.687-32.706
				c-0.189,0.011-0.377,0.019-0.568,0.036c-16.848,1.295-29.461,16.009-28.164,32.857c1.295,16.851,15.348,29.607,32.247,29.292
				c1.3-0.022,2.595-0.116,3.884-0.265C56.734,96.351,56.122,96.38,55.51,96.389z"/>
		</g>
		<path fill="#494646" d="M97.527,74.128c0.216,2.809-2.382,5.299-5.809,5.561c-3.419,0.263-6.37-1.801-6.587-4.605
			c-0.215-2.814,2.388-5.301,5.806-5.563C94.36,69.254,97.31,71.312,97.527,74.128z"/>
		<path fill="#222221" d="M86.119,76.739c-0.217-2.813,2.387-5.302,5.806-5.563c2.192-0.169,4.189,0.615,5.399,1.941
			c-0.755-2.28-3.389-3.828-6.386-3.597c-3.417,0.262-6.021,2.748-5.806,5.561c0.078,1.008,0.511,1.92,1.189,2.661
			C86.214,77.422,86.146,77.088,86.119,76.739z"/>
		<g>
			<g>
				<path fill="#222221" d="M94.242,67.587c-0.042,0.23-3.058-0.694-6.616,0.358c-3.55,1.006-5.891,3.058-6.021,2.883
					c-0.173-0.118,2.036-2.544,5.814-3.622c1.865-0.537,3.665-0.513,4.903-0.291C93.567,67.146,94.269,67.5,94.242,67.587z"/>
			</g>
			<g>
				<path fill="#222221" d="M90.479,63.438c0.06,0.2-2.386,1.038-4.744,3.113c-2.388,2.027-3.854,4.158-4.032,4.043
					c-0.19-0.096,1.036-2.499,3.533-4.629C87.724,63.78,90.457,63.218,90.479,63.438z"/>
			</g>
			<g>
				<g>
					
						<ellipse transform="matrix(-0.3915 -0.9202 0.9202 -0.3915 14.2768 154.5871)" fill="#222221" cx="58.249" cy="72.573" rx="2.899" ry="1.772"/>
				</g>
			</g>
			<g>
				<g>
					
						<ellipse transform="matrix(-0.3068 -0.9518 0.9518 -0.3068 33.3519 158.3182)" fill="#222221" cx="74.332" cy="67.013" rx="2.9" ry="1.774"/>
				</g>
			</g>
			<g>
				<path fill="#222221" d="M31.708,94.346c-0.114-0.047,0.275-1.03,1.389-2.358c1.1-1.322,2.92-2.937,5.166-4.414
					c4.495-2.964,8.711-4.463,8.814-4.242c0.129,0.234-3.825,2.084-8.215,4.979c-2.193,1.44-4.019,2.921-5.217,4.094
					C32.44,93.57,31.844,94.413,31.708,94.346z"/>
			</g>
			<g>
				<path fill="#222221" d="M24.653,84.978c-0.124-0.182,4.627-2.393,11.098-3.074c6.474-0.75,11.68,0.646,11.549,0.928
					c-0.048,0.197-5.139-0.748-11.432-0.02C29.586,83.468,24.766,85.253,24.653,84.978z"/>
			</g>
		</g>
		<g>
			<path d="M76.144,85.889c0.021,0.051-0.204,0.208-0.638,0.443c-0.434,0.229-1.079,0.535-1.899,0.855
				c-0.823,0.318-1.822,0.656-2.964,0.923c-1.141,0.267-2.432,0.464-3.804,0.463c-1.371-0.004-2.689-0.229-3.814-0.653
				c-1.127-0.423-2.046-1.039-2.704-1.66c-0.66-0.626-1.069-1.243-1.293-1.688c-0.229-0.45-0.277-0.732-0.226-0.752
				c0.053-0.022,0.198,0.205,0.494,0.578c0.299,0.375,0.748,0.9,1.408,1.424c0.655,0.523,1.524,1.035,2.575,1.385
				c1.05,0.355,2.271,0.543,3.563,0.546c1.292,0.005,2.53-0.163,3.642-0.379c1.113-0.219,2.106-0.49,2.937-0.734
				c0.831-0.246,1.497-0.464,1.966-0.604C75.853,85.894,76.12,85.833,76.144,85.889z"/>
			<path d="M76.144,85.889c0.021,0.051-0.204,0.208-0.638,0.443c-0.434,0.229-1.079,0.535-1.899,0.855
				c-0.823,0.318-1.822,0.656-2.964,0.923c-1.141,0.267-2.432,0.464-3.804,0.463c-1.371-0.004-2.689-0.229-3.814-0.653
				c-1.127-0.423-2.046-1.039-2.704-1.66c-0.66-0.626-1.069-1.243-1.293-1.688c-0.229-0.45-0.277-0.732-0.226-0.752
				c0.053-0.022,0.198,0.205,0.494,0.578c0.299,0.375,0.748,0.9,1.408,1.424c0.655,0.523,1.524,1.035,2.575,1.385
				c1.05,0.355,2.271,0.543,3.563,0.546c1.292,0.005,2.53-0.163,3.642-0.379c1.113-0.219,2.106-0.49,2.937-0.734
				c0.831-0.246,1.497-0.464,1.966-0.604C75.853,85.894,76.12,85.833,76.144,85.889z"/>
			<path fill="#B3B2B3" d="M73.606,87.188c-0.823,0.318-1.822,0.654-2.964,0.923c-1.141,0.267-2.432,0.464-3.804,0.461
				c-0.294-0.002-0.589-0.014-0.879-0.035c0.105,0.4,0.277,1.171,0.527,1.707c0.339,0.728,0.821,1.422,1.47,1.607
				c1.484,0.43,5.292,0.356,5.787-4.478c0.005-0.04,0.01-0.149,0.017-0.248C73.709,87.147,73.658,87.167,73.606,87.188z"/>
			<path fill="#FFFFFF" d="M73.606,87.188c-0.823,0.318-1.822,0.654-2.964,0.923c-1.141,0.267-2.432,0.464-3.804,0.461
				c-0.256,0-0.51-0.011-0.762-0.026c0.104,0.394,0.24,0.874,0.41,1.241c0.339,0.729,0.821,1.422,1.47,1.607
				c0.405,0.117,0.983,0.197,1.622,0.154c0.087-0.008,0.179-0.013,0.271-0.026c1.604-0.2,3.465-1.229,3.868-4.379
				C73.68,87.156,73.645,87.172,73.606,87.188z"/>
			<path fill="#B3B2B3" d="M70.095,88.879c-0.047,1.702-0.392,2.401-0.718,2.677c0.067-0.001,0.133-0.003,0.201-0.008
				c0.087-0.008,0.179-0.013,0.271-0.026c0.195-0.022,0.394-0.063,0.595-0.112C70.391,90.756,70.114,88.285,70.095,88.879z"/>
		</g>
	</g>
	<path fill="#F1E9E9" d="M108.934,27.656C119.988,24.152,128,13.813,128,1.6c0-0.537-0.02-1.07-0.05-1.6h-14.691
		C114.385,3.094,115,6.434,115,9.917C115,16.602,112.733,22.752,108.934,27.656z"/>
</g>
<g id="paleta">
</g>
<g id="klocki" display="none">
	<g display="inline">
		<rect x="-256.524" y="-14.188" fill="#008045" width="345.137" height="15"/>
	</g>
</g>
<g id="guides">
</g>
<g id="grid" display="none">
	<g id="_x32_4_Grid_Col" display="inline">
		<g>
			<rect x="76.065" y="-3591.986" opacity="0.1" fill="#AD0E1A" width="60" height="4556"/>
		</g>
		<g>
			<rect x="-3.935" y="-3591.986" opacity="0.1" fill="#AD0E1A" width="60" height="4556"/>
		</g>
	</g>
</g>
</svg>
