<?xml version="1.0" encoding="utf-8"?>
<!-- Generator: Adobe Illustrator 16.0.0, SVG Export Plug-In . SVG Version: 6.00 Build 0)  -->
<!DOCTYPE svg PUBLIC "-//W3C//DTD SVG 1.1//EN" "http://www.w3.org/Graphics/SVG/1.1/DTD/svg11.dtd">
<svg version="1.1" id="Layer_1" xmlns="http://www.w3.org/2000/svg" xmlns:xlink="http://www.w3.org/1999/xlink" x="0px" y="0px"
	 width="280.25px" height="204.827px" viewBox="0 0 280.25 204.827" enable-background="new 0 0 280.25 204.827"
	 xml:space="preserve">
<g>
	<g>
		<polygon opacity="0.08" points="0.739,124.95 164.739,114.917 279.989,183.768 47.095,204.827 		"/>
		<polygon fill="#FFFFFF" points="1.739,123.95 165.739,113.917 280.989,182.768 48.095,203.827 		"/>
		<line display="none" fill="none" stroke="#D7C4C9" stroke-miterlimit="10" x1="169.877" y1="192.815" x2="86.157" y2="118.786"/>
		<g>
			<polygon fill="#E2CED3" points="49.989,199.268 33.489,171.768 97.732,166.674 121.879,192.393 			"/>
			<polygon fill="#E2CED3" points="132.989,156.602 168.989,188.102 270.154,179.004 221.656,149.768 			"/>
			<polygon fill="#E2CED3" points="108.239,135.268 124.802,134.143 106.177,119.331 90.739,120.206 			"/>
			<polygon fill="#E2CED3" points="109.114,119.018 126.927,117.893 128.489,119.018 110.427,120.081 			"/>
			<polygon fill="#E2CED3" points="111.802,121.143 129.927,120.018 131.364,121.081 112.989,122.268 			"/>
			<polygon fill="#E2CED3" points="114.614,123.393 133.052,122.206 134.552,123.331 115.864,124.456 			"/>
			<polygon fill="#E2CED3" points="117.427,125.643 135.989,124.456 137.489,125.393 118.864,126.768 			"/>
			<polygon fill="#E2CED3" points="120.364,127.893 139.177,126.643 140.802,127.768 121.802,129.081 			"/>
			<polygon fill="#E2CED3" points="123.239,130.206 142.302,128.893 144.114,130.206 124.864,131.518 			"/>
			<polygon fill="#E2CED3" points="126.427,132.643 145.739,131.393 147.489,132.643 128.114,133.956 			"/>
			<polygon fill="#E2CED3" points="101.552,135.706 15.614,141.581 5.802,125.268 84.677,120.518 			"/>
		</g>
		<g opacity="0.08">
			<polygon points="116.177,181.393 149.182,178.571 151.386,180.557 118.236,183.42 			"/>
			<polygon points="114.478,179.456 147.129,176.69 144.957,174.735 112.313,177.473 			"/>
			<polygon points="110.614,175.393 142.802,172.831 140.638,170.881 108.818,173.499 			"/>
			<polygon points="107.076,171.661 138.791,169.077 136.783,167.268 105.364,169.893 			"/>
			<polygon points="132.864,163.831 101.985,166.278 103.677,168.081 134.817,165.59 			"/>
			<polygon points="127.552,151.956 170.021,148.831 172.114,150.268 129.355,153.518 			"/>
			<polygon points="175.531,149.936 173.524,148.543 214.614,145.456 216.884,146.932 			"/>
			<polygon points="125.811,150.456 168.004,147.338 165.877,145.813 123.927,148.831 			"/>
			<polygon points="169.364,145.706 171.489,147.081 212.239,144.081 209.864,142.643 			"/>
			<polygon points="122.364,147.456 163.927,144.393 161.927,143.018 120.552,146.081 			"/>
			<polygon points="160.052,141.643 158.239,140.331 117.614,143.206 118.989,144.706 			"/>
			<polygon points="156.427,139.018 115.958,141.893 114.208,140.456 154.552,137.643 			"/>
			<polygon points="152.771,136.362 112.739,139.174 111.239,137.862 151.052,135.143 			"/>
			<polygon points="161.864,140.143 201.052,137.268 165.177,115.643 130.052,117.768 			"/>
			<polygon points="129.177,160.393 75.427,164.581 56.489,141.581 104.489,138.331 			"/>
			<polygon points="71.489,164.893 31.552,167.956 30.552,166.143 70.114,163.081 			"/>
			<polygon points="29.302,164.393 68.739,161.518 67.239,159.768 28.427,162.768 			"/>
			<polygon points="27.364,161.081 66.052,158.206 64.802,156.643 26.302,159.393 			"/>
			<polygon points="25.489,157.768 63.427,155.018 62.114,153.393 24.489,156.268 			"/>
			<polygon points="23.531,154.643 60.989,151.893 59.739,150.393 22.614,153.102 			"/>
			<polygon points="21.656,151.518 58.531,148.936 57.406,147.518 20.697,150.102 			"/>
			<polygon points="19.864,148.602 56.197,146.061 55.072,144.602 18.864,147.061 			"/>
			<polygon points="54.031,143.311 52.864,141.811 17.281,144.311 18.114,145.686 			"/>
			<polygon points="165.427,142.831 167.427,144.206 207.552,141.268 205.364,139.893 			"/>
			<polygon points="234.525,161.333 229.607,158.333 179.607,162.167 183.941,165.417 			"/>
			<polygon points="225.482,155.854 220.816,152.936 193.15,155.104 197.9,158.104 			"/>
			<polygon points="95.232,171.686 71.316,173.604 72.899,175.354 96.649,173.52 			"/>
			<polygon points="98.149,175.02 82.066,176.354 83.732,178.27 99.982,176.936 			"/>
			<polygon points="19.295,137.792 18.357,136.479 31.92,135.604 32.857,137.104 			"/>
			<polygon points="17.857,135.354 40.92,133.854 40.17,132.667 17.045,134.167 			"/>
		</g>
		<polygon opacity="0.1" points="170.372,192.77 86.419,118.769 85.358,118.834 169.343,192.863 		"/>
		<polygon fill="#E2CED3" points="126.177,191.956 160.677,188.893 157.935,186.454 123.715,189.497 		"/>
		<polygon fill="#E2CED3" points="131.177,186.518 155.969,184.542 153.628,182.434 128.992,184.366 		"/>
	</g>
	<path opacity="0.08" d="M162,134.651c-1.803,0-3.564,0.043-5.272,0.127c-8.642-3.111-23.158-5.15-39.612-5.15
		c-26.494,0-47.971,5.289-47.971,11.813c0,6.525,21.477,11.814,47.971,11.814c16.454,0,30.971-2.041,39.612-5.15
		c1.708,0.08,3.47,0.125,5.272,0.125c15.225,0,27.566-3.039,27.566-6.789S177.225,134.651,162,134.651z"/>
	<g>
		<g>
			<path fill="#A3A2A3" d="M141.158,128.145c-1.824-3.277-6.375-9.463-10.984-6.324c0.574,1.959-4.572,3.85-4.57,5.998
				c0.004,3.996-5,7.516-6.873,10.191c9.779-2.023,23.073,5.898,23.073,5.898c2.161-8.365,8.013-18.797,8.013-18.797
				C145.095,122.618,141.158,128.145,141.158,128.145z"/>
			<path fill="#7F7D7D" d="M149.477,136.069c-2.219,5.191-5.647,8.699-7.673,7.84c-2.022-0.869-1.87-5.779,0.341-10.963
				c2.216-5.188,5.646-8.693,7.672-7.834C151.841,125.973,151.686,130.879,149.477,136.069z"/>
		</g>
		<path fill="#7F7D7D" d="M94.313,119.575c-3.243-3.893-8.053-7.41-14.985-7.934c-14.544-1.1-16.145-16.234-8.871-19.477
			c0,0-5.576,1.76-5.896,7.723c-0.284,5.445,3.078,12.412,16.643,14.813c5.223,0.926,9.079,5.395,11.396,9.52
			C93.053,122.659,93.637,121.104,94.313,119.575z"/>
		<path fill="#A3A2A3" d="M138.686,105.258c0,0,0.36,23.113-15.138,32.246c-16.995,10.008-34.281-8.244-30.696-21.652
			c4.953-18.486,40.406-19.443,40.406-19.443L138.686,105.258z"/>
		<path fill="#A3A2A3" d="M126.975,105.127c2.958-0.977,7.668,2.391,7.847,12.277c0.163,9.031-1.917,15.027-3.81,22.477
			c-0.006,0.027,3.256,1.391,3.391,2.266c0.188,1.256-2.559,0.439-2.559,0.439s2.854,2.102,2.43,2.795
			c-0.699,1.137-4.486-1.441-4.486-1.441s3.035,3.184,1.948,3.553c-1.638,0.559-3.509-2.631-5.558-3.205
			c-2.05-0.574-2.688,0.984-3.223-0.277c-0.326-0.76,2.642-3.609,2.642-3.609s0.431-6.08-1.692-19.979
			C122.578,111.729,125.214,105.709,126.975,105.127z"/>
		<g>
			<path fill="#D7C4C9" d="M104.397,121.387c-4.594,4.336-4.701,9.707-2.021,14.549c1.943,3.514,5.954,4.551,9.747,5.213
				c9.525,1.662,19.506-9.361,21.553-22.037C136.186,103.557,110.104,115.983,104.397,121.387z"/>
			<path fill="#D1ACB3" d="M102.617,124.79c5.706-5.406,31.785-17.828,29.277-2.275c-0.451,2.787-1.285,5.494-2.412,8.006
				c2.039-3.381,4.676-9.014,5.339-13.115c2.51-15.553-24.718-1.422-30.424,3.982c-1.737,1.641-2.79,3.361-3.301,5.076
				C101.531,125.899,102.034,125.338,102.617,124.79z"/>
		</g>
		<g>
			<path fill="#A3A2A3" d="M84.537,127.633c0.78-3.967,3.09-11.871,10.957-9.48c0.061,2.199-0.217,3.865,0.494,6.066
				c1.321,4.1,1.666,6.643,4.611,11.484c-3.111-0.906-11.494,8.307-11.494,8.307c-4.992-7.859-14.453-16.613-14.453-16.613
				C78.665,123.274,84.537,127.633,84.537,127.633z"/>
			<path fill="#7F7D7D" d="M78.639,138.518c3.996,4.588,8.677,7.047,10.467,5.492c1.787-1.561,0-6.545-3.987-11.127
				c-3.993-4.584-8.676-7.041-10.466-5.486C72.861,128.952,74.65,133.932,78.639,138.518z"/>
		</g>
		<g>
			<path fill="#A3A2A3" d="M149.77,35.967c-6.657,11.398-21.299,15.252-32.696,8.594c-11.405-6.658-15.248-21.305-8.591-32.705
				c6.657-11.402,21.299-15.248,32.699-8.588C152.582,9.926,156.428,24.564,149.77,35.967z"/>
			<path fill="#D1ACB3" d="M141.92,30.607c-4.201,7.199-13.446,9.629-20.646,5.42c-7.199-4.199-9.625-13.445-5.421-20.646
				c4.2-7.193,13.446-9.621,20.642-5.418C143.696,14.168,146.123,23.412,141.92,30.607z"/>
			<path fill="#D7C4C9" d="M142.002,32.289c-4.115,7.045-13.152,9.414-20.188,5.305c-7.039-4.109-9.416-13.145-5.303-20.189
				c4.109-7.039,13.146-9.408,20.188-5.299C143.734,16.215,146.112,25.25,142.002,32.289z"/>
			<path fill="#A3A2A3" d="M206.277,66.315c-9.633,7.535-23.545,5.84-31.084-3.79c-7.541-9.635-5.85-23.553,3.783-31.092
				c9.634-7.533,23.549-5.848,31.086,3.787C217.604,44.854,215.907,58.77,206.277,66.315z"/>
			<path fill="#D1ACB3" d="M201.354,59.012c-6.087,4.76-14.865,3.691-19.631-2.391c-4.76-6.08-3.691-14.871,2.395-19.631
				c6.075-4.764,14.869-3.689,19.629,2.395C208.506,45.465,207.434,54.25,201.354,59.012z"/>
			<path fill="#D7C4C9" d="M200.531,60.393c-5.941,4.657-14.536,3.608-19.193-2.344c-4.651-5.945-3.605-14.537,2.339-19.193
				c5.95-4.654,14.543-3.605,19.193,2.344C207.529,47.143,206.479,55.738,200.531,60.393z"/>
			<path fill="#B3B2B3" d="M186.945,116.729l1.973-3.43c0,0-1.299-6.084-3.669-7.672c-2.61-1.748-5.178-4.303-7.28-6.689
				c2.326-2.346,4.404-5.018,6.146-8.012c11.114-19.029,4.695-43.475-14.34-54.59c-19.032-11.113-43.479-4.693-54.592,14.34
				c-11.115,19.034-5.508,43.143,12.848,55.346C151.201,121.438,186.945,116.729,186.945,116.729z"/>
			<g>
				<path fill="#A3A2A3" d="M130.366,107.34c-18.358-12.201-23.964-36.313-12.847-55.346c10.783-18.471,34.125-25.061,52.892-15.275
					c-0.21-0.129-0.421-0.258-0.636-0.383c-19.032-11.113-43.479-4.693-54.592,14.34c-11.115,19.034-5.508,43.143,12.848,55.346
					c1.411,0.939,2.869,1.803,4.361,2.598C131.708,108.209,131.029,107.784,130.366,107.34z"/>
			</g>
			<path fill="#494646" d="M191.949,114.645c-1.852,3.174-6.488,3.914-10.354,1.652c-3.864-2.256-5.495-6.658-3.647-9.826
				c1.856-3.178,6.494-3.914,10.354-1.658C192.168,107.069,193.805,111.465,191.949,114.645z"/>
			<path fill="#222221" d="M177.777,108.981c1.854-3.18,6.492-3.914,10.355-1.658c2.476,1.445,4.034,3.768,4.348,6.088
				c0.883-3.006-0.793-6.621-4.179-8.598c-3.86-2.256-8.498-1.52-10.354,1.658c-0.664,1.137-0.877,2.436-0.699,3.736
				C177.373,109.784,177.547,109.372,177.777,108.981z"/>
			<g>
				<g>
					<path fill="#222221" d="M193.279,105.192c-0.215,0.219-2.765-3.012-7.36-4.525c-4.556-1.557-8.59-1.092-8.597-1.375
						c-0.101-0.256,4.07-1.219,8.922,0.428c2.4,0.813,4.312,2.17,5.475,3.326C192.883,104.221,193.374,105.12,193.279,105.192z"/>
				</g>
				<g>
					<path fill="#222221" d="M192.322,97.952c-0.084,0.26-3.328-0.658-7.396-0.182c-4.066,0.402-7.219,1.6-7.324,1.342
						c-0.133-0.24,2.965-1.91,7.225-2.34C189.115,96.276,192.463,97.7,192.322,97.952z"/>
				</g>
				<g>
					<g>
						<path fill="#222221" d="M153.238,84.295c-0.422,2.047-1.781,3.496-3.029,3.238c-1.25-0.256-1.921-2.121-1.499-4.17
							c0.42-2.049,1.774-3.496,3.025-3.24C152.984,80.381,153.658,82.249,153.238,84.295z"/>
					</g>
				</g>
				<g>
					<g>
						
							<ellipse transform="matrix(0.9573 0.2892 -0.2892 0.9573 33.3419 -46.0119)" fill="#222221" cx="172.347" cy="89.802" rx="2.313" ry="3.782"/>
					</g>
				</g>
				<g>
					<path fill="#222221" d="M106.354,87.485c-0.087-0.137,1.063-0.902,3.24-1.498c2.162-0.604,5.313-0.982,8.815-0.9
						c7.02,0.156,12.657,1.678,12.603,1.992c-0.035,0.346-5.65-0.607-12.504-0.758c-3.424-0.08-6.479,0.15-8.633,0.52
						C107.717,87.196,106.451,87.659,106.354,87.485z"/>
				</g>
				<g>
					<path fill="#222221" d="M105.739,72.204c0.005-0.287,6.739,0.867,14.185,4.938c7.499,4,12.049,9.359,11.697,9.566
						c-0.196,0.178-4.955-4.617-12.244-8.504C112.15,74.245,105.654,72.583,105.739,72.204z"/>
				</g>
			</g>
			<g>
				<path d="M160.289,111.389c-0.014,0.07-0.373,0.074-1.012,0.002c-0.639-0.074-1.556-0.227-2.674-0.49
					c-1.119-0.268-2.439-0.648-3.865-1.211c-1.422-0.561-2.953-1.305-4.422-2.328c-1.468-1.02-2.715-2.238-3.604-3.529
					c-0.898-1.289-1.425-2.633-1.668-3.787c-0.244-1.16-0.224-2.125-0.134-2.771c0.088-0.65,0.244-0.992,0.314-0.975
					c0.073,0.018,0.06,0.367,0.1,0.99c0.04,0.621,0.134,1.518,0.453,2.568c0.313,1.049,0.866,2.244,1.733,3.4
					c0.861,1.158,2.032,2.266,3.416,3.227c1.384,0.967,2.833,1.705,4.188,2.299c1.355,0.59,2.622,1.035,3.693,1.389
					s1.951,0.613,2.557,0.813C159.97,111.18,160.303,111.315,160.289,111.389z"/>
				<path d="M160.289,111.389c-0.014,0.07-0.373,0.074-1.012,0.002c-0.639-0.074-1.556-0.227-2.674-0.49
					c-1.119-0.268-2.439-0.648-3.865-1.211c-1.422-0.561-2.953-1.305-4.422-2.328c-1.468-1.02-2.715-2.238-3.604-3.529
					c-0.898-1.289-1.425-2.633-1.668-3.787c-0.244-1.16-0.224-2.125-0.134-2.771c0.088-0.65,0.244-0.992,0.314-0.975
					c0.073,0.018,0.06,0.367,0.1,0.99c0.04,0.621,0.134,1.518,0.453,2.568c0.313,1.049,0.866,2.244,1.733,3.4
					c0.861,1.158,2.032,2.266,3.416,3.227c1.384,0.967,2.833,1.705,4.188,2.299c1.355,0.59,2.622,1.035,3.693,1.389
					s1.951,0.613,2.557,0.813C159.97,111.18,160.303,111.315,160.289,111.389z"/>
				<path fill="#B3B2B3" d="M156.604,110.901c-1.119-0.268-2.439-0.648-3.865-1.211c-1.422-0.561-2.953-1.305-4.422-2.328
					c-0.315-0.219-0.62-0.449-0.916-0.689c-0.186,0.508-0.57,1.461-0.701,2.223c-0.176,1.031-0.174,2.133,0.383,2.816
					c1.273,1.561,5.411,4.309,9.53-0.51c0.034-0.039,0.122-0.152,0.202-0.254C156.743,110.932,156.676,110.917,156.604,110.901z"/>
				<path fill="#FFFFFF" d="M156.604,110.901c-1.119-0.268-2.439-0.648-3.865-1.211c-1.422-0.561-2.953-1.305-4.422-2.328
					c-0.274-0.189-0.537-0.389-0.797-0.594c-0.182,0.5-0.393,1.115-0.482,1.639c-0.175,1.031-0.174,2.131,0.386,2.811
					c0.347,0.428,0.908,0.943,1.626,1.369c0.098,0.059,0.2,0.119,0.309,0.174c1.869,0.975,4.627,1.254,7.399-1.826
					C156.705,110.922,156.656,110.913,156.604,110.901z"/>
				<path fill="#B3B2B3" d="M151.582,110.11c-1.315,1.789-2.202,2.285-2.755,2.338c0.073,0.047,0.146,0.094,0.222,0.139
					c0.098,0.059,0.2,0.119,0.309,0.174c0.229,0.119,0.47,0.227,0.722,0.32C150.506,112.342,152.043,109.487,151.582,110.11z"/>
			</g>
		</g>
		<path fill="#A3A2A3" d="M120.409,106.526c-2.763-1.441-9.774,0.447-12.249,10.021c-3.01,11.639,1.08,18.32,2.307,23.088
			c0.007,0.025-3.08,1.387-3.354,2.229c-0.387,1.209,2.454,0.846,2.454,0.846s-2.327,2.32-2.02,3.072
			c0.506,1.236,3.831-1.406,3.831-1.406s-2.496,3.193-1.481,3.732c1.526,0.814,2.873-2.57,4.987-2.807
			c2.115-0.236,2.591,0.66,3.322-0.5c0.443-0.697-2.122-3.242-2.122-3.242s-0.343-7.729,3.991-21.104
			C122.786,112.092,122.053,107.381,120.409,106.526z"/>
	</g>
</g>
</svg>
